<svg xmlns="http://www.w3.org/2000/svg" viewBox="0 0 406.56 415.83"><defs><style>.cls-1{fill:#60629a;}.cls-2{fill:#ffc094;}.cls-3{fill:#4545bf;}.cls-4{fill:#a15a44;}.cls-5{fill:#ebd7cf;}.cls-6{fill:#a9735e;}.cls-7{fill:#4d2b1d;}.cls-8{fill:#664d48;}.cls-9{fill:#3d2217;}.cls-10{fill:none;}.cls-11{fill:#fa886c;}.cls-12{fill:#756158;}.cls-13{fill:#e3e3e3;}.cls-14{fill:#fff;}.cls-15{fill:#292710;}.cls-16{fill:#f38857;}.cls-17{fill:#5f4d45;}.cls-18{fill:#96c042;}.cls-18,.cls-19{fill-rule:evenodd;}.cls-19{fill:#bdd95b;}</style></defs><title>closeobject</title><g id="Layer_2" data-name="Layer 2"><g id="Layer_1-2" data-name="Layer 1"><circle class="cls-1" cx="203.28" cy="212.55" r="203.28"/><path class="cls-2" d="M241.42,48.18l0-.08a9.46,9.46,0,0,1-5.42-.29,16.13,16.13,0,0,1-4.18-2.36c-.42-.3-.76-.65-1.19-.22a6.52,6.52,0,0,0-.62,1.09A5.75,5.75,0,0,1,228.37,48c-2.14,1.41-5,1.15-7.42.44-6-1.71-11.24-5.67-15.41-10.36a72.12,72.12,0,0,1-6.89-9.39h0a46.38,46.38,0,0,1-10.59,23.27,30.55,30.55,0,0,0-3,3.36A14.85,14.85,0,0,0,183.62,60a47.81,47.81,0,0,1-1.44,5,46.75,46.75,0,0,1-4.48,9.32c-.57.92-1.45,1.94-2.51,1.71a2.83,2.83,0,0,1-1.48-1.22c-2.43-3.17-5.85-6.35-9.81-5.84s-6.54,4.68-6.61,8.63a12,12,0,0,0,10.55,12.11,8.33,8.33,0,0,1-1.09,4.22c-.25.44-.43.73-.84.8,1,8.31,1.71,16.64,2.67,24.94,0,.1,0,.19,0,.29.44,3.86.91,7.68,1.52,11.5,7.08,5.87,16.44,9.34,25.52,8,4.66-.68,9.51-3,11.5-7.17-23.37-7.88-28.46-29.83-28.46-29.83a40,40,0,0,0,21.37,14.43,31.45,31.45,0,0,0,5.63.9h0a32.68,32.68,0,0,0,6.41-.17h0c.4,0,.79-.11,1.19-.18h.08a28.89,28.89,0,0,0,11.77-4.73c5.82-4.07,9.89-10.3,12.38-17S241.09,82,241.8,74.91A114.35,114.35,0,0,0,241.42,48.18Zm-31,26.17A3.58,3.58,0,1,1,214,70.78,3.58,3.58,0,0,1,210.46,74.35Zm5.39-17.22a1.31,1.31,0,0,1-1.46,1.12,19.65,19.65,0,0,0-10.72,1.62,1.29,1.29,0,0,1-.54.12,1.3,1.3,0,0,1-.55-2.48,22.27,22.27,0,0,1,12.15-1.84A1.3,1.3,0,0,1,215.85,57.13Zm20,17.22a3.58,3.58,0,1,1,3.58-3.57A3.57,3.57,0,0,1,235.82,74.35Z"/><path class="cls-3" d="M118.74,312.1c-5.19,1.12-10.42,2.07-15.69,2.71-3.88.47-7.92.75-11.6-.57-5.6-.63-10.38-5.6-12.72-11.23s-2.59-11.89-2.58-18c0-33.14,7.24-65.88,16.76-97.61,2.14-7.12,4.44-14.31,8.55-20.5,6.28-9.48,16.28-15.85,26.52-20.82,9.45-4.58,19.39-8.24,28.48-13.48a34.34,34.34,0,0,0-1.43,3.74,43.76,43.76,0,0,0-1.44,7.24,3.26,3.26,0,0,0,.46,2.47,4,4,0,0,0,1.91,1.1q6.63,2.25,13.34,4.29v0l-13.17.7c-1,.06-2.23.21-2.74,1.11a3,3,0,0,0-.26,1.54,56.78,56.78,0,0,0,.57,6.23,374.44,374.44,0,0,0,10.73,52.1c4.19,14.9,12.48,29.27,22.69,41l0,0-.79.71a43.42,43.42,0,0,1-6.6,4.85,19.19,19.19,0,0,1-6.47,2.25q-.33,10.08-.68,20.14c-.09,2.52-.17,5-.25,7.55,0,.44,0,.88,0,1.33l-.15,4.43c0,1,.24,2.75-.65,3.48a6.36,6.36,0,0,1-2.16.62l-2.44.61-9.77,2.47-19.55,4.93L136,308C130.28,309.41,124.53,310.86,118.74,312.1Z"/><path class="cls-2" d="M389,134.82a3.18,3.18,0,0,1,.58,3,6.66,6.66,0,0,1-1.7,2.69c-.6.62-1.25,1.2-1.84,1.84q.19-4,.41-8A2.21,2.21,0,0,1,389,134.82Z"/><path class="cls-4" d="M219.82,297.43c-1,0-1.93,0-2.89.06-2.87.05-5.75.08-8.62.09H204a2.39,2.39,0,0,1-1.64-.31,1.93,1.93,0,0,1-.57-1.31c-.1-.67-.21-1.34-.31-2-.21-1.34-.4-2.69-.6-4-.06-.36-.11-.73-.16-1.1l.4-.14c4.29-1.53,8-4.33,12.13-6.16a56.21,56.21,0,0,1,14.12-3.58c2.22-.33,4.46-.56,6.7-.69,1.3-.07,2.74-.18,3.66-1.06l.08.08q-.69,5.36-1.47,10.7-.39,2.75-.8,5.47a5.59,5.59,0,0,1-.63,2.34,3.17,3.17,0,0,1-1,1,2.32,2.32,0,0,1-1.35.3l-3.63.15c-2.42.08-4.85.16-7.28.22Z"/><path class="cls-5" d="M195.89,246.27c-3,2.52-5.81,5.32-8.75,7.93l0,0v0q-.62-8.18-1.39-16.34-1.46-15.52-3.44-31-1.87-14.79-4.2-29.52-1.91-12.24-4.08-24.43c-.23-1.32-.47-2.65-.7-4-.83-4.63-1.69-9.27-2.56-13.89-.22-1.18-.42-2.37-.61-3.55,7.08,5.87,16.44,9.34,25.52,8,4.74-.69,9.68-3.11,11.61-7.38.76,5.54,1.66,11.07,2.42,16.62.11.84.23,1.69.34,2.53q1.14,8.42,2.15,16.85,1.17,9.69,2.18,19.41t1.87,19.45q.84,9.52,1.52,19.06v0H193.24v6.41h1.66c.23,4.59.54,9.15.9,13.73Z"/><path class="cls-6" d="M251.15,376.22q0,11.5-.11,23l-130.71,0v-23h57.21c2.54,0,6.08,0,8.23-1.49a6.72,6.72,0,0,0,2.43-3.5c13.4.38,18.48.44,31.9.28a7.84,7.84,0,0,0,.61,1.54c1.88,3.56,5.76,3.17,9.21,3.17H241Z"/><path class="cls-3" d="M225.32,155.59c4.86,22.83,5.22,47.15,3,70.44H217.75v0q-.69-9.53-1.52-19.06-.85-9.74-1.87-19.45t-2.18-19.41q-1-8.43-2.15-16.85h.06a7.29,7.29,0,0,1,.75-.3l2.59-.91,5.75.49c1.58.14,3.19,0,4.43,1.19A7.22,7.22,0,0,1,225.32,155.59Z"/><path class="cls-2" d="M389.4,105.45a3.74,3.74,0,0,1,1.4,3.08,5.83,5.83,0,0,1-1.19,3.26,11.26,11.26,0,0,1-2,2.06c.16-3,.34-6,.52-8.94A3,3,0,0,1,389.4,105.45Z"/><path class="cls-3" d="M187.12,254.15v0c-10.21-11.73-18.5-26.1-22.69-41a374.44,374.44,0,0,1-10.73-52.1,56.78,56.78,0,0,1-.57-6.23,3,3,0,0,1,.26-1.54c.51-.9,1.71-1.05,2.74-1.11l13.17-.7v0c1.57.48,3.14.94,4.71,1.4q2.16,12.19,4.08,24.43,2.31,14.73,4.2,29.52,2,15.47,3.44,31Q186.5,246,187.12,254.15Z"/><path class="cls-7" d="M165.91,94.71a1.39,1.39,0,0,1-.3,0,3.14,3.14,0,0,1-1.9-.86,42.62,42.62,0,0,1-9.32-11.36,72.63,72.63,0,0,1-5.3-10.72c-.66-1.67-1-3.84-2-5.35-.74-1.17-2-2.06-2.72-3.27a17.47,17.47,0,0,1-1.89-4.09,38.42,38.42,0,0,1-1.44-10.31c-.34-8.77,1.85-18.36,6.93-25.51,1.52-2.13,3.6-3.76,5.38-5.67C164,6.21,181.14,3.76,187.94,2.12q3-.74,6.08-1.24c8.25-1.36,16.86-1.31,24.8,1.29C234.39,7.25,246,22.69,246.5,39.06c.08,2.41-.13,5-1.63,6.89a6.41,6.41,0,0,1-3.48,2.15,9.46,9.46,0,0,1-5.42-.29,16.13,16.13,0,0,1-4.18-2.36c-.42-.3-.76-.65-1.19-.22a6.52,6.52,0,0,0-.62,1.09A5.75,5.75,0,0,1,228.37,48c-2.14,1.41-5,1.15-7.42.44-6-1.71-11.24-5.67-15.41-10.36a72.12,72.12,0,0,1-6.89-9.39h0a46.38,46.38,0,0,1-10.59,23.27,30.55,30.55,0,0,0-3,3.36A14.85,14.85,0,0,0,183.62,60a47.81,47.81,0,0,1-1.44,5,46.75,46.75,0,0,1-4.48,9.32c-.57.92-1.45,1.94-2.51,1.71a2.83,2.83,0,0,1-1.48-1.22c-2.43-3.17-5.85-6.35-9.81-5.84s-6.54,4.68-6.61,8.63a12,12,0,0,0,10.55,12.11,8.33,8.33,0,0,1-1.09,4.22C166.5,94.35,166.32,94.64,165.91,94.71Z"/><path class="cls-2" d="M389.7,122.84l-.57.55c-.7.64-1.45,1.2-2.17,1.81q.17-3.18.34-6.37l.15-2.6a3,3,0,0,1,3.28.73,3.61,3.61,0,0,1,.52,3.48A6.53,6.53,0,0,1,389.7,122.84Z"/><path class="cls-2" d="M389.7,122.84a3.29,3.29,0,0,1,2.08,3.54,6.71,6.71,0,0,1-2.28,3.91c-.95.9-2,1.68-3,2.59l.42-7.68c.72-.61,1.47-1.17,2.17-1.81Z"/><path class="cls-3" d="M173.19,326.87c.18.15.15.42.15.63,0,.72,0,1.44,0,2.16l0,4.31c0,2.88,0,5.76-.07,8.64s0,5.75-.07,8.62c0,.74,0,1.47,0,2.21,0,2.67-.09,5.52-1.64,7.7a6.7,6.7,0,0,1-6.07,2.73H143.53a6.7,6.7,0,0,1-6.07-2.73c-1.55-2.18-1.63-5-1.65-7.7l-.21-26.72h37C172.78,326.78,173,326.74,173.19,326.87Z"/><path class="cls-3" d="M127.85,376.25h-5.93c-.74,0-2,.31-2.5-.34-.37-.45-.2-1-.22-1.58-.13-3.05-.31-33.2-.46-62.23,5.79-1.24,11.54-2.69,17.28-4.14l1.56-.39,19.55-4.93,9.77-2.47,2.44-.61a6.36,6.36,0,0,0,2.16-.62c.89-.73.62-2.48.65-3.48l.15-4.43c0-.45,0-.89,0-1.33h0c5.36-.42,10.85.32,16.24.49v0q.12,9.64.25,19.31t.25,19.31q.12,9.64.25,19.3c.09,7,.43,14-.63,21a11.52,11.52,0,0,1-.52,2.16,6.72,6.72,0,0,1-2.43,3.5c-2.15,1.5-5.69,1.49-8.23,1.49H127.85Zm45.49-48.75c0-.21,0-.48-.15-.63s-.41-.09-.59-.09h-37l.21,26.72c0,2.67.1,5.52,1.65,7.7a6.7,6.7,0,0,0,6.07,2.73h21.89a6.7,6.7,0,0,0,6.07-2.73c1.55-2.18,1.62-5,1.64-7.7,0-.74,0-1.47,0-2.21,0-2.87,0-5.75.07-8.62s.05-5.76.07-8.64l0-4.31C173.33,328.94,173.33,328.22,173.34,327.5Z"/><path class="cls-5" d="M219.82,297.43q0,11.16,0,22.32l0,29q0,6.45,0,12.89c0,2,.05,4,0,6a13.13,13.13,0,0,0,.37,4c-13.42.16-18.5.1-31.9-.28a11.52,11.52,0,0,0,.52-2.16c1.06-7,.72-13.93.63-21q-.14-9.64-.25-19.3t-.25-19.31q-.14-9.66-.25-19.31v0a34,34,0,0,0,12.11-1.37c0,.37.1.74.16,1.1.2,1.34.39,2.69.6,4,.1.67.21,1.34.31,2a1.93,1.93,0,0,0,.57,1.31,2.39,2.39,0,0,0,1.64.31h4.32c2.87,0,5.75,0,8.62-.09C217.89,297.47,218.86,297.46,219.82,297.43Z"/><path class="cls-3" d="M168.35,119.68l.23,0c0,.1,0,.19,0,.29.44,3.86.91,7.68,1.52,11.5.19,1.18.39,2.37.61,3.55.87,4.62,1.73,9.26,2.56,13.89.23,1.33.47,2.66.7,4-1.57-.46-3.14-.92-4.71-1.4q-6.7-2-13.34-4.29a4,4,0,0,1-1.91-1.1,3.26,3.26,0,0,1-.46-2.47,43.76,43.76,0,0,1,1.44-7.24,34.34,34.34,0,0,1,1.43-3.74A27.33,27.33,0,0,1,168.35,119.68Z"/><path class="cls-8" d="M240.27,255.59q-.11,1.23-.24,2.46a4.41,4.41,0,0,0-1.58-.91,6.32,6.32,0,0,0-1.21-.24v0a4.2,4.2,0,0,0,3-1.31Z"/><path class="cls-3" d="M253.44,326.76c0,4.47,0,8.94,0,13.41q-.06,7.83-.22,15.65-.09,4-.22,8.07l-.37,0H238.15a6.69,6.69,0,0,1-6.07-2.73c-1.55-2.18-1.63-5-1.65-7.7l-.21-26.72,23.07,0Z"/><path class="cls-4" d="M196.46,245.81l-.57.46-.09-.1c-.36-4.58-.67-9.14-.9-13.73H242c-.24,4.59-.55,9.16-.91,13.74-.12,1.44-.23,2.87-.36,4.3a6.24,6.24,0,0,0-3.32-2.29,17,17,0,0,0-6.2-.39c-3.42.23-6.84.54-10.24.91-1.71.19-3.41.4-5.11.63l-2.49.34c-.55.09-1.49.42-1.76-.31s1.29-1.51,1.8-1.84a21.38,21.38,0,0,1,2.51-1.43,27.57,27.57,0,0,1,5.35-1.93c4-1,8.21-1.27,12.32-1.83a10,10,0,0,0,3.58-1,3.32,3.32,0,0,0-.05-6.16,9.59,9.59,0,0,0-3.93-.91A53.08,53.08,0,0,0,196.46,245.81Z"/><path class="cls-4" d="M237.92,273.29c-1.12-1.58-2.82-1.8-4.58-1.88q-3.39-.15-6.77,0h-.47c-1.94.07-3.89.2-5.82.39-1,.1-1.93.2-2.9.33-.54.07-1.23.32-1.68-.12-1.28-1.29,2.81-2.63,3.56-3a38.41,38.41,0,0,1,5-1.74c4.11-1.13,8.36-1.73,12.46-2.89a10,10,0,0,0,2.78-1.23c-.39,3.57-.82,7.13-1.26,10.69h0A3.15,3.15,0,0,0,237.92,273.29Z"/><path class="cls-9" d="M214.73,55.67a1.3,1.3,0,0,1-.34,2.58,19.65,19.65,0,0,0-10.72,1.62,1.29,1.29,0,0,1-.54.12,1.3,1.3,0,0,1-.55-2.48A22.27,22.27,0,0,1,214.73,55.67Z"/><path class="cls-3" d="M210,151.22c-.11-.84-.23-1.69-.34-2.53-.76-5.55-1.66-11.08-2.42-16.62-.12-.85-.23-1.69-.34-2.53-.38-3-.8-5.93-1-8.91a28.49,28.49,0,0,1,7.05,5.19c2.13,2.15,3.32,5.2,4.79,7.84l.57,1c.8,1.47,1.57,2.93,2.45,4.36a22.61,22.61,0,0,1,2.37,4.93c.47,1.56-1.05,2.48-2.3,3-2.43,1.08-4.89,2.07-7.39,3l-2.59.91a7.29,7.29,0,0,0-.75.3Z"/><circle class="cls-9" cx="235.82" cy="70.78" r="3.58" transform="translate(-9.06 96.31) rotate(-22.66)"/><circle class="cls-9" cx="210.46" cy="70.78" r="3.58" transform="matrix(0.13, -0.99, 0.99, 0.13, 112.02, 269.8)"/><path class="cls-10" d="M213.35,117.43c-.4.07-.79.13-1.19.18C212.56,117.56,213,117.5,213.35,117.43Z"/><path class="cls-10" d="M210.46,67.2A3.58,3.58,0,1,0,214,70.78,3.58,3.58,0,0,0,210.46,67.2Z"/><path class="cls-10" d="M214.73,55.67a22.27,22.27,0,0,0-12.15,1.84,1.3,1.3,0,0,0,.55,2.48,1.29,1.29,0,0,0,.54-.12,19.65,19.65,0,0,1,10.72-1.62,1.3,1.3,0,0,0,.34-2.58Z"/><path class="cls-10" d="M205.7,117.78h0a31.93,31.93,0,0,0,6.41-.17A32.68,32.68,0,0,1,205.7,117.78Z"/><path class="cls-10" d="M235.82,67.2a3.58,3.58,0,1,0,3.58,3.58A3.57,3.57,0,0,0,235.82,67.2Z"/><path class="cls-2" d="M213.43,117.42h0Z"/><path class="cls-2" d="M212.16,117.61h0Z"/><path class="cls-11" d="M178.7,102.45s5.09,22,28.46,29.83a2.12,2.12,0,0,0,.11-.21c-.12-.85-.23-1.69-.34-2.53-.38-3-.8-5.93-1-8.91,0-.23,0-.45-.06-.68l-.15-2,0-.18a31.45,31.45,0,0,1-5.63-.9A40,40,0,0,1,178.7,102.45Z"/><path class="cls-12" d="M252.2,243.68l0,.18q.22,12,.44,24a77.41,77.41,0,0,0,10.81,15.36,35.85,35.85,0,0,0,14.2,9.38C264.53,281.52,256,257,252.2,243.68Z"/><path class="cls-3" d="M351.11,196c-1.28-1.29-2.58-2.56-3.87-3.83-3.44-3.36-6.91-6.67-10.28-10.08-6.32-6.39-1.84-1.7-10.39-10.71-.79,1.28-1.83,2.68-3.61,5.92-10.23,18.52-21.75,36.27-33.45,53.9l0,0q-10.85-23.81-20.57-48.11c-4.44-11.08-8.95-22.63-17.59-30.88A60,60,0,0,0,238,143a117.38,117.38,0,0,0-19.61-8.31l-.06,0c.8,1.47,1.57,2.93,2.45,4.36a22.61,22.61,0,0,1,2.37,4.93c.47,1.56-1.05,2.48-2.3,3-2.43,1.08-4.89,2.07-7.39,3l5.75.49c1.58.14,3.19,0,4.43,1.19a7.22,7.22,0,0,1,1.71,3.91c4.86,22.83,5.22,47.15,3,70.44h15.77v6.41H242c-.24,4.59-.55,9.16-.91,13.74-.12,1.44-.23,2.87-.36,4.3a4,4,0,0,1,.66,1.81,4.16,4.16,0,0,1-1.19,3.25l.05.05q-.11,1.23-.24,2.46a3.12,3.12,0,0,1,1.18,2.46,3.43,3.43,0,0,1-1.71,2.66c-.39,3.57-.82,7.13-1.26,10.69h0a3,3,0,0,1-.35,3.16,1.29,1.29,0,0,1-.16.17l.08.08q-.69,5.36-1.47,10.7-.39,2.75-.8,5.47a5.59,5.59,0,0,1-.63,2.34,3.17,3.17,0,0,1-1,1,2.32,2.32,0,0,1-1.35.3l-3.63.15c-2.42.08-4.85.16-7.28.22l-1.84,0q0,11.16,0,22.32l0,29q0,6.45,0,12.89c0,2,.05,4,0,6a13.13,13.13,0,0,0,.37,4,7.84,7.84,0,0,0,.61,1.54c1.88,3.56,5.76,3.17,9.21,3.17h20.41a4.13,4.13,0,0,0,1.49-.09c.72-.27.74-1.06.77-1.73,0-1,.09-2,.12-3q.15-3.79.26-7.57l-.37,0H238.15a6.69,6.69,0,0,1-6.07-2.73c-1.55-2.18-1.63-5-1.65-7.7l-.21-26.72,23.07,0h.15c0-.74,0-1.49,0-2.24q0-7.83-.13-15.65t-.23-15.66q-.13-7.79-.29-15.57c-.05-3.27-.12-6.54-.18-9.81h0q-.21-12-.44-24l0-.18c3.82,13.28,12.33,37.84,25.41,48.89a24,24,0,0,0,10.7,1.16c6.84-.88,12.92-5,17.53-10.13s7.92-11.26,11.19-17.33l10.09-18.73c3-5.64,6.08-11.29,9.07-17s6.06-11.68,8.93-17.6c1.43-3,2.84-5.93,4.19-8.92q1-2.25,2-4.51C351.85,198.35,352.15,197.06,351.11,196Z"/><path class="cls-11" d="M373.68,163.72h-.16q-6.75,0-13.51.21l-4,.08A151.94,151.94,0,0,0,371,167.22,17.93,17.93,0,0,0,373.68,163.72Z"/><path class="cls-2" d="M356,164l-1.8,0c-2.11.07-4.21-.2-5.68-1.91a6.85,6.85,0,0,1-1.46-4.29c0-1.33.37-2.58.41-3.88,0-.95-.17-1.84-.09-2.81q.29-4,.66-8.12.68-7.51,1.6-15c.39-.47.82-.91,1.24-1.36a59.59,59.59,0,0,0,6.73-8.84,9.92,9.92,0,0,0,1.78-4.56,3.79,3.79,0,0,0-2.41-3.9c-1.95-.53-3.78,1.07-5.15,2.55l-1.93,2.1q-3.19,3.51-6.29,7.1a54.79,54.79,0,0,0-7.56,10.46c-5.08,9.87-4.28,21.63-6.9,32.42-1.07,4.41-1.64,5.81-2.61,7.39,8.55,9,4.07,4.32,10.39,10.71,3.37,3.41,6.84,6.72,10.28,10.08l0,0a65.37,65.37,0,0,1,12.52-15.85c3.46-3.26,7.85-5.67,11.17-9.08A151.94,151.94,0,0,1,356,164Z"/><path class="cls-11" d="M172.6,282.15c-.09,2.52-.17,5-.25,7.55h0a50.21,50.21,0,0,1,5.49-.09,255.2,255.2,0,0,1-4.63-25.72Q172.9,273,172.6,282.15Z"/><path class="cls-2" d="M240,258.05a4.41,4.41,0,0,0-1.58-.91,6.32,6.32,0,0,0-1.21-.24v0a4.2,4.2,0,0,0,3-1.31,4.16,4.16,0,0,0,1.19-3.25,4,4,0,0,0-.66-1.81,6.24,6.24,0,0,0-3.32-2.29,17,17,0,0,0-6.2-.39c-3.42.23-6.84.54-10.24.91-1.71.19-3.41.4-5.11.63l-2.49.34c-.55.09-1.49.42-1.76-.31s1.29-1.51,1.8-1.84a21.38,21.38,0,0,1,2.51-1.43,27.57,27.57,0,0,1,5.35-1.93c4-1,8.21-1.27,12.32-1.83a10,10,0,0,0,3.58-1,3.32,3.32,0,0,0-.05-6.16,9.59,9.59,0,0,0-3.93-.91,53.08,53.08,0,0,0-36.75,11.52l-.57.46c-3,2.52-5.81,5.32-8.75,7.93l-.79.71a43.42,43.42,0,0,1-6.6,4.85,19.19,19.19,0,0,1-6.47,2.25l-.06,1.88a255.2,255.2,0,0,0,4.63,25.72c3.59.11,7.19.47,10.75.58a34,34,0,0,0,12.11-1.37l.4-.14c4.29-1.53,8-4.33,12.13-6.16a56.21,56.21,0,0,1,14.12-3.58c2.22-.33,4.46-.56,6.7-.69,1.3-.07,2.74-.18,3.66-1.06a1.29,1.29,0,0,0,.16-.17,3,3,0,0,0,.35-3.16,3.15,3.15,0,0,0-.31-.57c-1.12-1.58-2.82-1.8-4.58-1.88q-3.39-.15-6.77,0h-.47c-1.94.07-3.89.2-5.82.39-1,.1-1.93.2-2.9.33-.54.07-1.23.32-1.68-.12-1.28-1.29,2.81-2.63,3.56-3a38.41,38.41,0,0,1,5-1.74c4.11-1.13,8.36-1.73,12.46-2.89a10,10,0,0,0,2.78-1.23,3.43,3.43,0,0,0,1.71-2.66A3.12,3.12,0,0,0,240,258.05Z"/><polygon class="cls-12" points="130.21 218.56 128.39 267.74 120.13 268.62 130.21 218.56"/><path class="cls-13" d="M350.91,133a59.6,59.6,0,0,0,5.84-8.27,18.63,18.63,0,0,0,2.59-6.42,9,9,0,0,0-.16-3.66,12.86,12.86,0,0,1-1.54,3.19,58.85,58.85,0,0,1-6.13,8.17l-.11,2.8C351.23,130.2,351.07,131.6,350.91,133Z"/><path class="cls-14" d="M359.34,118.3a18.63,18.63,0,0,1-2.59,6.42,59.6,59.6,0,0,1-5.84,8.27c-.39,3.46-.74,6.88-1,10.21-.25,2.78-.47,5.5-.66,8.09a9.36,9.36,0,0,0,0,1.28,13,13,0,0,1,.06,1.45,15.45,15.45,0,0,1-.23,2,10.54,10.54,0,0,0-.18,1.79,5.05,5.05,0,0,0,1,3.15c.83,1,2.07,1.35,4.25,1.28l3.17-.07,2.61,0c4.49-.13,7.25-.2,11.75-.21h1.09c1.48,0,2.56,0,4.08.08a4.37,4.37,0,0,0,3.05-.73,3.62,3.62,0,0,0,1.06-2,21.63,21.63,0,0,0,.35-3.42l0-.61c.06-1.07.11-2.15.15-3.22l.09-1.85c.12-2.6.24-5.2.38-7.8v-.05q.19-4,.4-8l.13-2.51.36-6.69,0-.32.33-6,.15-2.6c0-.79.08-1.59.13-2.39q.25-4.47.53-8.94l0-.4c.05-.88.11-1.77.16-2.65s.13-1.79.2-2.69c.14-1.83.29-3.72.28-5.53,0-.34,0-.68,0-1,0-1.91,0-3.05-.83-4.16-1.45-1.94-4.13-1.82-7.76-1.45-.55.06-1.09.12-1.6.16-3.9.3-5.72.65-10.21,1.07-.53.05-1.11.09-1.72.12-2.36.16-5,.33-6.47,1.52A7.54,7.54,0,0,0,354,93.23a33.76,33.76,0,0,0-1.2,8.32c-.06.88-.11,1.76-.18,2.63l-.42,4.95-.1,2.58c1.35-1.41,3.09-2.85,4.95-2.34a3.79,3.79,0,0,1,2.41,3.9,5.7,5.7,0,0,1-.24,1.37A9,9,0,0,1,359.34,118.3Z"/><path class="cls-15" d="M351.4,128.8l.11-2.8-.6.67c-.42.45-.85.89-1.24,1.36q-.45,3.65-.84,7.31c.72-.77,1.41-1.55,2.08-2.35C351.07,131.6,351.23,130.2,351.4,128.8Z"/><path class="cls-15" d="M387.59,87.26c-2.52-3.37-7.34-2.29-10.94-2q-6.25.48-12.5,1.07c-2.86.28-6.89.14-9.19,2.06a9.35,9.35,0,0,0-2.72,4.28c-1.19,3.61-1.15,7.61-1.47,11.37l-.84,10,1.93-2.1.2-.21.1-2.58.42-4.95c.07-.87.12-1.75.18-2.63a33.76,33.76,0,0,1,1.2-8.32,7.54,7.54,0,0,1,2.16-3.46c1.43-1.19,4.11-1.36,6.47-1.52.61,0,1.19-.07,1.72-.12,4.49-.42,6.31-.77,10.21-1.07.51,0,1.05-.1,1.6-.16,3.63-.37,6.31-.49,7.76,1.45.83,1.11.85,2.25.83,4.16,0,.34,0,.68,0,1,0,1.81-.14,3.7-.28,5.53-.07.9-.15,1.8-.2,2.69s-.11,1.77-.16,2.65l0,.4q-.27,4.47-.53,8.94c-.05.8-.09,1.6-.13,2.39l-.15,2.6-.33,6,0,.32-.36,6.69-.13,2.51q-.21,4-.4,8v.05c-.14,2.6-.26,5.2-.38,7.8l-.09,1.85c0,1.07-.09,2.15-.15,3.22l0,.61a21.63,21.63,0,0,1-.35,3.42,3.62,3.62,0,0,1-1.06,2,4.37,4.37,0,0,1-3.05.73c-1.52-.1-2.6-.09-4.08-.08h-1.09c-4.5,0-7.26.08-11.75.21l-2.61,0-3.17.07c-2.18.07-3.42-.3-4.25-1.28a5.05,5.05,0,0,1-1-3.15,10.54,10.54,0,0,1,.18-1.79,15.45,15.45,0,0,0,.23-2,13,13,0,0,0-.06-1.45,9.36,9.36,0,0,1,0-1.28c.19-2.59.41-5.31.66-8.09.3-3.33.65-6.75,1-10.21-.67.8-1.36,1.58-2.08,2.35-.27,2.56-.53,5.13-.76,7.7s-.47,5.42-.66,8.12c-.08,1,.11,1.86.09,2.81,0,1.3-.44,2.55-.41,3.88a6.85,6.85,0,0,0,1.46,4.29c1.47,1.71,3.57,2,5.68,1.91,1.92-.06,3.85-.07,5.78-.12q6.75-.19,13.51-.21h.16c1.78,0,3.58,0,5.35.08a6,6,0,0,0,4.35-1.17,5.45,5.45,0,0,0,1.65-3,29.66,29.66,0,0,0,.41-4.31c.1-1.69.16-3.39.24-5.08.12-2.61.25-5.23.38-7.84h0q.19-4,.41-8c0-.5,0-1,.07-1.51l.42-7.68q.17-3.18.34-6.37l.15-2.6c0-.79.09-1.59.14-2.38.16-3,.34-6,.52-8.94l.18-3c.17-2.76.5-5.58.49-8.34C388.76,91.27,389.05,89.21,387.59,87.26Z"/><path class="cls-7" d="M240.76,56.36a10.44,10.44,0,0,0-5.42-1.56,18.36,18.36,0,0,0-5.32.75,1.3,1.3,0,0,0,.68,2.51,15.66,15.66,0,0,1,4.57-.65,7.85,7.85,0,0,1,4.09,1.14,1.27,1.27,0,0,0,.7.21,1.31,1.31,0,0,0,.7-2.4Z"/><polygon class="cls-14" points="228.31 226.03 217.75 226.03 209.47 226.03 207.67 222.37 198.14 222.37 198.14 226.03 193.24 226.03 193.24 232.44 194.9 232.44 242.02 232.44 244.08 232.44 244.08 226.03 228.31 226.03"/><path class="cls-16" d="M167.15,84.67a.68.68,0,0,1-.33-.09A3.17,3.17,0,0,1,165,82.44a2.57,2.57,0,0,1,.27-1.35,5.06,5.06,0,0,1,1.6-2l0,0L167,79h0a3.05,3.05,0,0,0-1-1.94A3.65,3.65,0,0,0,164.27,76a1.5,1.5,0,0,0-1.5.41.66.66,0,0,1-1-.82,2.81,2.81,0,0,1,2.84-.88,4.86,4.86,0,0,1,2.32,1.45,4.28,4.28,0,0,1,1.4,2.82,1.35,1.35,0,0,1-.1.59,1.53,1.53,0,0,1-.51.59,3.85,3.85,0,0,0-1.22,1.5,1.33,1.33,0,0,0-.15.66c.05.44.59.81,1.17,1.14a.67.67,0,0,1,.25.91A.68.68,0,0,1,167.15,84.67Z"/><path class="cls-16" d="M222.15,93.49a7.7,7.7,0,0,1-1.35-.12,9.5,9.5,0,0,1-6.1-4.27.67.67,0,0,1,.2-.92.66.66,0,0,1,.92.2A8.09,8.09,0,0,0,221,92.06a6,6,0,0,0,5.74-2,.67.67,0,0,1,.93-.11.66.66,0,0,1,.11.93A7.25,7.25,0,0,1,222.15,93.49Z"/><rect class="cls-3" x="90.5" y="232.27" width="73.27" height="1.32" transform="translate(-126.53 310.86) rotate(-78.45)"/><path class="cls-17" d="M119.78,312.56l-.29-1.3c5.49-1.2,11-2.59,16.37-3.94l33.32-8.41c.19-.05.42-.08.65-.13a3.73,3.73,0,0,0,1.25-.35c.46-.38.43-1.48.41-2.28,0-.26,0-.5,0-.71l.15-4.44,1.32.05-.15,4.43c0,.19,0,.41,0,.64,0,1.07.06,2.54-.9,3.33a4,4,0,0,1-1.86.64c-.21,0-.41.07-.56.11l-33.32,8.4C130.82,310,125.28,311.35,119.78,312.56Z"/><path class="cls-17" d="M88.6,285l-1.11-.72c4.49-6.9,11.75-10.61,17.05-12.51,6.72-2.4,13.86-3.32,20.77-4.2l46.25-5.92c.65-.08,1.24-.17,1.82-.28l.24,1.3c-.6.12-1.22.21-1.89.3l-46.25,5.91c-6.84.88-13.91,1.78-20.5,4.14C99.88,274.8,92.89,278.36,88.6,285Z"/><path class="cls-16" d="M212.7,260.55a.66.66,0,0,1-.07-1.32c5.24-.53,10.54-1.29,15.67-2l5.41-.76a11.43,11.43,0,0,1,4.93.07.66.66,0,0,1,.44.83.67.67,0,0,1-.83.44,10.18,10.18,0,0,0-4.36,0l-5.4.76c-5.15.74-10.46,1.5-15.73,2Z"/><path class="cls-17" d="M106.28,270.11c-5.42-1.17-10.72-1-15.39-.87-.86,0-1.7.06-2.52.07l0-1.32,2.5-.07c4.75-.14,10.13-.31,15.71.9Z"/><path class="cls-17" d="M174,153.55c-6.11-1.77-12.25-3.71-18.27-5.76a4.53,4.53,0,0,1-2.22-1.31,3.83,3.83,0,0,1-.59-3,42.39,42.39,0,0,1,1.46-7.34,32.23,32.23,0,0,1,1.47-3.85l1.21.55a32,32,0,0,0-1.42,3.69,42.26,42.26,0,0,0-1.41,7.13,2.6,2.6,0,0,0,.32,2,3.34,3.34,0,0,0,1.61.88c6,2,12.12,4,18.21,5.74Z"/><path class="cls-17" d="M186.67,254.68c-10.72-12.31-18.86-27-22.89-41.33A376.15,376.15,0,0,1,153,161.15a52.7,52.7,0,0,1-.58-6.3,3.47,3.47,0,0,1,.34-1.88c.74-1.31,2.46-1.4,3.29-1.44l13.16-.71.07,1.33-13.16.7c-.9.05-1.87.18-2.21.77a2.52,2.52,0,0,0-.17,1.21,55.18,55.18,0,0,0,.57,6.15,374.18,374.18,0,0,0,10.71,52c4,14.15,12,28.65,22.61,40.81Z"/><path class="cls-17" d="M252,268.36l-.5-26.81c-.36-19.63-.74-39.92-2.31-59.82l1.32-.1c1.57,19.94,1.95,40.25,2.32,59.89l.5,26.81Z"/><path class="cls-17" d="M229,226.09l-1.32-.12c2.47-25.73,1.47-49.36-3-70.25a6.66,6.66,0,0,0-1.51-3.56,4.86,4.86,0,0,0-3.26-1l-.78,0-5.77-.5.11-1.32,5.77.5.75,0a6,6,0,0,1,4.09,1.32,8,8,0,0,1,1.9,4.25C230.44,176.47,231.45,200.24,229,226.09Z"/><path class="cls-16" d="M342.49,153.56a.67.67,0,0,1-.4-.14.66.66,0,0,1-.12-.93,25.51,25.51,0,0,0,5.27-16.55c0-.31,0-.62-.05-.94a11.55,11.55,0,0,1,.4-4.88,8.61,8.61,0,0,1,1.61-2.55.66.66,0,1,1,1,.86,7.41,7.41,0,0,0-1.37,2.16,10.48,10.48,0,0,0-.32,4.33c0,.32,0,.65.05,1A26.87,26.87,0,0,1,343,153.3.65.65,0,0,1,342.49,153.56Z"/><path class="cls-17" d="M284.07,240.57l-1.1-.73,0-.06q3-4.46,5.93-8.91l1.1.73-5.92,8.91Z"/><path class="cls-17" d="M279.54,262h-1.33a67.5,67.5,0,0,1,2.72-18.57l1.27.38A65.88,65.88,0,0,0,279.54,262Z"/><rect class="cls-17" x="263.92" y="248.31" width="14.73" height="1.32" transform="translate(-96.11 273.52) rotate(-46.37)"/><path class="cls-17" d="M142.85,364.57a7.33,7.33,0,0,1-5.93-3.05c-1.6-2.24-1.75-5-1.77-8.08l-.22-27.39,37.67.07h.08a1.3,1.3,0,0,1,.93.24,1.24,1.24,0,0,1,.39,1.08v.06c0,.48,0,1,0,1.44l-.19,24.5c0,3.09-.18,5.84-1.77,8.08a7.35,7.35,0,0,1-6.65,3H143.56C143.33,364.56,143.09,364.57,142.85,364.57Zm-6.58-37.19.2,26.05c0,2.87.16,5.4,1.53,7.33a6.09,6.09,0,0,0,5.46,2.46h22a6.1,6.1,0,0,0,5.46-2.46c1.37-1.93,1.5-4.46,1.52-7.33l.19-24.5c0-.48,0-1,0-1.44v-.05h-.09Z"/><path class="cls-17" d="M237.47,364.57a7.37,7.37,0,0,1-5.94-3.05c-1.59-2.24-1.74-5-1.76-8.08l-.21-26.72h1.32l.21,26.72c0,2.87.16,5.4,1.52,7.33a6.12,6.12,0,0,0,5.47,2.46H252.6v1.33H238.18C238,364.56,237.71,364.57,237.47,364.57Z"/><rect class="cls-17" x="241.09" y="315.2" width="1.32" height="23.07" transform="translate(-85.4 567.92) rotate(-89.9)"/><path class="cls-3" d="M210.37,151.81l-.56-1.2a7.85,7.85,0,0,1,.81-.33c3.36-1.14,6.7-2.44,9.93-3.88,2.06-.91,2.09-1.72,1.93-2.24a21.26,21.26,0,0,0-2.29-4.77c-.75-1.22-1.43-2.47-2.09-3.69l-.38-.69,1.16-.63.38.69c.68,1.26,1.33,2.44,2.05,3.63a22.48,22.48,0,0,1,2.44,5.07c.47,1.56-.42,2.85-2.67,3.84-3.26,1.46-6.64,2.77-10,3.92A6.74,6.74,0,0,0,210.37,151.81Z"/><path class="cls-16" d="M387.13,125.71a.68.68,0,0,1-.51-.23.67.67,0,0,1,.08-.94l.69-.56c.44-.35.88-.71,1.3-1.08.25-.23.47-.45.67-.66a.66.66,0,1,1,1,.89,8.84,8.84,0,0,1-.75.75c-.45.4-.91.77-1.36,1.13l-.67.55A.66.66,0,0,1,387.13,125.71Z"/><path class="cls-17" d="M248,207l-.67,0c-3.7-.16-6.32-.2-8.85-.24s-5.16-.09-8.88-.25l.05-1.33c3.71.16,6.32.21,8.85.25s4.85.08,8.22.22l.08-2c-3.38-.14-5.94-.21-8.41-.28-2.64-.08-5.37-.16-9.08-.32l0-1.32c3.71.16,6.43.24,9.07.31s5.36.16,9.08.32l.66,0Z"/><path class="cls-16" d="M227.28,84.35A.66.66,0,0,1,227,83.1a4.53,4.53,0,0,0,2.21-2.7,4.48,4.48,0,0,0-.26-3.48,9.9,9.9,0,0,0-1.58-2,14.62,14.62,0,0,1-1.26-1.43,8.47,8.47,0,0,1-1.52-6.59.68.68,0,0,1,.78-.53.66.66,0,0,1,.52.78,7.13,7.13,0,0,0,1.28,5.55A15.35,15.35,0,0,0,228.32,74a10.9,10.9,0,0,1,1.78,2.24,6,6,0,0,1-2.53,8A.59.59,0,0,1,227.28,84.35Z"/><path class="cls-18" d="M300.81,133.73a1.49,1.49,0,1,0-.2-2.1h0a1.45,1.45,0,0,0,.2,2.06v0Z"/><path class="cls-18" d="M301.23,131.18a3,3,0,0,0,.9-.62,3,3,0,0,0,.46-.56c.2.19.4.38.61.55a7.15,7.15,0,0,0,.85.59,3.41,3.41,0,0,0-.46.6,3.29,3.29,0,0,0-.35.76,1.49,1.49,0,0,0-1.56-1.42h0A1.12,1.12,0,0,0,301.23,131.18Z"/><path class="cls-19" d="M295.8,126.94a1.71,1.71,0,1,0,1.56-1.86h0a1.68,1.68,0,0,0-1.54,1.82Z"/><path class="cls-19" d="M298.21,125.21a4.09,4.09,0,0,0,2.08.16v.93a8.12,8.12,0,0,0,.21,1.18,3.23,3.23,0,0,0-.87.1,3.75,3.75,0,0,0-.9.33,1.72,1.72,0,0,0-.13-2.42h0a1.26,1.26,0,0,0-.42-.27Z"/><path class="cls-19" d="M315.34,132a1.49,1.49,0,0,0-2.31-1.87,1.49,1.49,0,0,0,2.17,2Z"/><path class="cls-19" d="M312.79,131.6a3.24,3.24,0,0,0-.62-.89,2.26,2.26,0,0,0-.56-.46c.2-.2.38-.4.56-.6a7.85,7.85,0,0,0,.58-.84,5.3,5.3,0,0,0,.6.46,4,4,0,0,0,.76.35,1.49,1.49,0,0,0-1.4,1.57,1.31,1.31,0,0,0,.08.43Z"/><path class="cls-18" d="M306,115.48a1.51,1.51,0,0,0,.31,3,1.52,1.52,0,0,0,1.36-1.65,1.5,1.5,0,0,0-1.65-1.35h0Z"/><path class="cls-18" d="M307.55,117.59a3.43,3.43,0,0,0-.14,1.8,5.75,5.75,0,0,0-.83,0,5.67,5.67,0,0,0-1,.18,3.28,3.28,0,0,0-.38-1.54,1.51,1.51,0,0,0,2.11-.09A3.64,3.64,0,0,0,307.55,117.59Z"/><path class="cls-19" d="M314.11,116.94a1.49,1.49,0,1,0,.22,2.09h0a1.49,1.49,0,0,0-.21-2.09Z"/><path class="cls-19" d="M313.7,119.48a3.38,3.38,0,0,0-1.39,1.18,6.42,6.42,0,0,0-.61-.56,6.62,6.62,0,0,0-.84-.58,3.36,3.36,0,0,0,.47-.6,4.26,4.26,0,0,0,.35-.75,1.51,1.51,0,0,0,1.56,1.4,1.57,1.57,0,0,0,.43-.09Z"/><path class="cls-18" d="M298.56,118.73a1.49,1.49,0,1,0,2.11-.22,1.48,1.48,0,0,0-2.09.21h0Z"/><path class="cls-18" d="M301.11,119.15a3.76,3.76,0,0,0,.63.92,4.15,4.15,0,0,0,.56.46,6.7,6.7,0,0,0-1.19,1.41,2.4,2.4,0,0,0-.6-.46,3,3,0,0,0-.75-.36,1.5,1.5,0,0,0,1.41-1.56A1.4,1.4,0,0,0,301.11,119.15Z"/><path class="cls-19" d="M308.52,136.61a1.48,1.48,0,1,0-1.63-1.32,1.48,1.48,0,0,0,1.63,1.32Z"/><path class="cls-19" d="M307,134.5a3.07,3.07,0,0,0,.2-1.07,4.4,4.4,0,0,0-.06-.73c.27,0,.55,0,.82,0a8.37,8.37,0,0,0,1-.18,3.27,3.27,0,0,0,.08.76,4.3,4.3,0,0,0,.29.78,1.49,1.49,0,0,0-2.1.11,1.13,1.13,0,0,0-.24.36Z"/><path class="cls-18" d="M318.24,124.33a1.48,1.48,0,0,0-2.95.27,1.5,1.5,0,0,0,1.62,1.34h0a1.48,1.48,0,0,0,1.32-1.63h0Z"/><path class="cls-18" d="M316.11,125.84a2.79,2.79,0,0,0-1.07-.2,3,3,0,0,0-.74.06,5.61,5.61,0,0,0,0-.82,8,8,0,0,0-.18-1,3.22,3.22,0,0,0,.76-.09,4.26,4.26,0,0,0,.78-.28,1.48,1.48,0,0,0,.12,2.1A1.5,1.5,0,0,0,316.11,125.84Z"/><path class="cls-19" d="M311.72,120.1a7.09,7.09,0,1,0,1,10A7.07,7.07,0,0,0,311.72,120.1Z"/><path class="cls-18" d="M310.11,123.94a2.41,2.41,0,1,0,.35,3.4h0a2.42,2.42,0,0,0-.34-3.4Z"/><path class="cls-18" d="M309.92,120.45a1,1,0,1,0,.44,1.34.59.59,0,0,0,0-.08h0A1,1,0,0,0,309.92,120.45Z"/><path class="cls-18" d="M303.93,120.8a1.26,1.26,0,1,0,1.77.28h0A1.27,1.27,0,0,0,303.93,120.8Z"/><path class="cls-18" d="M301,126.73a1.06,1.06,0,1,0,.94-1.17h0a1.06,1.06,0,0,0-.94,1.16Z"/><path class="cls-18" d="M312.55,124.61a.62.62,0,0,1,.86.22l0,0a.63.63,0,0,1-.23.87h0a.67.67,0,0,1-.89-.25h0A.65.65,0,0,1,312.55,124.61Z"/><path class="cls-18" d="M310.23,130.74a.84.84,0,1,0-1.18-.19A.86.86,0,0,0,310.23,130.74Z"/><path class="cls-18" d="M305,130.88a1.52,1.52,0,1,0-.77-2h0A1.52,1.52,0,0,0,305,130.88Z"/><path class="cls-18" d="M272.93,127.78a.83.83,0,0,0,1.17-.12.83.83,0,1,0-1.29-1h0a.82.82,0,0,0,.11,1.16h0Z"/><path class="cls-18" d="M273.16,126.35a1.75,1.75,0,0,0,.51-.34,2.42,2.42,0,0,0,.25-.31l.34.3a2.56,2.56,0,0,0,.48.33,2.78,2.78,0,0,0-.26.34,1.59,1.59,0,0,0-.19.42.84.84,0,0,0-.88-.79h0Z"/><path class="cls-19" d="M270.13,124a1,1,0,0,0,1,.87A1,1,0,0,0,271,123h0a1,1,0,0,0-.86,1Z"/><path class="cls-19" d="M271.48,123a2.28,2.28,0,0,0,1.16.09v.52a3.82,3.82,0,0,0,.12.66,2.63,2.63,0,0,0-.49,0,3,3,0,0,0-.5.19,1,1,0,0,0-.08-1.35h0a.75.75,0,0,0-.24-.15Z"/><path class="cls-19" d="M281,126.83a.82.82,0,1,0-.07.09Z"/><path class="cls-19" d="M279.62,126.59a2.15,2.15,0,0,0-.35-.5,1.48,1.48,0,0,0-.31-.25c.11-.11.21-.22.31-.34a5,5,0,0,0,.33-.47,2.1,2.1,0,0,0,.33.26,1.66,1.66,0,0,0,.43.19.84.84,0,0,0-.79.88.69.69,0,0,0,.05.24Z"/><path class="cls-18" d="M275.85,117.59a.84.84,0,1,0,.93.75.84.84,0,0,0-.93-.75h0Z"/><path class="cls-18" d="M276.69,118.77a2,2,0,0,0-.08,1h-.46a3.66,3.66,0,0,0-.56.1,1.85,1.85,0,0,0-.21-.86.84.84,0,0,0,1.18-.05A2.14,2.14,0,0,0,276.69,118.77Z"/><path class="cls-19" d="M280.36,118.4a.85.85,0,0,0-1.18.12.84.84,0,0,0,1.3,1h0a.83.83,0,0,0-.12-1.16Z"/><path class="cls-19" d="M280.13,119.82a2,2,0,0,0-.78.66l-.34-.31a5,5,0,0,0-.47-.33,1.64,1.64,0,0,0,.26-.33,2,2,0,0,0,.2-.42.83.83,0,0,0,.87.78.69.69,0,0,0,.24-.05Z"/><path class="cls-18" d="M271.67,119.4a.84.84,0,1,0,1.18-.12.83.83,0,0,0-1.17.12h0Z"/><path class="cls-18" d="M273.1,119.64a1.6,1.6,0,0,0,.35.51,1.94,1.94,0,0,0,.31.26,3.79,3.79,0,0,0-.66.78,1.66,1.66,0,0,0-.34-.25,1.62,1.62,0,0,0-.42-.2.84.84,0,0,0,.79-.87A.85.85,0,0,0,273.1,119.64Z"/><path class="cls-19" d="M277.23,129.39a.83.83,0,1,0-.91-.74.84.84,0,0,0,.91.74Z"/><path class="cls-19" d="M276.4,128.21a2.05,2.05,0,0,0,.11-.6,1.9,1.9,0,0,0,0-.41h.46a2.63,2.63,0,0,0,.56-.1,1.54,1.54,0,0,0,.05.43,1.72,1.72,0,0,0,.16.43.85.85,0,0,0-1.18.06.74.74,0,0,0-.13.21Z"/><path class="cls-18" d="M282.66,122.53a.82.82,0,1,0-.74.9h0a.82.82,0,0,0,.74-.91h0Z"/><path class="cls-18" d="M281.47,123.37a1.73,1.73,0,0,0-.6-.11l-.41,0a3.38,3.38,0,0,0,0-.45,3.45,3.45,0,0,0-.1-.56,2.1,2.1,0,0,0,.43,0,2.23,2.23,0,0,0,.43-.16.83.83,0,0,0,.07,1.18A.57.57,0,0,0,281.47,123.37Z"/><path class="cls-19" d="M279,120.17a4,4,0,1,0,.56,5.58A4,4,0,0,0,279,120.17Z"/><path class="cls-18" d="M278.12,122.31a1.34,1.34,0,1,0,.2,1.9h0a1.35,1.35,0,0,0-.19-1.89Z"/><path class="cls-18" d="M278,120.36a.55.55,0,0,0-.75.25.55.55,0,1,0,1,.5.08.08,0,0,0,0,0h0A.57.57,0,0,0,278,120.36Z"/><path class="cls-18" d="M274.67,120.56a.7.7,0,0,0,.83,1.13.71.71,0,0,0,.16-1h0A.71.71,0,0,0,274.67,120.56Z"/><path class="cls-18" d="M273,123.87a.59.59,0,1,0,.52-.65h0a.58.58,0,0,0-.52.65Z"/><path class="cls-18" d="M279.48,122.69a.36.36,0,0,1,.49.12v0a.36.36,0,0,1-.13.48h0a.38.38,0,0,1-.5-.14h0A.37.37,0,0,1,279.48,122.69Z"/><path class="cls-18" d="M278.19,126.11a.47.47,0,1,0-.66-.11A.48.48,0,0,0,278.19,126.11Z"/><path class="cls-18" d="M275.26,126.19a.85.85,0,1,0-.43-1.12h0A.85.85,0,0,0,275.26,126.19Z"/><path class="cls-18" d="M321.07,106.67a1.58,1.58,0,1,0-.21-2.23h0a1.56,1.56,0,0,0,.21,2.2h0Z"/><path class="cls-18" d="M321.52,104a3.09,3.09,0,0,0,1-.65,3.14,3.14,0,0,0,.49-.6c.21.21.42.41.64.59a7,7,0,0,0,.91.62,3.75,3.75,0,0,0-.49.64,3.42,3.42,0,0,0-.37.8,1.58,1.58,0,0,0-1.66-1.49h0A1.79,1.79,0,0,0,321.52,104Z"/><path class="cls-19" d="M315.76,99.47a1.81,1.81,0,1,0,1.65-2h0a1.79,1.79,0,0,0-1.63,1.94Z"/><path class="cls-19" d="M318.32,97.64a4.21,4.21,0,0,0,2.2.17v1a8.84,8.84,0,0,0,.22,1.25,4.06,4.06,0,0,0-.92.11,4.51,4.51,0,0,0-.95.35,1.83,1.83,0,0,0-.14-2.56h0a1.71,1.71,0,0,0-.45-.28Z"/><path class="cls-19" d="M336.47,104.87a1.58,1.58,0,0,0-2.45-2,1.58,1.58,0,1,0,2.31,2.16A1.15,1.15,0,0,0,336.47,104.87Z"/><path class="cls-19" d="M333.77,104.41a3.46,3.46,0,0,0-.66-.94,2.8,2.8,0,0,0-.59-.49,6,6,0,0,0,.59-.64,7.86,7.86,0,0,0,.62-.89,3.33,3.33,0,0,0,.63.49,3.69,3.69,0,0,0,.81.37,1.59,1.59,0,0,0-1.49,1.67,1.8,1.8,0,0,0,.09.45Z"/><path class="cls-18" d="M326.61,87.32a1.61,1.61,0,0,0-1.42,1.76,1.6,1.6,0,0,0,3.19-.32,1.61,1.61,0,0,0-1.74-1.44h0Z"/><path class="cls-18" d="M328.22,89.56a3.55,3.55,0,0,0-.15,1.91,6.46,6.46,0,0,0-.88,0,7.59,7.59,0,0,0-1.06.19,3.43,3.43,0,0,0-.41-1.63,1.6,1.6,0,0,0,2.24-.1A2.45,2.45,0,0,0,328.22,89.56Z"/><path class="cls-19" d="M335.17,88.87a1.58,1.58,0,1,0,.23,2.22h0a1.57,1.57,0,0,0-.22-2.21Z"/><path class="cls-19" d="M334.73,91.56a3.71,3.71,0,0,0-1.47,1.25c-.2-.2-.42-.4-.65-.59a7.78,7.78,0,0,0-.89-.61,3.07,3.07,0,0,0,.5-.64,4.73,4.73,0,0,0,.37-.79,1.58,1.58,0,0,0,1.66,1.48,1.4,1.4,0,0,0,.45-.1Z"/><path class="cls-18" d="M318.69,90.77a1.58,1.58,0,1,0,2.24-.22,1.58,1.58,0,0,0-2.24.22h0Z"/><path class="cls-18" d="M321.39,91.21a3.63,3.63,0,0,0,.67,1,3.94,3.94,0,0,0,.59.49,7.49,7.49,0,0,0-1.26,1.49,3.1,3.1,0,0,0-.64-.49,4.12,4.12,0,0,0-.79-.38,1.56,1.56,0,0,0,1.49-1.65A1.67,1.67,0,0,0,321.39,91.21Z"/><path class="cls-19" d="M329.24,109.72a1.57,1.57,0,1,0-.33-3.12,1.57,1.57,0,0,0,.33,3.12Z"/><path class="cls-19" d="M327.65,107.48a3.34,3.34,0,0,0,.22-1.13,4.9,4.9,0,0,0-.07-.77q.43,0,.87,0a6.39,6.39,0,0,0,1.06-.2,3.59,3.59,0,0,0,.09.81,4.12,4.12,0,0,0,.3.83,1.58,1.58,0,0,0-2.22.11,1.66,1.66,0,0,0-.26.39Z"/><path class="cls-18" d="M339.55,96.7a1.57,1.57,0,1,0-1.42,1.71h0a1.57,1.57,0,0,0,1.4-1.72v0Z"/><path class="cls-18" d="M337.29,98.3a3.39,3.39,0,0,0-1.14-.21,3,3,0,0,0-.78.07,6.31,6.31,0,0,0,0-.87,9.4,9.4,0,0,0-.19-1.06,3.08,3.08,0,0,0,.8-.1,3.41,3.41,0,0,0,.83-.29,1.58,1.58,0,0,0,.12,2.23A1.69,1.69,0,0,0,337.29,98.3Z"/><path class="cls-19" d="M332.63,92.22a7.52,7.52,0,1,0,1.06,10.6A7.52,7.52,0,0,0,332.63,92.22Z"/><path class="cls-18" d="M330.93,96.29a2.55,2.55,0,1,0,.37,3.6h0a2.55,2.55,0,0,0-.36-3.59Z"/><path class="cls-18" d="M330.73,92.59A1.06,1.06,0,1,0,331.2,94a.36.36,0,0,1,0-.09h0A1.07,1.07,0,0,0,330.73,92.59Z"/><path class="cls-18" d="M324.38,93A1.33,1.33,0,1,0,326,95.11a1.33,1.33,0,0,0,.29-1.85h0A1.35,1.35,0,0,0,324.38,93Z"/><path class="cls-18" d="M321.28,99.25a1.13,1.13,0,1,0,1-1.24h0a1.13,1.13,0,0,0-1,1.24Z"/><path class="cls-18" d="M333.51,97a.68.68,0,0,1,.92.23l0,0a.66.66,0,0,1-.25.92h0a.7.7,0,0,1-.94-.27h0A.7.7,0,0,1,333.51,97Z"/><path class="cls-18" d="M331.06,103.5a.89.89,0,0,0-1.06-1.44.89.89,0,0,0,1.06,1.44Z"/><path class="cls-18" d="M325.49,103.65a1.61,1.61,0,1,0-.81-2.13h0A1.61,1.61,0,0,0,325.49,103.65Z"/><path class="cls-18" d="M360.18,143.22A1.58,1.58,0,1,0,360,141h0a1.56,1.56,0,0,0,.21,2.19h0Z"/><path class="cls-18" d="M360.63,140.52a3.12,3.12,0,0,0,.95-.66,2.8,2.8,0,0,0,.49-.59c.21.2.42.4.65.58a5.59,5.59,0,0,0,.9.63,3.64,3.64,0,0,0-.86,1.44,1.59,1.59,0,0,0-1.66-1.5h0A2.52,2.52,0,0,0,360.63,140.52Z"/><path class="cls-19" d="M354.87,136a1.81,1.81,0,1,0,1.65-2h0a1.79,1.79,0,0,0-1.64,1.93Z"/><path class="cls-19" d="M357.43,134.19a4.21,4.21,0,0,0,2.2.17v1a8.84,8.84,0,0,0,.22,1.25,4.05,4.05,0,0,0-.92.1,5.14,5.14,0,0,0-.95.35,1.8,1.8,0,0,0-.14-2.55h0a1.74,1.74,0,0,0-.45-.29Z"/><path class="cls-19" d="M375.58,141.42a1.55,1.55,0,1,0-.14.18Z"/><path class="cls-19" d="M372.88,141a3.68,3.68,0,0,0-.66-.95,2.8,2.8,0,0,0-.59-.49,7,7,0,0,0,.59-.63,7.86,7.86,0,0,0,.62-.89,5.05,5.05,0,0,0,.63.49,4.22,4.22,0,0,0,.81.37,1.57,1.57,0,0,0-1.48,1.66,1.44,1.44,0,0,0,.08.46Z"/><path class="cls-18" d="M365.73,123.88a1.6,1.6,0,1,0,1.76,1.44,1.6,1.6,0,0,0-1.76-1.44h0Z"/><path class="cls-18" d="M367.33,126.12a3.62,3.62,0,0,0-.15,1.9,6.46,6.46,0,0,0-.88,0,7.62,7.62,0,0,0-1.06.2,3.61,3.61,0,0,0-.4-1.64,1.58,1.58,0,0,0,2.23-.09A3.09,3.09,0,0,0,367.33,126.12Z"/><path class="cls-19" d="M374.28,125.43a1.58,1.58,0,1,0,.23,2.22h0a1.56,1.56,0,0,0-.22-2.2Z"/><path class="cls-19" d="M373.84,128.12a3.71,3.71,0,0,0-1.47,1.25,6.07,6.07,0,0,0-.65-.59,7.05,7.05,0,0,0-.89-.62,3,3,0,0,0,.5-.63,4.13,4.13,0,0,0,.37-.8,1.58,1.58,0,0,0,1.66,1.49,2.26,2.26,0,0,0,.45-.1Z"/><path class="cls-18" d="M357.8,127.32a1.59,1.59,0,0,0,.23,2.22,1.58,1.58,0,1,0-.22-2.22h0Z"/><path class="cls-18" d="M360.5,127.77a3.63,3.63,0,0,0,.67,1,3.87,3.87,0,0,0,.59.48,7.54,7.54,0,0,0-1.26,1.5,2.79,2.79,0,0,0-.64-.49,3.2,3.2,0,0,0-.79-.38,1.58,1.58,0,0,0,1.49-1.66A1.59,1.59,0,0,0,360.5,127.77Z"/><path class="cls-19" d="M368.35,146.28a1.57,1.57,0,1,0-1.72-1.4,1.58,1.58,0,0,0,1.72,1.4Z"/><path class="cls-19" d="M366.76,144a3.4,3.4,0,0,0,.22-1.14,4.08,4.08,0,0,0-.07-.77,6.31,6.31,0,0,0,.87,0,5.48,5.48,0,0,0,1.06-.19,3.72,3.72,0,0,0,.09.81,4,4,0,0,0,.3.82,1.57,1.57,0,0,0-2.22.12,1.42,1.42,0,0,0-.26.38Z"/><path class="cls-18" d="M378.66,133.26a1.57,1.57,0,1,0-1.42,1.71h0a1.57,1.57,0,0,0,1.4-1.72v0Z"/><path class="cls-18" d="M376.4,134.86a3.16,3.16,0,0,0-1.14-.21,3.42,3.42,0,0,0-.78.06,6.32,6.32,0,0,0,0-.87,9.83,9.83,0,0,0-.19-1.06,3.72,3.72,0,0,0,.81-.09,4,4,0,0,0,.82-.3,1.59,1.59,0,0,0,.12,2.23A1.41,1.41,0,0,0,376.4,134.86Z"/><path class="cls-19" d="M371.75,128.78a7.51,7.51,0,1,0,1.06,10.6A7.52,7.52,0,0,0,371.75,128.78Z"/><path class="cls-18" d="M370,132.85a2.55,2.55,0,1,0,.37,3.6h0a2.55,2.55,0,0,0-.36-3.59Z"/><path class="cls-18" d="M369.84,129.15a1.06,1.06,0,1,0-1,1.89,1.07,1.07,0,0,0,1.43-.47l0-.09h0A1.05,1.05,0,0,0,369.84,129.15Z"/><path class="cls-18" d="M363.49,129.52a1.33,1.33,0,1,0,1.88.3h0A1.35,1.35,0,0,0,363.49,129.52Z"/><path class="cls-18" d="M360.39,135.8a1.13,1.13,0,1,0,1-1.24h0a1.13,1.13,0,0,0-1,1.24Z"/><path class="cls-18" d="M372.63,133.56a.66.66,0,0,1,.91.23l0,0a.68.68,0,0,1-.25.93h0a.69.69,0,0,1-.94-.26h0A.69.69,0,0,1,372.63,133.56Z"/><path class="cls-18" d="M370.17,140.05a.89.89,0,1,0-1.05-1.43.87.87,0,0,0-.2,1.23A.9.9,0,0,0,370.17,140.05Z"/><path class="cls-18" d="M364.6,140.2a1.61,1.61,0,1,0-.81-2.13h0A1.6,1.6,0,0,0,364.6,140.2Z"/><path class="cls-18" d="M284.68,158.39a1,1,0,0,0,1.43-.14,1,1,0,0,0-1.57-1.29h0a1,1,0,0,0,.14,1.41Z"/><path class="cls-18" d="M285,156.65a2,2,0,0,0,.62-.42,1.91,1.91,0,0,0,.31-.38c.14.13.27.26.42.38a4.49,4.49,0,0,0,.57.4,2.59,2.59,0,0,0-.31.41,2.38,2.38,0,0,0-.24.51,1,1,0,0,0-1.06-1h0Z"/><path class="cls-19" d="M281.26,153.77a1.16,1.16,0,1,0,1.06-1.27h0a1.17,1.17,0,0,0-1.05,1.25Z"/><path class="cls-19" d="M282.91,152.59a2.71,2.71,0,0,0,1.41.11v.63a5.37,5.37,0,0,0,.15.8,2.46,2.46,0,0,0-.6.07,2.82,2.82,0,0,0-.61.23,1.17,1.17,0,0,0-.09-1.65h0a1.07,1.07,0,0,0-.28-.19Z"/><path class="cls-19" d="M294.58,157.23a1,1,0,1,0-1.53.16,1,1,0,0,0,1.43,0Z"/><path class="cls-19" d="M292.84,156.94a2.55,2.55,0,0,0-.42-.61A2.24,2.24,0,0,0,292,156c.13-.13.26-.27.38-.41a5.72,5.72,0,0,0,.39-.57,2.94,2.94,0,0,0,.41.31,2.45,2.45,0,0,0,.52.24,1,1,0,0,0-.95,1.07.93.93,0,0,0,0,.29Z"/><path class="cls-18" d="M288.24,146a1,1,0,1,0,1.14.92,1,1,0,0,0-1.14-.92h0Z"/><path class="cls-18" d="M289.27,147.39a2.46,2.46,0,0,0-.1,1.23h-.56c-.23,0-.46.07-.68.12a2.3,2.3,0,0,0-.26-1.05,1,1,0,0,0,1.44-.06A1.43,1.43,0,0,0,289.27,147.39Z"/><path class="cls-19" d="M293.74,147a1,1,0,1,0,.15,1.43h0a1,1,0,0,0-.14-1.42Z"/><path class="cls-19" d="M293.46,148.68a2.4,2.4,0,0,0-.95.81,5,5,0,0,0-.41-.39c-.18-.14-.38-.27-.57-.39a2.15,2.15,0,0,0,.32-.41,2.94,2.94,0,0,0,.23-.51,1,1,0,0,0,1.07,1,.72.72,0,0,0,.29-.06Z"/><path class="cls-18" d="M283.14,148.17a1,1,0,0,0,.15,1.43,1,1,0,0,0,1.43-.14,1,1,0,1,0-1.57-1.29h0Z"/><path class="cls-18" d="M284.88,148.46a2.22,2.22,0,0,0,.43.62,2.3,2.3,0,0,0,.38.32,4.69,4.69,0,0,0-.81,1,2.15,2.15,0,0,0-.41-.32,2.38,2.38,0,0,0-.51-.24,1,1,0,0,0,1-1.06A.86.86,0,0,0,284.88,148.46Z"/><path class="cls-19" d="M289.93,160.35a1,1,0,1,0-1.11-.89,1,1,0,0,0,1.11.89Z"/><path class="cls-19" d="M288.91,158.92a2.29,2.29,0,0,0,.13-.73,2.74,2.74,0,0,0,0-.5h.56a3.87,3.87,0,0,0,.68-.12,2.31,2.31,0,0,0,.06.52,2.14,2.14,0,0,0,.2.53,1,1,0,0,0-1.43.07.85.85,0,0,0-.17.25Z"/><path class="cls-18" d="M296.55,152a1,1,0,1,0-2,.19,1,1,0,0,0,1.09.91h0a1,1,0,0,0,.91-1.1h0Z"/><path class="cls-18" d="M295.1,153a2,2,0,0,0-.73-.14,2.07,2.07,0,0,0-.5,0,5.23,5.23,0,0,0,0-.56c0-.23-.07-.46-.12-.68a2.22,2.22,0,0,0,.51-.06,2.47,2.47,0,0,0,.54-.19,1,1,0,0,0,.07,1.43A1.19,1.19,0,0,0,295.1,153Z"/><path class="cls-19" d="M292.11,149.1a4.83,4.83,0,1,0,.68,6.82A4.84,4.84,0,0,0,292.11,149.1Z"/><path class="cls-18" d="M291,151.72a1.64,1.64,0,1,0,.24,2.32h0a1.64,1.64,0,0,0-.23-2.31Z"/><path class="cls-18" d="M290.88,149.34a.68.68,0,0,0-.61,1.22.69.69,0,0,0,.92-.3s0,0,0-.06h0A.68.68,0,0,0,290.88,149.34Z"/><path class="cls-18" d="M286.8,149.58a.86.86,0,0,0-.18,1.2.86.86,0,0,0,1.39-1h0A.88.88,0,0,0,286.8,149.58Z"/><path class="cls-18" d="M284.81,153.62a.72.72,0,0,0,1.44-.16.71.71,0,0,0-.8-.63h0a.72.72,0,0,0-.64.79Z"/><path class="cls-18" d="M292.68,152.18a.42.42,0,0,1,.58.15l0,0a.43.43,0,0,1-.16.59h0a.44.44,0,0,1-.6-.17h0A.43.43,0,0,1,292.68,152.18Z"/><path class="cls-18" d="M291.1,156.35a.57.57,0,1,0-.68-.92.57.57,0,1,0,.68.92Z"/><path class="cls-18" d="M287.52,156.45a1,1,0,1,0,.84-1.89,1,1,0,0,0-1.36.52h0A1,1,0,0,0,287.52,156.45Z"/><path class="cls-18" d="M256.41,103.7a1,1,0,0,0,1.43-.14,1,1,0,0,0-1.57-1.29h0a1,1,0,0,0,.13,1.41h0Z"/><path class="cls-18" d="M256.7,102a2.14,2.14,0,0,0,.61-.42,2.37,2.37,0,0,0,.32-.39l.41.38a4.6,4.6,0,0,0,.58.4,2.53,2.53,0,0,0-.55.93,1,1,0,0,0-1.07-1h0A.77.77,0,0,0,256.7,102Z"/><path class="cls-19" d="M253,99.07a1.16,1.16,0,1,0,1.06-1.26h0A1.14,1.14,0,0,0,253,99.05Z"/><path class="cls-19" d="M254.64,97.89a2.73,2.73,0,0,0,1.42.11v.63a5.72,5.72,0,0,0,.14.81,2.32,2.32,0,0,0-.59.07,2.87,2.87,0,0,0-.62.22,1.17,1.17,0,0,0-.09-1.65h0a1.08,1.08,0,0,0-.29-.18Z"/><path class="cls-19" d="M266.31,102.54a1,1,0,1,0-.09.11Z"/><path class="cls-19" d="M264.58,102.24a2.28,2.28,0,0,0-.43-.6,2,2,0,0,0-.38-.32,4.75,4.75,0,0,0,.38-.4,5.45,5.45,0,0,0,.4-.58,2.15,2.15,0,0,0,.41.32,2.38,2.38,0,0,0,.51.24,1,1,0,0,0-1,1.06.8.8,0,0,0,.06.3Z"/><path class="cls-18" d="M260,91.26a1,1,0,1,0,1.13.92,1,1,0,0,0-1.13-.92h0Z"/><path class="cls-18" d="M261,92.7a2.3,2.3,0,0,0-.09,1.22,3.35,3.35,0,0,0-1.25.13,2.24,2.24,0,0,0-.26-1,1,1,0,0,0,1.44-.06A1.67,1.67,0,0,0,261,92.7Z"/><path class="cls-19" d="M265.47,92.25a1,1,0,1,0,.15,1.43h0a1,1,0,0,0-.14-1.42Z"/><path class="cls-19" d="M265.2,94a2.24,2.24,0,0,0-.95.8,5.14,5.14,0,0,0-.42-.38,4.49,4.49,0,0,0-.57-.4,2.15,2.15,0,0,0,.32-.41,2.38,2.38,0,0,0,.24-.51,1,1,0,0,0,1.06,1,1.36,1.36,0,0,0,.29-.06Z"/><path class="cls-18" d="M254.88,93.47a1,1,0,1,0,1.44-.14,1,1,0,0,0-1.44.14h0Z"/><path class="cls-18" d="M256.62,93.76a2.2,2.2,0,0,0,.43.63,1.91,1.91,0,0,0,.38.31,4.64,4.64,0,0,0-.81,1,1.77,1.77,0,0,0-.41-.31,2.41,2.41,0,0,0-.51-.25,1,1,0,0,0,1-1.06A1.35,1.35,0,0,0,256.62,93.76Z"/><path class="cls-19" d="M261.67,105.66a1,1,0,1,0-1.11-.9,1,1,0,0,0,1.11.9Z"/><path class="cls-19" d="M260.64,104.22a2,2,0,0,0,.14-.73,2.81,2.81,0,0,0,0-.5,5.23,5.23,0,0,0,.56,0,3.87,3.87,0,0,0,.68-.12,3,3,0,0,0,0,.52,3.39,3.39,0,0,0,.2.53,1,1,0,0,0-1.43.08.78.78,0,0,0-.16.24Z"/><path class="cls-18" d="M268.29,97.29a1,1,0,1,0-.91,1.1h0a1,1,0,0,0,.9-1.11h0Z"/><path class="cls-18" d="M266.84,98.32a2.06,2.06,0,0,0-.73-.14,2.92,2.92,0,0,0-.51,0,2.53,2.53,0,0,0,0-.55,4.16,4.16,0,0,0-.12-.69,2.24,2.24,0,0,0,.52-.06,2.1,2.1,0,0,0,.53-.19,1,1,0,0,0,.08,1.44A1.14,1.14,0,0,0,266.84,98.32Z"/><path class="cls-19" d="M263.85,94.41a4.83,4.83,0,1,0,.68,6.81A4.83,4.83,0,0,0,263.85,94.41Z"/><path class="cls-18" d="M262.75,97a1.65,1.65,0,1,0,.24,2.32h0a1.65,1.65,0,0,0-.23-2.31Z"/><path class="cls-18" d="M262.62,94.65a.68.68,0,1,0-.61,1.21.67.67,0,0,0,.91-.3l0,0h0A.69.69,0,0,0,262.62,94.65Z"/><path class="cls-18" d="M258.54,94.89a.85.85,0,0,0-.18,1.2.86.86,0,0,0,1.38-1h0A.85.85,0,0,0,258.54,94.89Z"/><path class="cls-18" d="M256.55,98.93a.72.72,0,1,0,.64-.8h0a.72.72,0,0,0-.64.79Z"/><path class="cls-18" d="M264.41,97.48a.43.43,0,0,1,.59.15v0a.44.44,0,0,1-.16.6h0a.45.45,0,0,1-.61-.17h0A.44.44,0,0,1,264.41,97.48Z"/><path class="cls-18" d="M262.83,101.66a.57.57,0,0,0,.12-.8.57.57,0,1,0-.92.67A.58.58,0,0,0,262.83,101.66Z"/><path class="cls-18" d="M259.25,101.75a1,1,0,1,0,.85-1.89,1,1,0,0,0-1.37.53h0A1,1,0,0,0,259.25,101.75Z"/><path class="cls-18" d="M284.15,196.87a1.75,1.75,0,1,0-.24-2.47h0a1.74,1.74,0,0,0,.23,2.44h0Z"/><path class="cls-18" d="M284.64,193.87a3.81,3.81,0,0,0,1.6-1.39c.24.22.47.45.72.65a6.84,6.84,0,0,0,1,.69,5.31,5.31,0,0,0-.54.71,4.22,4.22,0,0,0-.41.89,1.76,1.76,0,0,0-1.84-1.66h0A1.86,1.86,0,0,0,284.64,193.87Z"/><path class="cls-19" d="M278.25,188.88a2,2,0,1,0,1.83-2.18h0a2,2,0,0,0-1.82,2.15Z"/><path class="cls-19" d="M281.09,186.84a4.64,4.64,0,0,0,2.45.19v1.1a9.4,9.4,0,0,0,.24,1.39,3.89,3.89,0,0,0-1,.11,5,5,0,0,0-1.06.39,2,2,0,0,0-.16-2.84h0a2,2,0,0,0-.5-.31Z"/><path class="cls-19" d="M301.24,194.87a1.74,1.74,0,1,0-.16.2A1,1,0,0,0,301.24,194.87Z"/><path class="cls-19" d="M298.24,194.36a3.76,3.76,0,0,0-.73-1,3.44,3.44,0,0,0-.65-.55,7.18,7.18,0,0,0,.65-.7,11,11,0,0,0,.69-1,4.09,4.09,0,0,0,1.6.95,1.76,1.76,0,0,0-1.65,1.85,1.52,1.52,0,0,0,.09.51Z"/><path class="cls-18" d="M290.3,175.4a1.77,1.77,0,1,0,2,1.59,1.77,1.77,0,0,0-2-1.59h0Z"/><path class="cls-18" d="M292.08,177.88a4.13,4.13,0,0,0-.17,2.12,5.24,5.24,0,0,0-1,0,7.88,7.88,0,0,0-1.18.21,3.82,3.82,0,0,0-.45-1.81,1.78,1.78,0,0,0,2.49-.11A3.71,3.71,0,0,0,292.08,177.88Z"/><path class="cls-19" d="M299.8,177.11a1.76,1.76,0,1,0,.25,2.47h0a1.75,1.75,0,0,0-.25-2.45Z"/><path class="cls-19" d="M299.31,180.1a4.13,4.13,0,0,0-1.63,1.39q-.35-.35-.72-.66a7.54,7.54,0,0,0-1-.68,3.51,3.51,0,0,0,.56-.71,5.43,5.43,0,0,0,.41-.88,1.75,1.75,0,0,0,1.83,1.65,1.72,1.72,0,0,0,.51-.11Z"/><path class="cls-18" d="M281.5,179.22A1.76,1.76,0,1,0,284,179a1.77,1.77,0,0,0-2.49.25h0Z"/><path class="cls-18" d="M284.5,179.71a3.77,3.77,0,0,0,1.4,1.63,8.22,8.22,0,0,0-1.4,1.66,2.79,2.79,0,0,0-.7-.54,4.29,4.29,0,0,0-.89-.43,1.74,1.74,0,0,0,1.66-1.83A1.61,1.61,0,0,0,284.5,179.71Z"/><path class="cls-19" d="M293.22,200.26a1.74,1.74,0,1,0-1.92-1.55,1.74,1.74,0,0,0,1.92,1.55Z"/><path class="cls-19" d="M291.46,197.78a4.18,4.18,0,0,0,.23-1.26,4.91,4.91,0,0,0-.07-.86,6.14,6.14,0,0,0,2.14-.21,3.88,3.88,0,0,0,.44,1.81,1.78,1.78,0,0,0-2.76.55Z"/><path class="cls-18" d="M304.66,185.81a1.74,1.74,0,1,0-1.57,1.9h0a1.74,1.74,0,0,0,1.56-1.91v0Z"/><path class="cls-18" d="M302.15,187.59a3.4,3.4,0,0,0-1.26-.24,3.65,3.65,0,0,0-.87.07,7.69,7.69,0,0,0,0-1,11.65,11.65,0,0,0-.21-1.18,3.8,3.8,0,0,0,.89-.11,3.74,3.74,0,0,0,.92-.33,1.77,1.77,0,0,0,.14,2.48A1.7,1.7,0,0,0,302.15,187.59Z"/><path class="cls-19" d="M297,180.83a8.34,8.34,0,1,0,1.17,11.77A8.35,8.35,0,0,0,297,180.83Z"/><path class="cls-18" d="M295.09,185.35a2.84,2.84,0,1,0,.41,4h0a2.83,2.83,0,0,0-.4-4Z"/><path class="cls-18" d="M294.87,181.24a1.18,1.18,0,1,0,.52,1.58l0-.09h0A1.18,1.18,0,0,0,294.87,181.24Z"/><path class="cls-18" d="M287.82,181.66a1.48,1.48,0,1,0,2.08.33h0A1.5,1.5,0,0,0,287.82,181.66Z"/><path class="cls-18" d="M284.38,188.63a1.25,1.25,0,1,0,2.48-.27,1.24,1.24,0,0,0-1.37-1.1h0a1.25,1.25,0,0,0-1.11,1.37Z"/><path class="cls-18" d="M298,186.14a.75.75,0,0,1,1,.26l0,0a.76.76,0,0,1-.27,1h0a.77.77,0,0,1-1-.3h0A.76.76,0,0,1,298,186.14Z"/><path class="cls-18" d="M295.23,193.35a1,1,0,1,0-1.39-.22A1,1,0,0,0,295.23,193.35Z"/><path class="cls-18" d="M289.05,193.52a1.79,1.79,0,1,0-.9-2.37h0A1.8,1.8,0,0,0,289.05,193.52Z"/><path class="cls-18" d="M280.77,84.43a.88.88,0,1,0-.12-1.24h0a.87.87,0,0,0,.12,1.23Z"/><path class="cls-18" d="M281,82.92a1.79,1.79,0,0,0,.54-.37,2.16,2.16,0,0,0,.27-.33c.12.11.24.23.36.33a5.62,5.62,0,0,0,.5.35,3,3,0,0,0-.27.35,1.85,1.85,0,0,0-.21.45.87.87,0,0,0-.92-.83h0A.8.8,0,0,0,281,82.92Z"/><path class="cls-19" d="M277.8,80.41a1,1,0,0,0,2-.18,1,1,0,0,0-1.09-.92h0a1,1,0,0,0-.92,1.08Z"/><path class="cls-19" d="M279.23,79.38a2.49,2.49,0,0,0,1.24.1V80a4.27,4.27,0,0,0,.12.7,2.31,2.31,0,0,0-.52.06,2.58,2.58,0,0,0-.53.19,1,1,0,0,0-.08-1.43h0a1,1,0,0,0-.25-.16Z"/><path class="cls-19" d="M289.39,83.42a.88.88,0,0,0-1.37-1.1.86.86,0,0,0,0,1.24.88.88,0,0,0,1.25,0Z"/><path class="cls-19" d="M287.87,83.17a1.91,1.91,0,0,0-.36-.53,2.16,2.16,0,0,0-.33-.27q.17-.16.33-.36a4.26,4.26,0,0,0,.34-.49,2.42,2.42,0,0,0,.36.27,2.31,2.31,0,0,0,.45.21.87.87,0,0,0-.83.93.73.73,0,0,0,0,.25Z"/><path class="cls-18" d="M283.87,73.61a.9.9,0,0,0,.19,1.78.88.88,0,0,0,.8-1,.9.9,0,0,0-1-.81h0Z"/><path class="cls-18" d="M284.77,74.86a2.06,2.06,0,0,0-.08,1.07,4.17,4.17,0,0,0-.5,0,4.08,4.08,0,0,0-.59.11,2,2,0,0,0-.22-.91.89.89,0,0,0,1.25-.06A1.1,1.1,0,0,0,284.77,74.86Z"/><path class="cls-19" d="M288.66,74.48a.88.88,0,1,0-1.12,1.37.88.88,0,0,0,1.24-.13h0a.89.89,0,0,0-.13-1.24Z"/><path class="cls-19" d="M288.41,76a2,2,0,0,0-.82.69l-.36-.33a5.5,5.5,0,0,0-.5-.34,1.93,1.93,0,0,0,.28-.36,3.55,3.55,0,0,0,.21-.44.89.89,0,0,0,.92.83l.26-.05Z"/><path class="cls-18" d="M279.44,75.54a.9.9,0,0,0,.13,1.24.88.88,0,1,0-.12-1.24h0Z"/><path class="cls-18" d="M281,75.79a2.25,2.25,0,0,0,.37.54,2.2,2.2,0,0,0,.34.28,4.33,4.33,0,0,0-.71.83,1.56,1.56,0,0,0-.35-.27,1.85,1.85,0,0,0-.45-.21A.89.89,0,0,0,281,76,.67.67,0,0,0,281,75.79Z"/><path class="cls-19" d="M285.34,86.14a.88.88,0,0,0-.18-1.75.89.89,0,0,0-.78,1,.88.88,0,0,0,1,.78Z"/><path class="cls-19" d="M284.45,84.89a1.73,1.73,0,0,0,.12-.64,3.11,3.11,0,0,0,0-.43,3.84,3.84,0,0,0,.48,0,3.16,3.16,0,0,0,.6-.11,1.75,1.75,0,0,0,0,.46,2,2,0,0,0,.18.46.88.88,0,0,0-1.25.06.74.74,0,0,0-.14.22Z"/><path class="cls-18" d="M291.11,78.86a.88.88,0,0,0-1-.79.88.88,0,0,0,.16,1.75h0a.88.88,0,0,0,.79-1h0Z"/><path class="cls-18" d="M289.84,79.76a1.68,1.68,0,0,0-.63-.12,1.6,1.6,0,0,0-.44,0,3.84,3.84,0,0,0,0-.48,4.21,4.21,0,0,0-.11-.6,1.64,1.64,0,0,0,.45,0,2,2,0,0,0,.47-.17.88.88,0,0,0,.06,1.25Z"/><path class="cls-19" d="M287.24,76.35a4.2,4.2,0,1,0,.59,5.93A4.2,4.2,0,0,0,287.24,76.35Z"/><path class="cls-18" d="M286.29,78.63a1.43,1.43,0,1,0,.2,2h0a1.43,1.43,0,0,0-.2-2Z"/><path class="cls-18" d="M286.17,76.56a.58.58,0,0,0-.79.26.59.59,0,1,0,1.06.54.08.08,0,0,1,0,0h0A.59.59,0,0,0,286.17,76.56Z"/><path class="cls-18" d="M282.62,76.77a.75.75,0,1,0,1.05.16h0A.76.76,0,0,0,282.62,76.77Z"/><path class="cls-18" d="M280.89,80.28a.63.63,0,1,0,.56-.69h0a.63.63,0,0,0-.56.69Z"/><path class="cls-18" d="M287.73,79a.36.36,0,0,1,.51.13h0a.37.37,0,0,1-.13.52h0a.4.4,0,0,1-.53-.15h0A.39.39,0,0,1,287.73,79Z"/><path class="cls-18" d="M286.36,82.66a.51.51,0,0,0,.11-.7.5.5,0,0,0-.81.59A.51.51,0,0,0,286.36,82.66Z"/><path class="cls-18" d="M283.25,82.74a.9.9,0,1,0-.46-1.19h0A.89.89,0,0,0,283.25,82.74Z"/></g></g></svg>