<svg xmlns="http://www.w3.org/2000/svg" viewBox="0 0 406.56 411.49"><defs><style>.cls-1{fill:#60629a;}.cls-15,.cls-16,.cls-2{fill:none;}.cls-2{stroke:#fff;stroke-miterlimit:10;stroke-width:15.69px;}.cls-3{fill:#024898;}.cls-4{fill:#763f20;}.cls-5{fill:#f4a886;}.cls-6{fill:#e18a72;}.cls-7{fill:#694896;}.cls-8{fill:#e79677;}.cls-9{fill:#004a70;}.cls-10{fill:#622482;}.cls-11{fill:#006091;}.cls-12{fill:#f4a37f;}.cls-13{fill:#e98e72;}.cls-14{fill:#422918;}.cls-15{stroke:#e98e72;}.cls-15,.cls-16{stroke-linecap:round;stroke-linejoin:round;stroke-width:3.92px;}.cls-16{stroke:#763f20;}.cls-17{fill:#fff;}.cls-18{fill:#e64645;}.cls-19{fill:#ab3733;}.cls-20{fill:#b8c5ce;}.cls-21{fill:#ccdbe5;}.cls-22{fill:#0078b2;}.cls-23{fill:#52a7cb;}.cls-24{fill:#bccad3;}.cls-25{fill:#ca924e;}.cls-26{fill:#e79a7e;}.cls-27{fill:#ececec;}.cls-28{fill:#1c2c6f;}.cls-29{fill:#23398d;}.cls-30{fill:#efdfd5;}.cls-31{fill:#96c042;}.cls-31,.cls-32{fill-rule:evenodd;}.cls-32{fill:#bdd95b;}</style></defs><title>Asset 1</title><g id="Layer_2" data-name="Layer 2"><g id="Layer_1-2" data-name="Layer 1"><circle class="cls-1" cx="203.28" cy="203.28" r="203.28"/><path class="cls-2" d="M192.41,285.51c0,22.17,45.8,40.15,102.3,40.15S397,307.68,397,285.51s-45.8-40.14-102.29-40.14S192.41,263.34,192.41,285.51Z"/><path class="cls-3" d="M222,285.66c0,13.48,32.53,24.4,72.66,24.4s72.66-10.92,72.66-24.4-32.53-24.39-72.66-24.39S222,272.19,222,285.66Z"/><path class="cls-4" d="M270.81,14.48c-6.18,3.38-8.89,10.7-9,17.41A28,28,0,0,0,263,41.73c1.39,4.05,3.16,8.31,2.68,12.71-.78,7.29-6.23,12.29-2.62,19.55,2.66,5.32,11,9.79,16.56,7.43,12.5-5.25,16.4-21.67,15.91-33.79A51.59,51.59,0,0,0,294,36.86C292,29.38,288.8,22,283.14,16.57,280.37,13.92,274.39,12.52,270.81,14.48Z"/><path class="cls-5" d="M245.46,72.9s4.63,6.82,19,29.86c0,0,5.58-.22,3.3,15.77,0,0-3.95,3.59-3.62-4.85L262,105.94s-19.55-17.39-24.77-26.3C237.22,79.64,236.92,76.21,245.46,72.9Z"/><path class="cls-5" d="M289.08,54.5H273.82c.69-2.22,2.13-8-.09-11.89l15.42-10.12S286.4,49.48,289.08,54.5Z"/><path class="cls-6" d="M287.37,44.92a6.7,6.7,0,0,1-4.8,4.23,16,16,0,0,1-7.75.58,12.13,12.13,0,0,0-1.09-7.12l15.42-10.12s-.84,5.18-1.14,10.67C287.81,43.74,287.6,44.33,287.37,44.92Z"/><path class="cls-5" d="M270.79,46.51,270,44.22l-2-6.76a6.8,6.8,0,0,1,0-3.58,10.89,10.89,0,0,0,.31-5.61c-1.25-6.14,1.47-9.35,1.47-9.35,3.59-5.65,12.06-5.63,12.06-5.63C292.27,13.84,293.13,24,293.13,24c1.68,6.75-3.7,12.34-3.71,12.35-.68.71-.75,1.86-1.08,2.74a8.54,8.54,0,0,1-1.53,2.56,19,19,0,0,1-5.37,4.31,20.74,20.74,0,0,1-8.07,1.9C272.3,47.82,271.25,47.83,270.79,46.51Z"/><path class="cls-5" d="M302.65,204.76c7.73,14.29,7.51,21.44,8.88,32.31.81,6.32,1.26,31,2.09,34.95.35,1.64-5.07,1.79-5.07,1.79-1.15-2.79-19.33-64.38-19.33-64.38s-2-6.33-.35-7.43C297.37,196.46,299.27,198.53,302.65,204.76Z"/><path class="cls-7" d="M270.94,50.24s-7.79,15.05-11.27,23.31c1.46,9.68,6.72,24,8.83,27.06,4.63,6.64,25.81.72,25.81.72L300.41,81C282.6,74.55,292,55.78,292,55.78L289.18,54s-2.84,9.22-14.44,8.89c0,0-3.81-2.48-1-13A16.31,16.31,0,0,0,270.94,50.24Z"/><path class="cls-8" d="M290.31,136.1s-2,40.62-9.56,62.46c-1.12,3.26-14-1.07-14-1.07s-6.48-34.94-6.09-49.42c.22-8.19,3.15-25.83,3.15-25.83S287.93,119.09,290.31,136.1Z"/><path class="cls-8" d="M280.38,198.42l-13.59-.93s9.3,69.65,10.06,72.56c0,0,4.46,1.46,4.57-.22.29-4.32,2.93-33.85,3.08-40.22C284.74,219.38,286.2,211.94,280.38,198.42Z"/><path class="cls-9" d="M266.79,200.63c-6.05-30.36-6.1-47.9-6.09-52.56a132.39,132.39,0,0,1,3.15-25.83s24.08-3.15,26.46,13.86c0,0-.44,39.17-7.5,65.66C274.76,203.68,274.51,204,266.79,200.63Z"/><path class="cls-5" d="M274.43,62.92A9,9,0,0,1,262.85,68c-4.61-1.78-12.38-4.45-9.21-8.25,6.65-8,11.89-9.5,16.5-7.72S276.21,58.31,274.43,62.92Z"/><path class="cls-5" d="M267.19,66.84l.69-9L256.11,57s-11.62,12.87-16.93,17.3c-5.67,4.72,1,8.64,3.46,9.2C242.64,83.45,262.44,70.1,267.19,66.84Z"/><path class="cls-5" d="M306.93,139.5s-.15,40.63-5.51,63.1c-.8,3.35-13,2.32-13,2.32s-8-38.42-9-52.87c-.57-8.16-2.21-22.45-2.21-22.45S305.82,126.76,306.93,139.5Z"/><path class="cls-5" d="M301,60.66c6.24,4.57,3.05,11.44,3.05,11.44l-11.8,28.64s-19.13,6.51-23.76-.13c-2.11-3-4.07-11.06-6.64-22.64-1.74-7.87-1.86-21.62,2.57-25.69,2.56-2.35,10.83-2.3,10.89-2.58L288.72,54Z"/><path class="cls-5" d="M275.75,98.4c-1.13-.2-7.25,2.21-7.25,2.21s-4.4,18.78-4.65,21.63,19.38,17.63,41.31,9.22c0,0-11.08-26.12-12.7-31.58C290.61,93.61,275.75,98.4,275.75,98.4Z"/><path class="cls-10" d="M265.1,61.86s-6.47,7.62-7,13.28c-.31,3.15,3.68,8.43,5.67,10.38C265.17,86.89,273.53,67.12,265.1,61.86Z"/><path class="cls-11" d="M299.78,125.23s7.74,1.72,7,15.9c-.68,13.84-25.88,16.71-29.12,2.77C274.22,128.89,286,120.09,299.78,125.23Z"/><path class="cls-4" d="M285.39,35.18c-.28,1.8,2.68-1.19,2.8.2,0,0,.12-.29.06,4.49l-.17,4.23s8.81-6.61,9.32-17.79c0,0-.07-10.84-10-13.44,0,0-22.89-6.56-19.3,14,0,0-.16-5.61,4-6.36,0,0,3.74,5.39,12.43,9.19A9.08,9.08,0,0,1,285.39,35.18Z"/><path class="cls-12" d="M287.52,38.24a2.17,2.17,0,0,0,1.45.44,3.3,3.3,0,0,0,3-3.38,3,3,0,0,0-2.86-3.3,2.83,2.83,0,0,0-2,.92,4.08,4.08,0,0,0-.62,3.35A3.05,3.05,0,0,0,287.52,38.24Z"/><path class="cls-13" d="M288.46,33.72c.1-1,2.06,0,1.76.5a2.9,2.9,0,0,1-.79.77,1.4,1.4,0,0,0-.6,1.06c0,.05,0,.22,0,.26.25.17,1.09-.77,1.27-1a1.62,1.62,0,0,0,.23-1.55,1,1,0,0,0-1.07-.72c-.44,0-.89,0-.87.6,0,0,0,.1,0,0Z"/><path class="cls-13" d="M289.09,34.73c-.21-.21-.4,0-.61.11a.93.93,0,0,0-.35.57,2.33,2.33,0,0,0,.24,1.62,1.25,1.25,0,0,0,1.05.56c.6,0,.77-.54.79-1,0-.13,0-.45-.11-.53s-.24.13-.34.22a.76.76,0,0,1-.5.19,1.05,1.05,0,0,1-.87-.39.34.34,0,0,1-.09-.15c0,.32,0,.4.05.22a.61.61,0,0,1,.11-.23c.14-.23.37-.38.52-.6s.21-.45.11-.55Z"/><path class="cls-14" d="M278.23,31.11c-.05.58.22,1.08.61,1.12s.76-.4.82-1-.22-1.08-.61-1.12S278.29,30.53,278.23,31.11Z"/><path class="cls-14" d="M270.18,30c0,.58.28,1.06.68,1.08s.73-.45.75-1-.28-1.07-.67-1.08S270.2,29.45,270.18,30Z"/><path class="cls-13" d="M275.81,37.34a11.85,11.85,0,0,1-2.28.31c-.24,0,.37.13.06,0l-.33-.1c.22.06.36.18.08,0l-.3-.17c-2.15-1.33-4.12,2.06-2,3.39,1.83,1.13,3.79.79,5.79.34a2,2,0,0,0-1-3.78Z"/><path class="cls-15" d="M274.37,36.55a2.89,2.89,0,0,1-1.21-.2,6.8,6.8,0,0,1-1.23-1.87,5.33,5.33,0,0,0,2.15-2.21s1.67-2.38.07-4.27"/><path class="cls-16" d="M281.76,29.67a4.45,4.45,0,0,0-4-1.2"/><path class="cls-16" d="M272.92,27.35a2.89,2.89,0,0,0-3.44-.4"/><path class="cls-11" d="M286.39,203.46c-1.45-8.38-7.88-46.71-8.24-51.84-.57-8.16-1-22-1-22s28.66-2.84,29.77,9.9c0,0,4.6,23.68-1.54,62.26C298,203.41,293.61,205.66,286.39,203.46Z"/><path class="cls-11" d="M265.37,114.44c-1.29,6.27-2.35,13.56-2.62,14.89-3.59,17.66,30.31,37.65,43.1,2.82,0,0-3.46-11.46-8.33-19.07C297.52,113.08,284.08,120.35,265.37,114.44Z"/><path class="cls-17" d="M287.44,38.58a1,1,0,1,0,1-1A1,1,0,0,0,287.44,38.58Z"/><path class="cls-10" d="M259.67,74.14l.15,6.58.92,41.59c16.92,18,47.7,7,47.7,7L298.05,99.41a136.23,136.23,0,0,1,2-17.48c-16.67-8.21-8-26.15-8-26.15L289.18,54s-2.84,9.22-14.44,8.89c0,0-3.81-2.48-1-13a16.31,16.31,0,0,0-2.79.33s-7.79,15.05-11.27,23.31"/><path class="cls-18" d="M279.36,269.7a.85.85,0,0,0-.65-1.14l-2-.53s-.54-.1-.51.34l.12,1.33s-3.58,3.08-11.82,9.34a1.19,1.19,0,0,0-.19,1.82,6.37,6.37,0,0,0,6.21,1.61,21.69,21.69,0,0,0,7.45-4.35l.22-.48c.15-.06.44.17.59.14a6.53,6.53,0,0,0,4.15-2.51,48.35,48.35,0,0,0-1.23-5.57S280,270.51,279.36,269.7Z"/><path class="cls-19" d="M279.43,269.76c-.67,3-2.86,4.52-5.11,6.47-1.74,1.51-3.79,3.38-5.91,1.3-.28-.27-.54-.57-.79-.86,6-4.67,8.72-7,8.72-7l-.12-1.33c0-.44.51-.34.51-.34l2,.53a.85.85,0,0,1,.65,1.14S279.41,269.74,279.43,269.76Z"/><path class="cls-17" d="M264.52,279l.2-.15c1.47,2.23,4.83,2.4,7.4,1.33a18.77,18.77,0,0,0,5.65-3.71c.71-.67,2.23-.72,3.13-1.27a5.49,5.49,0,0,0,1.72-1.8c.23,1.11.33,1.83.33,1.83a6.53,6.53,0,0,1-4.15,2.51c-.15,0-.44-.2-.59-.14l-.22.48a15.34,15.34,0,0,1-7.45,4.34c-4.46,1-6.21-1.6-6.21-1.6A1.19,1.19,0,0,1,264.52,279Z"/><path class="cls-20" d="M271.33,278.09h0l-3.05-2.36a.2.2,0,0,1,0-.3.25.25,0,0,1,.32,0l3,2.36a.22.22,0,0,1,0,.31A.24.24,0,0,1,271.33,278.09Z"/><path class="cls-21" d="M271.28,273.76a39.65,39.65,0,0,0,3.77,1.53c.28.09.45-.31.17-.4a38.43,38.43,0,0,1-3.76-1.53.22.22,0,0,0-.18.4Z"/><path class="cls-21" d="M269.91,274.59c1.36.51,2.64,1.16,4,1.73a.22.22,0,1,0,.17-.4c-1.33-.57-2.61-1.23-4-1.73-.27-.1-.45.3-.17.4Z"/><path class="cls-21" d="M272.37,272.82c1.23.55,2.48,1.11,3.76,1.54.28.09.45-.32.17-.41a39.47,39.47,0,0,1-3.76-1.53.22.22,0,1,0-.17.4Z"/><path class="cls-17" d="M273.22,271.83c.49,1.14,1.14,2.19,1.6,3.34.11.27.53.1.42-.16-.47-1.15-1.11-2.21-1.6-3.34-.11-.26-.54-.1-.42.16Z"/><path class="cls-17" d="M271,273.58a17.91,17.91,0,0,1,1.54,3.51c.06.28.51.22.45-.06a18.62,18.62,0,0,0-1.57-3.62c-.12-.26-.54-.09-.42.17Z"/><path class="cls-17" d="M269.68,274.41a30.06,30.06,0,0,0,1.62,3.67c.14.25.56.08.42-.16a31.48,31.48,0,0,1-1.62-3.67c-.11-.26-.53-.1-.42.16Z"/><path class="cls-17" d="M275.26,272.56a10.92,10.92,0,0,1-.87-1.47A3.69,3.69,0,0,1,274,270c-.05-.3.35-1.24.77-.79.61.66.25,2.64,0,3.4a.29.29,0,0,0,.49.28,3.25,3.25,0,0,1,1.71-.84c.23-.07.35.05.35.38s-.71.37-1,.36a2.86,2.86,0,0,1-1.17-.33c-.32-.17-.53.35-.21.52a3.16,3.16,0,0,0,2.2.29,1.12,1.12,0,0,0,.79-1.32c-.42-1.2-2.61,0-3.11.6l.48.27c.35-.91.89-4-.58-4.25-.85-.14-1.27.83-1.23,1.5a6.34,6.34,0,0,0,1.33,2.82c.2.29.65,0,.45-.34Z"/><path class="cls-17" d="M272.13,272.77c.49,1.13,1.14,2.19,1.61,3.34.11.26.53.1.42-.16-.47-1.15-1.11-2.21-1.6-3.35-.12-.26-.54-.09-.43.17Z"/><path class="cls-18" d="M311.39,272.8a.85.85,0,0,0-1-.86l-2,.16s-.54.09-.36.49l.56,1.22s-2.36,4.09-8,12.74a1.19,1.19,0,0,0,.43,1.78,6.37,6.37,0,0,0,6.39-.56,21.65,21.65,0,0,0,5.58-6.57l0-.53c.12-.11.47,0,.61-.06a6.54,6.54,0,0,0,3.07-3.76,48.41,48.41,0,0,0-3-4.83S312.3,273.33,311.39,272.8Z"/><path class="cls-19" d="M311.48,272.83c.37,3.06-1.19,5.21-2.66,7.8-1.14,2-2.45,4.45-5.14,3.2a10.33,10.33,0,0,1-1-.55c4.14-6.41,5.91-9.47,5.91-9.47l-.56-1.22c-.18-.4.36-.49.36-.49l2-.16a.85.85,0,0,1,1,.86Z"/><path class="cls-17" d="M300.51,286.55l.14-.21c2.13,1.62,5.35.66,7.42-1.21a18.76,18.76,0,0,0,4.1-5.37c.44-.88,1.85-1.44,2.52-2.25a5.59,5.59,0,0,0,1-2.27c.57,1,.91,1.61.91,1.61a6.54,6.54,0,0,1-3.07,3.76c-.14.07-.49-.05-.61.06l0,.53a15.32,15.32,0,0,1-5.58,6.57c-3.87,2.44-6.39.56-6.39.56A1.19,1.19,0,0,1,300.51,286.55Z"/><path class="cls-20" d="M306.62,283.39h0L303,282.18a.22.22,0,0,1-.14-.28.27.27,0,0,1,.3-.14l3.65,1.21a.21.21,0,0,1,.13.28A.23.23,0,0,1,306.62,283.39Z"/><path class="cls-21" d="M305.13,279.32a39.27,39.27,0,0,0,4.06.19c.29,0,.32-.44,0-.44a39.27,39.27,0,0,1-4.06-.19.22.22,0,0,0,0,.44Z"/><path class="cls-21" d="M304.11,280.56c1.45,0,2.88.21,4.32.3a.22.22,0,1,0,0-.43c-1.44-.09-2.87-.28-4.32-.31-.29,0-.32.44,0,.44Z"/><path class="cls-21" d="M305.84,278.07a36.66,36.66,0,0,0,4.06.19c.29,0,.32-.44,0-.43a39.27,39.27,0,0,1-4.06-.19.22.22,0,1,0,0,.43Z"/><path class="cls-17" d="M306.31,276.86c.84.9,1.81,1.69,2.63,2.61.19.21.53-.08.34-.29-.83-.93-1.79-1.71-2.63-2.62-.19-.21-.53.09-.34.3Z"/><path class="cls-17" d="M304.84,279.23a17.76,17.76,0,0,1,2.62,2.8c.15.24.55,0,.41-.21a18.82,18.82,0,0,0-2.69-2.89c-.2-.2-.54.09-.34.3Z"/><path class="cls-17" d="M303.83,280.47a33.09,33.09,0,0,0,2.76,2.92c.21.18.55-.11.34-.3a30.52,30.52,0,0,1-2.76-2.92c-.18-.21-.52.09-.34.3Z"/><path class="cls-17" d="M308.47,276.86a11.37,11.37,0,0,1-1.3-1.09,3.87,3.87,0,0,1-.7-.91c-.14-.26-.07-1.28.47-1,.8.41,1.12,2.4,1.1,3.21a.28.28,0,0,0,.55.1,3.25,3.25,0,0,1,1.34-1.36c.19-.15.34-.07.46.24s-.55.59-.84.68a3,3,0,0,1-1.22.08c-.35-.06-.38.5,0,.55a3.13,3.13,0,0,0,2.17-.45,1.12,1.12,0,0,0,.31-1.51c-.8-1-2.45.9-2.74,1.6l.55.1c0-1-.5-4.08-2-3.82-.85.15-.93,1.21-.66,1.83a6.18,6.18,0,0,0,2.19,2.21c.29.21.6-.26.3-.47Z"/><path class="cls-17" d="M305.6,278.1c.84.91,1.81,1.69,2.63,2.62.19.21.53-.09.34-.3-.82-.93-1.79-1.71-2.63-2.61-.19-.21-.53.08-.34.29Z"/><path class="cls-11" d="M305.39,201.76s6.35,12.58,13.52,70.59c0,0-9.11,6.15-15.64,5l-16.88-73.88S286.38,187,305.39,201.76Z"/><path class="cls-9" d="M282.19,201.52s3.63,11.3,3.48,31.07l.43,37.8s-6.08,3-14.34-2.17l-5-67.59S266.53,185.5,282.19,201.52Z"/><path class="cls-5" d="M290.56,68.67c-.69,4.89,5,11.26,9.88,11.94s16.9-1.6,14.13-5.69c-5.45-8-9.67-13.1-14.67-14.73C295.2,58.66,291.24,63.77,290.56,68.67Z"/><path class="cls-5" d="M296.83,77.52l2-8.8,8.95-2.43s22.79,17.35,26.78,23c3.4,4.82-3,6.7-5.29,5.84C329.27,95.14,300.41,82,296.83,77.52Z"/><path class="cls-5" d="M334.48,94s-14,11.31-26.69,16.17c0,0-4-1.93-1.89-3.73,3.66-3.07,17.07-18.79,20.76-21.86C328.73,82.84,334.48,94,334.48,94Z"/><path class="cls-5" d="M300.54,105.9l5.3.37,1.89,3.73L304,113.28a16.77,16.77,0,0,1-6.94,4.36l-1.46.45s-1.66-.83.92-2.08l1.79-1.08s-4.7,3-6.9,1.87c0,0-.51-.13-.05-.94a40.65,40.65,0,0,0,6.3-2.86s-4.89,3.09-7.82,2.12c0,0-1.12-.73,0-1.44A71.3,71.3,0,0,0,297,110.9s-4.87,1.59-7.09,1.47c0,0-1-1,.43-1.59a63.4,63.4,0,0,1,6.26-3.61,12.7,12.7,0,0,0,2.44-4.72S300.07,102.4,300.54,105.9Z"/><path class="cls-10" d="M290.88,55.3s9.78,2,15,6.74l13.26,9.78s-.22,14.33-9.13,19.33l-17.16-9.77S279.37,68.56,290.88,55.3Z"/><path class="cls-10" d="M270.94,50.24a23.07,23.07,0,0,0-11.78,2.46L243.09,66.6a18.35,18.35,0,0,0,10,12.39l14.77-8.91S276.62,62.78,270.94,50.24Z"/><path class="cls-4" d="M283.06,28.64c2.77,2.21,2.24,6.67,2.39,9.94A149.07,149.07,0,0,1,284.16,67c-.77,5.26-2.36,10.73-3,15.87,2.58-1,4.49-4.08,7.36-5.18,3.19-1.23,6.61-.16,10-.87,3.55-.74,5.27-3.16,6.29-6.52.48-1.56.21-3.5,1.09-5,1-1.66,2.41-1.35,3.92-2.33,6.56-4.24,1.56-13.67-.16-19.17-2-6.32-5.17-12.11-7.88-18.25-2.81-6.36-8.47-12.44-15.21-14.12-5-1.25-11.14.39-12.92,5.76C271.18,24.54,278.54,25,283.06,28.64Z"/><path class="cls-2" d="M44.88,356.08c0,26.27,54.26,47.56,121.19,47.56s121.18-21.29,121.18-47.56S233,308.52,166.07,308.52,44.88,329.81,44.88,356.08Z"/><path class="cls-3" d="M78.87,355.23c0,16,38.54,28.9,86.08,28.9S251,371.19,251,355.23s-38.54-28.9-86.08-28.9S78.87,339.27,78.87,355.23Z"/><path class="cls-8" d="M143.7,350.6l-2.21-43.26s-6-39.53-2.6-52.45l-2.08-34.18h24.35l-3.08,34.18s-.34,21.08-1.38,33.37-4.6,42.63-3.86,61.54A8.92,8.92,0,0,1,143.7,350.6Z"/><path class="cls-22" d="M176.59,346.38s1.4,6.48-18,9.46l-4.38,1.07a17.93,17.93,0,0,1-6.75.45s-4.75-.89-6.1-2.54l1.84-9.94s-.59,4.2,7.35,4.57c0,0,1.58.1,1.5-.65-1.08-.54-1-1.09-1-1.09l.3-2.43c.1-.67,1.56-.59,1.56-.59l16.18-.62c6-.46,7.06.82,7.06.82A2.6,2.6,0,0,1,176.59,346.38Z"/><path class="cls-23" d="M143.18,344.88c0,4.55,7.56,4.57,7.56,4.57,1.32,0,1.32-.65,1.32-.65l16.27-1.25a1.67,1.67,0,0,1,1.88.73l.93,2-1.87.74c-3.92,1.39-8,2.09-12.06,3.08-1.2.29-2.41.54-3.62.75a23.69,23.69,0,0,1-3.85.38,14.41,14.41,0,0,1-2.54-.18,12,12,0,0,1-2.86-.84,12.7,12.7,0,0,1-2.61-1.36Z"/><path class="cls-17" d="M167.49,344.45l2.06-.2c4.06-.15,5.3.1,6.25.72.88,1.56-3.59,5-4.62,4.44A22.35,22.35,0,0,1,167.49,344.45Z"/><path class="cls-17" d="M176.68,346.24s1.34,3.06-3.41,6c-2.58,1.59-7.5,2.87-14.15,4.25a56.12,56.12,0,0,1-8.2,1.45,15.36,15.36,0,0,1-7.89-1.58c-.55-.29-1.5-.86-1.66-1.54l.36-1.93a12.7,12.7,0,0,0,2.61,1.36,12,12,0,0,0,2.86.84,14.41,14.41,0,0,0,2.54.18,23.69,23.69,0,0,0,3.85-.38c1.21-.21,2.42-.46,3.62-.75,4-1,8.14-1.69,12.06-3.08a15.56,15.56,0,0,0,5.28-2.78A6.45,6.45,0,0,0,176,346.5a2.09,2.09,0,0,0,.29-1.45A3.18,3.18,0,0,1,176.68,346.24Z"/><path class="cls-21" d="M160.7,349.61a.46.46,0,0,0,.45-.44,8.76,8.76,0,0,1,1.89-4.6.45.45,0,1,0-.69-.59,9.62,9.62,0,0,0-2.1,5.16.43.43,0,0,0,.43.46Z"/><path class="cls-21" d="M157.34,349.78a.45.45,0,0,0,.45-.44c.1-2.43,2.3-4.55,2.32-4.58a.45.45,0,0,0,0-.64.46.46,0,0,0-.64,0c-.1.1-2.49,2.4-2.6,5.2a.46.46,0,0,0,.43.47Z"/><path class="cls-21" d="M154,349.9a.45.45,0,0,0,.45-.43c.09-2.44,2.3-4.56,2.32-4.58a.45.45,0,1,0-.62-.65c-.1.09-2.49,2.4-2.6,5.19a.45.45,0,0,0,.43.47Z"/><path class="cls-24" d="M167.13,348.36h.07a.44.44,0,0,0,.38-.51,15.1,15.1,0,0,0-1.43-3.85.45.45,0,0,0-.8.42,14.47,14.47,0,0,1,1.34,3.57A.44.44,0,0,0,167.13,348.36Z"/><path class="cls-21" d="M163.81,349.11a.45.45,0,0,0,.46-.44,6.76,6.76,0,0,1,1.8-4.15.45.45,0,0,0,0-.64.46.46,0,0,0-.64,0,7.64,7.64,0,0,0-2.07,4.76.46.46,0,0,0,.44.47Z"/><path class="cls-17" d="M167.13,348.36a.5.5,0,0,0,.26-.08.45.45,0,0,0,.12-.62,11.52,11.52,0,0,0-4.48-3.78.45.45,0,0,0-.35.83,10.83,10.83,0,0,1,4.08,3.45A.44.44,0,0,0,167.13,348.36Z"/><path class="cls-17" d="M163.81,349.11a.58.58,0,0,0,.19,0,.46.46,0,0,0,.23-.6c-.07-.14-1.56-3.39-4.26-4.52a.45.45,0,0,0-.59.24.46.46,0,0,0,.24.6c2.37,1,3.77,4,3.78,4A.46.46,0,0,0,163.81,349.11Z"/><path class="cls-17" d="M160.7,349.61a.46.46,0,0,0,.2-.05.44.44,0,0,0,.2-.61c-.07-.15-1.86-3.68-4.55-4.81a.45.45,0,0,0-.59.24.46.46,0,0,0,.24.6c2.38,1,4.08,4.34,4.1,4.38A.46.46,0,0,0,160.7,349.61Z"/><path class="cls-17" d="M157.34,349.73a.39.39,0,0,0,.2-.05.45.45,0,0,0,.2-.6c-.07-.15-1.8-3.57-3.86-4.75a.45.45,0,1,0-.45.78c1.82,1.05,3.49,4.34,3.5,4.37A.45.45,0,0,0,157.34,349.73Z"/><path class="cls-17" d="M155.15,345.89a4.07,4.07,0,0,0,3.71-.48.82.82,0,0,0,.27-.78c-.12-.82-.87-.73-1.45-.58-1.07.29-1.39,1.29-2.14,2a.46.46,0,0,1-.76-.44,6.92,6.92,0,0,0,.16-3.38c-.06-.27-.34-1.13-.64-.41a1.94,1.94,0,0,0-.07.72c0,.86.22,2.88,1,3.41.49.32,0,1.1-.45.78a4,4,0,0,1-1.25-2.47c-.18-.78-.51-2.16,0-2.9s1.46-1.18,2-.21c.78,1.38.48,3.25.12,4.7l-.75-.44c.52-.47.79-1.18,1.35-1.61a3.74,3.74,0,0,1,1.81-.73,1.72,1.72,0,0,1,2,2c-.25,2-3.66,2.3-5.12,1.72-.53-.22-.3-1.09.24-.87Z"/><rect class="cls-5" x="158.03" y="68.49" width="16.42" height="17.46"/><path class="cls-5" d="M184.62,68.88l.61-2.79,1.23-8.93a9.12,9.12,0,0,0-.61-4.15,9.42,9.42,0,0,1-.83-4.25,16,16,0,0,0-4.09-12c-5.61-6-16.41-4.52-16.41-4.52-5.58,1.06-10.37,3.42-12.88,8.22-2.28,4.35-3.34,9.57-1.54,14.2,2,5.08,5.42,9,9.87,12.4,2.85,2.21,5.64,2.35,9.25,3.35a40.28,40.28,0,0,0,9.88.8C180.47,71.17,184.26,70.48,184.62,68.88Z"/><path class="cls-25" d="M177.14,59.42c-.81-1.15-3.76-1.86-3.77-1.86-3.56,0-3.1,4.76-3.43,6.82-.11.67-.24,1.36-.39,2.05-1.7,6-6.79,6-11.13,6.73l-.51-.29a17.5,17.5,0,0,0-3.29-5.47c-6.53-5.64-8.66-15.78-6.17-23.76a19,19,0,0,1,4.07-6.82A24.1,24.1,0,0,1,166,29.87c5.05-.95,13.27-1.85,22.28,5.1,0,0,3.86,1.29-11.15,14.38V59.42"/><path class="cls-5" d="M177.14,59.42a3.42,3.42,0,0,0-4-2.35,2.68,2.68,0,0,0-2,2.9c0,.29.09.58.12.87.51,3.14,3.82,4.33,3.82,4.33"/><path class="cls-26" d="M173.45,58.55a1.76,1.76,0,0,1,.79-.22c1.2-.07,2.16,1.77,1,2.1a.69.69,0,0,0,0,1c.41.45,1,1.09.84,1.72-.07.37-.49.58-.87.67s-.36-.16-.12-.28a1.2,1.2,0,0,0,.46-.37l0-.06a.13.13,0,0,0,0-.05.42.42,0,0,0,0-.27.74.74,0,0,1-.93,0c-.23-.27-.06-.7-.13-1a2.46,2.46,0,0,0-.28-.62.64.64,0,0,1,.44-1.07l.36,0c.5-.26,0-1-.36-1.14a1,1,0,0,0-1.05.19,1.49,1.49,0,0,0-.33,1,3.51,3.51,0,0,0,.33,1.27l.35.72c.13.25-.17.37-.3.11a7.49,7.49,0,0,1-.85-2.09A1.58,1.58,0,0,1,173.45,58.55Z"/><path class="cls-26" d="M177.14,59.42s-.15-.2-.38-.57a4.1,4.1,0,0,0-.5-.58,4.26,4.26,0,0,0-.75-.59,3.41,3.41,0,0,0-1-.37,2.61,2.61,0,0,0-1.17.08,3.23,3.23,0,0,0-.59.26,2.56,2.56,0,0,0-.47.36,2.23,2.23,0,0,0-.62,1.06,3.06,3.06,0,0,0,0,1.32l0,.36v0h0s0,.06,0,0h0v0l0,.09,0,.18a2.9,2.9,0,0,0,.17.63,5.22,5.22,0,0,0,.55,1.11,6.64,6.64,0,0,0,.72.89,7.67,7.67,0,0,0,1.36,1.12,6.3,6.3,0,0,0,.58.36,4,4,0,0,1-.66-.22,6.51,6.51,0,0,1-1.59-.91,5,5,0,0,1-.9-.88A4.56,4.56,0,0,1,171.2,62a4,4,0,0,1-.24-.72l-.05-.18,0-.08v0l0-.07v0l-.06-.36a4,4,0,0,1,0-1.61,3.12,3.12,0,0,1,.88-1.44l.32-.26.38-.21a3.82,3.82,0,0,1,.72-.26,3.16,3.16,0,0,1,2.64.61,3.29,3.29,0,0,1,.73.78,4.45,4.45,0,0,1,.4.7C177.06,59.18,177.14,59.42,177.14,59.42Z"/><path class="cls-17" d="M175.08,64.4a1,1,0,1,0,2,0,1,1,0,0,0-2,0Z"/><path class="cls-27" d="M175.84,64.93a.78.78,0,0,0,.79-.78.77.77,0,0,0-.55-.74h0a1,1,0,0,1,0,2,1,1,0,0,1-1-1s0-.05,0-.07A.78.78,0,0,0,175.84,64.93Z"/><path class="cls-28" d="M140.84,340.74c-8.92-58.68-3.43-89.57-3.43-89.57L132.93,181l33.93,10.63s-3.7,56.63-6.55,67c0,0-2.31,63.94-5.4,81.79C154.91,340.4,146,348.61,140.84,340.74Z"/><path class="cls-8" d="M167.21,355.06,165,311.8s-6-39.53-2.59-52.45L159,225.18h25.68l-3.08,34.17s-.35,21.08-1.38,33.37-4.6,42.63-3.86,61.54A8.92,8.92,0,0,1,167.21,355.06Z"/><path class="cls-8" d="M130.77,123s6.4,7.54,19.12,25.72l-2.2,3.72s-21.79-11-28.74-23.29Z"/><path class="cls-8" d="M148.78,96s-16.4,35.78-26.25,34.42c0,0-3.4.22-4.08-2.34,0,0-7-6.17,22-50.67A8.93,8.93,0,0,1,149,74.61S157.82,80.42,148.78,96Z"/><path class="cls-29" d="M154.6,201a43.65,43.65,0,0,1-13.44-6.63c-6.78-5-9.3-11.9-7.88-19.79.51-2.82,10.52-25.57,11.48-24.77,0,0,10.72,9,42,10.21,0,0,8.91,19.3,6.37,30.3,0,0-.82,6-1.36,12.91C183.22,214.82,168.42,205.46,154.6,201Z"/><path class="cls-29" d="M178.76,345.89a13.4,13.4,0,0,1-14.41,1c-2.19-20.46-5.4-77.74-2.7-88.41L154.6,201l37.15,2.23L188,247.37S182.2,310.29,178.76,345.89Z"/><path class="cls-22" d="M200.1,350.84s1.4,6.49-18,9.46l-4.38,1.07a18.15,18.15,0,0,1-6.75.45s-4.76-.89-6.1-2.54l1.83-9.94s-.58,4.2,7.36,4.57c0,0,1.58.11,1.5-.65-1.08-.53-1-1.09-1-1.09l.3-2.43c.11-.67,1.57-.59,1.57-.59l16.18-.62c6-.46,7.05.82,7.05.82A2.55,2.55,0,0,1,200.1,350.84Z"/><path class="cls-23" d="M166.68,349.34c0,4.55,7.57,4.58,7.57,4.58,1.32,0,1.31-.66,1.31-.66L191.83,352a1.68,1.68,0,0,1,1.89.73l.92,2-1.86.74c-3.92,1.39-8,2.09-12.06,3.08q-1.8.43-3.63.75a23.46,23.46,0,0,1-3.84.38,14.41,14.41,0,0,1-2.54-.18,12.34,12.34,0,0,1-2.86-.83,13.22,13.22,0,0,1-2.61-1.37Z"/><path class="cls-17" d="M191,348.91l2.05-.2c4.07-.15,5.3.1,6.25.72.89,1.56-3.58,5-4.61,4.44A22.35,22.35,0,0,1,191,348.91Z"/><path class="cls-17" d="M200.19,350.7s1.34,3.06-3.41,6c-2.58,1.59-7.5,2.88-14.16,4.25a55.67,55.67,0,0,1-8.2,1.46,15.53,15.53,0,0,1-7.88-1.58c-.56-.29-1.5-.87-1.66-1.55l.36-1.93a13.22,13.22,0,0,0,2.61,1.37,12.34,12.34,0,0,0,2.86.83,14.41,14.41,0,0,0,2.54.18,23.46,23.46,0,0,0,3.84-.38q1.83-.32,3.63-.75c4-1,8.14-1.69,12.06-3.08a15.81,15.81,0,0,0,5.28-2.77,7,7,0,0,0,1.42-1.78,2.1,2.1,0,0,0,.28-1.46A3.07,3.07,0,0,1,200.19,350.7Z"/><path class="cls-21" d="M184.21,354.07a.46.46,0,0,0,.45-.44,8.67,8.67,0,0,1,1.89-4.6.46.46,0,0,0-.06-.64.44.44,0,0,0-.63.05,9.53,9.53,0,0,0-2.1,5.16.43.43,0,0,0,.43.46Z"/><path class="cls-21" d="M180.85,354.24a.45.45,0,0,0,.45-.44c.1-2.43,2.3-4.55,2.32-4.58a.44.44,0,0,0,0-.63.46.46,0,0,0-.64,0c-.1.1-2.49,2.4-2.6,5.2a.45.45,0,0,0,.43.47Z"/><path class="cls-21" d="M177.49,354.36a.44.44,0,0,0,.45-.43c.09-2.43,2.3-4.56,2.32-4.58a.45.45,0,0,0-.62-.65,8.65,8.65,0,0,0-2.61,5.2.45.45,0,0,0,.44.46Z"/><path class="cls-24" d="M190.64,352.82h.07a.46.46,0,0,0,.38-.52,15.51,15.51,0,0,0-1.43-3.85.47.47,0,0,0-.62-.19.46.46,0,0,0-.18.62,14.47,14.47,0,0,1,1.33,3.56A.46.46,0,0,0,190.64,352.82Z"/><path class="cls-21" d="M187.32,353.57a.45.45,0,0,0,.45-.44,6.8,6.8,0,0,1,1.81-4.15.45.45,0,1,0-.64-.64,7.64,7.64,0,0,0-2.07,4.76.45.45,0,0,0,.43.47Z"/><path class="cls-17" d="M190.64,352.82a.43.43,0,0,0,.25-.07.45.45,0,0,0,.12-.63,11.43,11.43,0,0,0-4.48-3.78.45.45,0,0,0-.59.24.47.47,0,0,0,.24.59,10.9,10.9,0,0,1,4.09,3.45A.44.44,0,0,0,190.64,352.82Z"/><path class="cls-17" d="M187.32,353.57a.65.65,0,0,0,.19,0,.45.45,0,0,0,.22-.6c-.06-.14-1.55-3.39-4.25-4.52a.45.45,0,0,0-.59.24.46.46,0,0,0,.24.6c2.37,1,3.77,4,3.78,4.05A.46.46,0,0,0,187.32,353.57Z"/><path class="cls-17" d="M184.21,354.07a.49.49,0,0,0,.2-.05.46.46,0,0,0,.2-.61c-.07-.15-1.86-3.68-4.55-4.81a.46.46,0,0,0-.35.84c2.38,1,4.08,4.34,4.09,4.38A.45.45,0,0,0,184.21,354.07Z"/><path class="cls-17" d="M180.84,354.19a.52.52,0,0,0,.21,0,.46.46,0,0,0,.2-.61c-.08-.15-1.81-3.57-3.86-4.75a.46.46,0,0,0-.62.17.44.44,0,0,0,.16.61c1.83,1.05,3.49,4.34,3.51,4.37A.45.45,0,0,0,180.84,354.19Z"/><path class="cls-17" d="M178.66,350.35a4,4,0,0,0,3.7-.48.83.83,0,0,0,.28-.78c-.12-.82-.87-.73-1.45-.57-1.07.28-1.4,1.29-2.15,2a.45.45,0,0,1-.75-.44,7,7,0,0,0,.16-3.38c-.07-.27-.34-1.13-.64-.41a1.94,1.94,0,0,0-.07.72c0,.86.22,2.88,1,3.41.48.32,0,1.1-.46.78a4,4,0,0,1-1.24-2.47c-.19-.78-.51-2.16,0-2.9s1.46-1.18,2-.21c.78,1.38.48,3.25.12,4.7l-.75-.44c.51-.47.79-1.18,1.35-1.61a3.6,3.6,0,0,1,1.81-.72,1.71,1.71,0,0,1,2,2c-.25,2-3.66,2.3-5.12,1.72-.53-.22-.3-1.09.24-.87Z"/><path class="cls-30" d="M195,191.43c2.75-16.82-6-37.26-6-37.26L187.82,144l3.74-41.82c.72-5-1-8.91-3.27-10.8s-11.2-5.41-13.73-6.78c0,0-1.45,3-10.93-1.08,0,0-6-1.66-5.63-6-2.9-.93-4.25-2.12-9-2.91-6.68-1.12-7,5.14-7.76,10.08L147,130s1,5.83-.69,9.95c0,0-13.72,19.22-15.78,35.35C130.53,175.3,151.46,199,195,191.43Z"/><path class="cls-5" d="M183.77,151.82l-6.15-36.88s-2.94-23.29,9.74-22.35c0,0,6.33,1.74,8,14.26l2,45.86S192.13,156.17,183.77,151.82Z"/><path class="cls-5" d="M198,152.27l17.52,41.26c-1.61,4.76-3.74,3.94-3.74,3.94l-18.46-25.74c-8-10.78-9.52-19.91-9.52-19.91s-1.2-4.95,8.12-5.06C191.89,146.76,196.1,146.76,198,152.27Z"/><path class="cls-5" d="M211.28,196.81l3.7-4.46a15.77,15.77,0,0,1,8.31,4.71l9.33,9.23s.72,3.23-2.37,1c0,0,2,3.15-1.43,1.72,0,0-4,.88-9-2.34C219.79,206.7,214.73,204,211.28,196.81Z"/><path class="cls-30" d="M185.11,89.88s12,3.77,12.7,19.56l3.43,28.14s-9.61,6.52-24,3.43l-3.43-39.46S172.76,88.85,185.11,89.88Z"/><path class="cls-30" d="M150.32,74.86s-6.43-2.7-11.19,2.58L124.2,100.6s3.6,12.61,16.86,15.32l14.67-25.61S160.23,81.94,150.32,74.86Z"/><path class="cls-25" d="M183.4,40.89C177,48.16,178.59,57.06,179,66.11a171.74,171.74,0,0,0,3.61,25.49c.76,3.81,1,8.35-3.35,10.23-4.13,1.79-10.72.9-14.92-.51-8.73-2.94-14.53-4.1-20.86-11C139,85.4,137.68,77,138.87,70.75c2.26-11.94,5.24-29.32,15.44-36.3,8.62-5.89,19.45.75,27.29,5.92Z"/><path class="cls-31" d="M205.3,52.58a1.38,1.38,0,1,0-.2-1.93h0a1.37,1.37,0,0,0,.2,1.93Z"/><path class="cls-31" d="M205.69,50.21A2.86,2.86,0,0,0,207,49.12a6.91,6.91,0,0,0,.57.51,5.32,5.32,0,0,0,.79.55,2.88,2.88,0,0,0-.43.56,3,3,0,0,0-.33.7,1.38,1.38,0,0,0-1.45-1.31A1.86,1.86,0,0,0,205.69,50.21Z"/><path class="cls-32" d="M200.65,46.28a1.58,1.58,0,1,0,1.43-1.72h0A1.58,1.58,0,0,0,200.65,46.28Z"/><path class="cls-32" d="M202.89,44.68a3.39,3.39,0,0,0,1.14.21,3.51,3.51,0,0,0,.79-.06,8.24,8.24,0,0,0,0,.86,9.93,9.93,0,0,0,.19,1.09,3.08,3.08,0,0,0-.8.1,4.21,4.21,0,0,0-.84.3,1.58,1.58,0,0,0-.12-2.24,1.66,1.66,0,0,0-.39-.26Z"/><path class="cls-32" d="M218.79,51a1.38,1.38,0,1,0-1.95.21,1.38,1.38,0,0,0,1.95-.21Z"/><path class="cls-32" d="M216.42,50.61a3.18,3.18,0,0,0-.58-.83,3.13,3.13,0,0,0-.52-.43,4.6,4.6,0,0,0,.52-.56,5.91,5.91,0,0,0,.54-.77,3.28,3.28,0,0,0,.56.42,3,3,0,0,0,.7.33,1.38,1.38,0,0,0-1.3,1.45,1.1,1.1,0,0,0,.08.4Z"/><path class="cls-31" d="M210.15,35.65a1.38,1.38,0,1,0,1.52,1.25,1.37,1.37,0,0,0-1.52-1.25Z"/><path class="cls-31" d="M211.55,37.6a2.85,2.85,0,0,0-.18,1,3.16,3.16,0,0,0,0,.68,6.44,6.44,0,0,0-.76,0,5.65,5.65,0,0,0-.93.17,2.74,2.74,0,0,0-.09-.7,3.51,3.51,0,0,0-.26-.73,1.39,1.39,0,0,0,2-.1,1.46,1.46,0,0,0,.22-.33Z"/><path class="cls-32" d="M217.65,37a1.38,1.38,0,1,0,.2,1.94,1.37,1.37,0,0,0-.2-1.94Z"/><path class="cls-32" d="M217.26,39.36A3.18,3.18,0,0,0,216,40.45c-.18-.18-.37-.35-.56-.51a6.78,6.78,0,0,0-.78-.54,3.33,3.33,0,0,0,.43-.56,3.68,3.68,0,0,0,.32-.7,1.39,1.39,0,0,0,1.46,1.3,1.89,1.89,0,0,0,.4-.08Z"/><path class="cls-31" d="M203.21,38.67a1.38,1.38,0,1,0,1.95-.21,1.39,1.39,0,0,0-1.95.21Z"/><path class="cls-31" d="M205.58,39.05a3,3,0,0,0,.58.86,3.6,3.6,0,0,0,.52.43,5.56,5.56,0,0,0-.52.56,8.43,8.43,0,0,0-.55.78,2.55,2.55,0,0,0-.55-.43,3.19,3.19,0,0,0-.7-.33,1.38,1.38,0,0,0,1.31-1.45A1.5,1.5,0,0,0,205.58,39.05Z"/><path class="cls-32" d="M212.46,55.26A1.38,1.38,0,1,0,210.94,54a1.38,1.38,0,0,0,1.52,1.23Z"/><path class="cls-32" d="M211.06,53.3a2.8,2.8,0,0,0,.18-1,3.07,3.07,0,0,0-.05-.68,6.45,6.45,0,0,0,.76,0,6,6,0,0,0,.94-.17,2.81,2.81,0,0,0,.08.71,3.64,3.64,0,0,0,.26.72,1.38,1.38,0,0,0-1.95.11,1.21,1.21,0,0,0-.22.32Z"/><path class="cls-31" d="M221.48,43.86a1.38,1.38,0,1,0-1.23,1.52,1.38,1.38,0,0,0,1.23-1.52Z"/><path class="cls-31" d="M219.53,45.26a3.11,3.11,0,0,0-1-.19,2.57,2.57,0,0,0-.68.06c0-.26,0-.51,0-.77a7.58,7.58,0,0,0-.17-.93,2.74,2.74,0,0,0,.7-.08,3.51,3.51,0,0,0,.73-.26,1.35,1.35,0,0,0-.34,1.06A1.39,1.39,0,0,0,219.53,45.26Z"/><path class="cls-32" d="M215.42,39.94a6.58,6.58,0,1,0,1,9.25,6.59,6.59,0,0,0-1-9.25Z"/><path class="cls-31" d="M213.89,43.51a2.24,2.24,0,1,0,.33,3.16h0a2.25,2.25,0,0,0-.32-3.15Z"/><path class="cls-31" d="M213.75,40.26a.89.89,0,1,0,.45,1.17h0a.89.89,0,0,0-.44-1.17Z"/><path class="cls-31" d="M208.19,40.58a1.18,1.18,0,1,0,1.64.27h0A1.18,1.18,0,0,0,208.19,40.58Z"/><path class="cls-31" d="M205.49,46.08a1,1,0,1,0,.87-1.08h0A1,1,0,0,0,205.49,46.08Z"/><path class="cls-31" d="M216.2,44.12a.6.6,0,1,1-.23.81h0a.59.59,0,0,1,.23-.81Z"/><path class="cls-31" d="M214,49.81a.78.78,0,1,0-1.09-.18.78.78,0,0,0,1.09.18Z"/><path class="cls-31" d="M209.17,49.93a1.41,1.41,0,0,0,1.14-2.57,1.41,1.41,0,0,0-1.16,2.57Z"/><path class="cls-31" d="M215,104.34a1.38,1.38,0,1,0-.2-1.94h0a1.37,1.37,0,0,0,.2,1.93Z"/><path class="cls-31" d="M215.38,102a3.23,3.23,0,0,0,.84-.58,3.13,3.13,0,0,0,.43-.52,7,7,0,0,0,.56.52,6.12,6.12,0,0,0,.79.54,3.33,3.33,0,0,0-.43.56,3,3,0,0,0-.33.7,1.38,1.38,0,0,0-1.45-1.31A1.43,1.43,0,0,0,215.38,102Z"/><path class="cls-32" d="M210.34,98a1.58,1.58,0,1,0,1.43-1.72h0A1.58,1.58,0,0,0,210.34,98Z"/><path class="cls-32" d="M212.58,96.43a3.4,3.4,0,0,0,1.14.22,4.22,4.22,0,0,0,.79-.07,6.19,6.19,0,0,0,0,.86,8,8,0,0,0,.18,1.09,3.58,3.58,0,0,0-.8.1,4.21,4.21,0,0,0-.84.3,1.58,1.58,0,0,0-.12-2.24,2,2,0,0,0-.39-.26Z"/><path class="cls-32" d="M228.48,102.76a1.38,1.38,0,1,0-1.94.2,1.38,1.38,0,0,0,1.94-.2Z"/><path class="cls-32" d="M226.11,102.36a3.35,3.35,0,0,0-.57-.82,3,3,0,0,0-.52-.43,6.91,6.91,0,0,0,.51-.57,5.91,5.91,0,0,0,.54-.77,4,4,0,0,0,.56.43,3.68,3.68,0,0,0,.7.32A1.38,1.38,0,0,0,226,102a1.29,1.29,0,0,0,.08.4Z"/><path class="cls-31" d="M219.85,87.4a1.38,1.38,0,1,0,1.51,1.25,1.38,1.38,0,0,0-1.51-1.25Z"/><path class="cls-31" d="M221.24,89.35a2.85,2.85,0,0,0-.18,1,3.12,3.12,0,0,0,.05.68,4.9,4.9,0,0,0-.76,0,5.65,5.65,0,0,0-.93.16,2.74,2.74,0,0,0-.09-.7,3.73,3.73,0,0,0-.26-.73,1.38,1.38,0,0,0,2-.1,1.46,1.46,0,0,0,.22-.33Z"/><path class="cls-32" d="M227.34,88.74a1.38,1.38,0,1,0,.2,1.94,1.36,1.36,0,0,0-.19-1.93Z"/><path class="cls-32" d="M227,91.11a3.24,3.24,0,0,0-1.29,1.09c-.18-.18-.37-.35-.56-.51a6.78,6.78,0,0,0-.78-.54,3.33,3.33,0,0,0,.43-.56,3.45,3.45,0,0,0,.33-.7,1.38,1.38,0,0,0,1.45,1.3,1.42,1.42,0,0,0,.4-.08Z"/><path class="cls-31" d="M212.91,90.42a1.38,1.38,0,1,0,1.94-.2,1.38,1.38,0,0,0-1.94.2Z"/><path class="cls-31" d="M215.27,90.8a3,3,0,0,0,.58.86,3.6,3.6,0,0,0,.52.43,6.89,6.89,0,0,0-.52.56,6.78,6.78,0,0,0-.54.78,2.88,2.88,0,0,0-.56-.43,3.19,3.19,0,0,0-.7-.33,1.38,1.38,0,0,0,1.31-1.45A1.58,1.58,0,0,0,215.27,90.8Z"/><path class="cls-32" d="M222.15,107a1.38,1.38,0,1,0-1.52-1.23,1.38,1.38,0,0,0,1.52,1.23Z"/><path class="cls-32" d="M220.75,105.05a3.05,3.05,0,0,0,.19-1,3.82,3.82,0,0,0-.06-.68,6.34,6.34,0,0,0,.76,0,7.38,7.38,0,0,0,.94-.16,2.79,2.79,0,0,0,.08.7,3.73,3.73,0,0,0,.26.73,1.38,1.38,0,0,0-1.95.1,1.46,1.46,0,0,0-.22.33Z"/><path class="cls-31" d="M231.17,95.61a1.38,1.38,0,1,0-1.23,1.52,1.38,1.38,0,0,0,1.23-1.52Z"/><path class="cls-31" d="M229.22,97a2.85,2.85,0,0,0-1-.18,3.12,3.12,0,0,0-.68,0c0-.25,0-.51,0-.76a7.4,7.4,0,0,0-.17-.94,2.35,2.35,0,0,0,.7-.08,3.51,3.51,0,0,0,.73-.26,1.37,1.37,0,0,0-.34,1.06A1.39,1.39,0,0,0,229.22,97Z"/><path class="cls-32" d="M225.11,91.69a6.58,6.58,0,1,0,1,9.25,6.57,6.57,0,0,0-1-9.25Z"/><path class="cls-31" d="M223.58,95.27a2.24,2.24,0,1,0,.33,3.15h0a2.24,2.24,0,0,0-.32-3.15Z"/><path class="cls-31" d="M223.44,92a.89.89,0,1,0,.45,1.17h0a.89.89,0,0,0-.44-1.17Z"/><path class="cls-31" d="M217.88,92.33a1.19,1.19,0,0,0-.26,1.65,1.18,1.18,0,0,0,1.91-1.38h0A1.17,1.17,0,0,0,217.88,92.33Z"/><path class="cls-31" d="M215.18,97.83a1,1,0,1,0,1.95-.21,1,1,0,0,0-1.08-.87h0A1,1,0,0,0,215.18,97.83Z"/><path class="cls-31" d="M225.89,95.87a.61.61,0,0,1,.82.23.62.62,0,0,1-.23.82.6.6,0,0,1-.82-.23h0a.59.59,0,0,1,.22-.81Z"/><path class="cls-31" d="M223.74,101.56a.78.78,0,0,0-.92-1.27.78.78,0,1,0,.91,1.27Z"/><path class="cls-31" d="M218.86,101.69a1.41,1.41,0,1,0-.72-1.87,1.42,1.42,0,0,0,.72,1.87Z"/><path class="cls-31" d="M224,151.69a1.38,1.38,0,1,0-.2-1.93h0a1.38,1.38,0,0,0,.19,1.93Z"/><path class="cls-31" d="M224.36,149.32a2.79,2.79,0,0,0,.83-.57,3,3,0,0,0,.43-.52c.18.18.37.35.56.51a5.9,5.9,0,0,0,.79.55,3.28,3.28,0,0,0-.42.56,3,3,0,0,0-.33.7,1.39,1.39,0,0,0-1.46-1.31A1.89,1.89,0,0,0,224.36,149.32Z"/><path class="cls-32" d="M219.31,145.39a1.59,1.59,0,1,0,1.44-1.72h0A1.59,1.59,0,0,0,219.31,145.39Z"/><path class="cls-32" d="M221.56,143.79a3.39,3.39,0,0,0,1.14.21,3.42,3.42,0,0,0,.78-.06,8.25,8.25,0,0,0,0,.86,8,8,0,0,0,.19,1.09,3.21,3.21,0,0,0-.81.1,4.12,4.12,0,0,0-.83.3,1.58,1.58,0,0,0-.13-2.24,1.42,1.42,0,0,0-.38-.26Z"/><path class="cls-32" d="M237.45,150.11a1.38,1.38,0,1,0-1.94.21,1.37,1.37,0,0,0,1.94-.21Z"/><path class="cls-32" d="M235.09,149.72a3.18,3.18,0,0,0-.58-.83,2.66,2.66,0,0,0-.52-.42,7,7,0,0,0,.52-.57,5.91,5.91,0,0,0,.54-.77,3.28,3.28,0,0,0,.56.42,3,3,0,0,0,.7.33,1.38,1.38,0,0,0-1.31,1.45,1.37,1.37,0,0,0,.09.4Z"/><path class="cls-31" d="M228.82,134.76a1.38,1.38,0,1,0,.29,2.74,1.38,1.38,0,0,0-.27-2.74Z"/><path class="cls-31" d="M230.22,136.71a3.11,3.11,0,0,0-.19,1,3.91,3.91,0,0,0,.06.68,6.69,6.69,0,0,0-.77,0,5.73,5.73,0,0,0-.92.17,2.74,2.74,0,0,0-.09-.7,3.21,3.21,0,0,0-.27-.73,1.4,1.4,0,0,0,2-.1,1.46,1.46,0,0,0,.22-.33Z"/><path class="cls-32" d="M236.32,136.1a1.38,1.38,0,1,0,.2,1.94,1.37,1.37,0,0,0-.2-1.94Z"/><path class="cls-32" d="M235.92,138.47a3.21,3.21,0,0,0-1.28,1.09,6.91,6.91,0,0,0-.57-.51,5.91,5.91,0,0,0-.77-.54,4,4,0,0,0,.43-.56,3.68,3.68,0,0,0,.32-.7,1.38,1.38,0,0,0,1.45,1.3,1.77,1.77,0,0,0,.4-.08Z"/><path class="cls-31" d="M221.88,137.78a1.38,1.38,0,1,0,1.94-.21,1.37,1.37,0,0,0-1.94.21Z"/><path class="cls-31" d="M224.25,138.16a3,3,0,0,0,.58.86,3.6,3.6,0,0,0,.52.43,4.6,4.6,0,0,0-.52.56,8.43,8.43,0,0,0-.55.78,2.55,2.55,0,0,0-.55-.43A3.06,3.06,0,0,0,223,140a1.39,1.39,0,0,0,1.32-1.45A1.5,1.5,0,0,0,224.25,138.16Z"/><path class="cls-32" d="M231.12,154.37a1.38,1.38,0,1,0-1.51-1.23,1.38,1.38,0,0,0,1.51,1.23Z"/><path class="cls-32" d="M229.73,152.41a2.8,2.8,0,0,0,.18-1,3.07,3.07,0,0,0,0-.68,6.45,6.45,0,0,0,.76,0,6.94,6.94,0,0,0,.93-.16,3.34,3.34,0,0,0,.08.7,3.39,3.39,0,0,0,.27.73,1.37,1.37,0,0,0-2,.1,1.14,1.14,0,0,0-.22.32Z"/><path class="cls-31" d="M240.15,143a1.38,1.38,0,1,0-1.23,1.52,1.38,1.38,0,0,0,1.23-1.52Z"/><path class="cls-31" d="M238.2,144.37a3.11,3.11,0,0,0-1-.19,2.57,2.57,0,0,0-.68.06,6.34,6.34,0,0,0,0-.76,7.38,7.38,0,0,0-.16-.94,2.74,2.74,0,0,0,.7-.08,3.73,3.73,0,0,0,.73-.26,1.32,1.32,0,0,0-.34,1.06A1.35,1.35,0,0,0,238.2,144.37Z"/><path class="cls-32" d="M234.09,139.05a6.58,6.58,0,1,0,1,9.25,6.59,6.59,0,0,0-1-9.25Z"/><path class="cls-31" d="M232.56,142.62a2.25,2.25,0,1,0,.33,3.16h0a2.24,2.24,0,0,0-.33-3.15Z"/><path class="cls-31" d="M232.42,139.37a.89.89,0,1,0,.45,1.17h0a.88.88,0,0,0-.45-1.17Z"/><path class="cls-31" d="M226.86,139.69a1.18,1.18,0,1,0,1.64.27h0A1.18,1.18,0,0,0,226.86,139.69Z"/><path class="cls-31" d="M224.15,145.19a1,1,0,0,0,1.09.87,1,1,0,0,0-.21-1.95h0A1,1,0,0,0,224.15,145.19Z"/><path class="cls-31" d="M234.86,143.23a.6.6,0,1,1-.23.81h0a.59.59,0,0,1,.23-.81Z"/><path class="cls-31" d="M232.71,148.92a.78.78,0,1,0-1.09-.18.79.79,0,0,0,1.09.18Z"/><path class="cls-31" d="M227.83,149a1.41,1.41,0,1,0,1.15-2.57,1.41,1.41,0,0,0-1.16,2.57Z"/><path class="cls-31" d="M239.94,122.38a.82.82,0,1,0-.12-1.15h0a.82.82,0,0,0,.12,1.15Z"/><path class="cls-31" d="M240.17,121a1.87,1.87,0,0,0,.49-.34,1.94,1.94,0,0,0,.26-.31,3.26,3.26,0,0,0,.33.31,5.52,5.52,0,0,0,.47.32,1.64,1.64,0,0,0-.26.33,2.17,2.17,0,0,0-.19.41.81.81,0,0,0-.86-.77A.69.69,0,0,0,240.17,121Z"/><path class="cls-32" d="M237.19,118.65a.93.93,0,0,0,1,.85.93.93,0,0,0-.17-1.86h0A.92.92,0,0,0,237.19,118.65Z"/><path class="cls-32" d="M238.51,117.71a2,2,0,0,0,.68.12,1.78,1.78,0,0,0,.46,0,4.07,4.07,0,0,0,0,.5,4.64,4.64,0,0,0,.11.65,2,2,0,0,0-.48.06,2.05,2.05,0,0,0-.49.18,1,1,0,0,0-.08-1.33.91.91,0,0,0-.23-.15Z"/><path class="cls-32" d="M247.91,121.44a.81.81,0,0,0-1.27-1,.81.81,0,0,0,1.26,1Z"/><path class="cls-32" d="M246.51,121.21a2,2,0,0,0-.34-.49,1.89,1.89,0,0,0-.31-.25l.31-.33a4.63,4.63,0,0,0,.31-.46,2.39,2.39,0,0,0,.33.25,2,2,0,0,0,.42.2.8.8,0,0,0-.77.85.69.69,0,0,0,0,.24Z"/><path class="cls-31" d="M242.81,112.37A.81.81,0,1,0,243,114a.81.81,0,0,0-.15-1.62Z"/><path class="cls-31" d="M243.63,113.53a1.67,1.67,0,0,0-.11.59,2.8,2.8,0,0,0,0,.4,3.54,3.54,0,0,0-.45,0,3.41,3.41,0,0,0-.54.1,2,2,0,0,0-.06-.42,1.69,1.69,0,0,0-.15-.43.81.81,0,0,0,1.15-.06.8.8,0,0,0,.13-.19Z"/><path class="cls-32" d="M247.24,113.17a.81.81,0,1,0-1,1.26.82.82,0,0,0,1.15-.12.81.81,0,0,0-.12-1.14Z"/><path class="cls-32" d="M247,114.56a2,2,0,0,0-.76.65,2.35,2.35,0,0,0-.33-.3,3.46,3.46,0,0,0-.46-.32,1.59,1.59,0,0,0,.25-.33,2,2,0,0,0,.2-.42.8.8,0,0,0,.85.77.69.69,0,0,0,.24,0Z"/><path class="cls-31" d="M238.71,114.16a.8.8,0,0,0,.12,1.14.81.81,0,0,0,1.14-.12.81.81,0,0,0-1.26-1Z"/><path class="cls-31" d="M240.1,114.38a1.78,1.78,0,0,0,.35.51,1.81,1.81,0,0,0,.3.25c-.1.11-.21.22-.3.34a3.72,3.72,0,0,0-.33.45,1.61,1.61,0,0,0-.32-.25,2,2,0,0,0-.42-.19.82.82,0,0,0,.78-.86A.76.76,0,0,0,240.1,114.38Z"/><path class="cls-32" d="M244.17,124a.82.82,0,0,0,.72-.9.81.81,0,0,0-1.62.17.82.82,0,0,0,.89.73Z"/><path class="cls-32" d="M243.34,122.8a1.71,1.71,0,0,0,.11-.59,2.69,2.69,0,0,0,0-.4,3.39,3.39,0,0,0,.45,0,3.53,3.53,0,0,0,.55-.1,2,2,0,0,0,.05.42,1.72,1.72,0,0,0,.16.43.82.82,0,0,0-1.16.06,1.27,1.27,0,0,0-.13.19Z"/><path class="cls-31" d="M249.5,117.23a.81.81,0,1,0-1.62.17.81.81,0,0,0,1.62-.17Z"/><path class="cls-31" d="M248.34,118.05a1.62,1.62,0,0,0-.58-.11,2.83,2.83,0,0,0-.41,0,3.39,3.39,0,0,0,0-.45,5.25,5.25,0,0,0-.09-.55,1.44,1.44,0,0,0,.41,0,1.69,1.69,0,0,0,.43-.15.78.78,0,0,0-.2.62A.81.81,0,0,0,248.34,118.05Z"/><path class="cls-32" d="M245.92,114.91a3.88,3.88,0,1,0,.56,5.46,3.88,3.88,0,0,0-.56-5.46Z"/><path class="cls-31" d="M245,117a1.32,1.32,0,1,0,.2,1.86h0A1.33,1.33,0,0,0,245,117Z"/><path class="cls-31" d="M244.93,115.09a.53.53,0,0,0-.69.27.52.52,0,0,0,.26.69.53.53,0,0,0,.7-.26h0a.52.52,0,0,0-.27-.69Z"/><path class="cls-31" d="M241.65,115.29a.7.7,0,0,0-.16,1,.69.69,0,0,0,1,.15.7.7,0,0,0,.16-1h0A.69.69,0,0,0,241.65,115.29Z"/><path class="cls-31" d="M240.05,118.54a.58.58,0,1,0,.51-.64h0A.58.58,0,0,0,240.05,118.54Z"/><path class="cls-31" d="M246.38,117.38a.35.35,0,1,1-.14.48h0a.35.35,0,0,1,.13-.48Z"/><path class="cls-31" d="M245.1,120.74a.47.47,0,0,0,.11-.65.47.47,0,0,0-.65-.1.46.46,0,0,0-.1.64.46.46,0,0,0,.64.11Z"/><path class="cls-31" d="M242.22,120.81a.83.83,0,0,0,.68-1.52.83.83,0,0,0-.69,1.52Z"/><path class="cls-31" d="M206.93,125.5a.82.82,0,0,0,1.15-.12.82.82,0,0,0-1.27-1h0a.82.82,0,0,0,.12,1.15Z"/><path class="cls-31" d="M207.16,124.1a1.92,1.92,0,0,0,.5-.34,1.89,1.89,0,0,0,.25-.31c.1.11.22.21.33.31a4.87,4.87,0,0,0,.47.32,2.1,2.1,0,0,0-.26.33,2.17,2.17,0,0,0-.19.41.82.82,0,0,0-.86-.77A.69.69,0,0,0,207.16,124.1Z"/><path class="cls-32" d="M204.18,121.77a.94.94,0,1,0,.85-1h0A.94.94,0,0,0,204.18,121.77Z"/><path class="cls-32" d="M205.51,120.83a2.15,2.15,0,0,0,.67.13,2.49,2.49,0,0,0,.47,0,2.75,2.75,0,0,0,0,.5,4.64,4.64,0,0,0,.11.65,2,2,0,0,0-.48.06,2.22,2.22,0,0,0-.49.18,1,1,0,0,0-.07-1.33,1.14,1.14,0,0,0-.23-.15Z"/><path class="cls-32" d="M214.9,124.57a.82.82,0,0,0-1.27-1,.82.82,0,0,0,1.27,1Z"/><path class="cls-32" d="M213.5,124.33a2,2,0,0,0-.34-.49,1.54,1.54,0,0,0-.31-.25c.11-.1.21-.22.31-.33a4.73,4.73,0,0,0,.32-.46,1.59,1.59,0,0,0,.33.25,2.22,2.22,0,0,0,.41.2.81.81,0,0,0-.77.85,1,1,0,0,0,.05.24Z"/><path class="cls-31" d="M209.8,115.49a.81.81,0,1,0,.17,1.62.81.81,0,0,0-.16-1.62Z"/><path class="cls-31" d="M210.62,116.65a2,2,0,0,0-.11.59,1.81,1.81,0,0,0,0,.4,3.39,3.39,0,0,0-.45,0,3.33,3.33,0,0,0-.55.1,2,2,0,0,0-.05-.42,2.23,2.23,0,0,0-.16-.43.81.81,0,0,0,1.15-.06.59.59,0,0,0,.13-.19Z"/><path class="cls-32" d="M214.23,116.29a.81.81,0,1,0,.12,1.14.81.81,0,0,0-.12-1.14Z"/><path class="cls-32" d="M214,117.69a1.91,1.91,0,0,0-.77.64,2.35,2.35,0,0,0-.33-.3,2.91,2.91,0,0,0-.46-.32,2.1,2.1,0,0,0,.26-.33,2,2,0,0,0,.19-.42.81.81,0,0,0,.86.77.85.85,0,0,0,.23,0Z"/><path class="cls-31" d="M205.7,117.28a.81.81,0,0,0,1.27,1,.81.81,0,0,0-1.27-1Z"/><path class="cls-31" d="M207.1,117.5a1.75,1.75,0,0,0,.34.51,1.89,1.89,0,0,0,.31.25c-.11.11-.21.22-.31.34a2.51,2.51,0,0,0-.32.46,1.64,1.64,0,0,0-.33-.26,2,2,0,0,0-.42-.19.82.82,0,0,0,.78-.86A.74.74,0,0,0,207.1,117.5Z"/><path class="cls-32" d="M211.16,127.08a.81.81,0,0,0,.72-.9.8.8,0,0,0-.89-.72.81.81,0,0,0-.73.89.83.83,0,0,0,.9.73Z"/><path class="cls-32" d="M210.33,125.92a1.71,1.71,0,0,0,.11-.59,1.38,1.38,0,0,0,0-.4,3.39,3.39,0,0,0,.45,0,3.33,3.33,0,0,0,.55-.1,2,2,0,0,0,.05.42,2.23,2.23,0,0,0,.16.43.82.82,0,0,0-1.16.06,1.27,1.27,0,0,0-.13.19Z"/><path class="cls-31" d="M216.49,120.35a.81.81,0,1,0-1.62.17.81.81,0,0,0,1.62-.17Z"/><path class="cls-31" d="M215.34,121.17a1.71,1.71,0,0,0-.59-.11,2.6,2.6,0,0,0-.4,0c0-.15,0-.3,0-.45s-.06-.37-.1-.55a1.4,1.4,0,0,0,.41,0,1.57,1.57,0,0,0,.43-.15.83.83,0,0,0-.2.62A.82.82,0,0,0,215.34,121.17Z"/><path class="cls-32" d="M212.91,118a3.88,3.88,0,1,0,.57,5.46,3.89,3.89,0,0,0-.57-5.46Z"/><path class="cls-31" d="M212,120.14a1.33,1.33,0,1,0,.19,1.86h0a1.32,1.32,0,0,0-.19-1.86Z"/><path class="cls-31" d="M211.92,118.22a.52.52,0,0,0-.69.26.51.51,0,0,0,.27.69.52.52,0,0,0,.69-.26h0a.52.52,0,0,0-.26-.69Z"/><path class="cls-31" d="M208.64,118.41a.7.7,0,0,0,.81,1.13.68.68,0,0,0,.16-1h0A.69.69,0,0,0,208.64,118.41Z"/><path class="cls-31" d="M207,121.66a.58.58,0,0,0,.64.51.58.58,0,0,0,.52-.64.58.58,0,0,0-.64-.51h0A.58.58,0,0,0,207,121.66Z"/><path class="cls-31" d="M213.37,120.5a.35.35,0,0,1,.48.13.36.36,0,0,1-.13.49.37.37,0,0,1-.49-.14h0a.36.36,0,0,1,.14-.48Z"/><path class="cls-31" d="M212.1,123.86a.47.47,0,0,0-.55-.75.47.47,0,0,0,.55.75Z"/><path class="cls-31" d="M209.22,123.93a.82.82,0,0,0,1.09-.42.83.83,0,0,0-.42-1.1.84.84,0,0,0-1.1.42.83.83,0,0,0,.42,1.1Z"/><path class="cls-31" d="M199.88,79.21a.81.81,0,1,0,1-1.26.82.82,0,0,0-1.15.12h0a.81.81,0,0,0,.12,1.14Z"/><path class="cls-31" d="M200.11,77.81a1.83,1.83,0,0,0,.49-.33,2.51,2.51,0,0,0,.26-.31l.33.3a3,3,0,0,0,.47.32,1.64,1.64,0,0,0-.26.33,2,2,0,0,0-.19.42.82.82,0,0,0-.86-.78A1,1,0,0,0,200.11,77.81Z"/><path class="cls-32" d="M197.13,75.49a.94.94,0,1,0,.85-1h0A.94.94,0,0,0,197.13,75.49Z"/><path class="cls-32" d="M198.45,74.54a2,2,0,0,0,.68.13,2.32,2.32,0,0,0,.46,0,4.36,4.36,0,0,0,0,.51,4.5,4.5,0,0,0,.11.64,2,2,0,0,0-.48.06,2.22,2.22,0,0,0-.49.18.93.93,0,0,0-.08-1.32.51.51,0,0,0-.23-.15Z"/><path class="cls-32" d="M207.85,78.28a.82.82,0,1,0-1.15.12.82.82,0,0,0,1.15-.12Z"/><path class="cls-32" d="M206.45,78.05a1.87,1.87,0,0,0-.34-.49,1.48,1.48,0,0,0-.31-.25c.11-.11.21-.22.31-.34a5.33,5.33,0,0,0,.32-.46,1.64,1.64,0,0,0,.33.26,1.92,1.92,0,0,0,.41.19.82.82,0,0,0-.77.86.59.59,0,0,0,0,.23Z"/><path class="cls-31" d="M202.75,69.21a.8.8,0,0,0-.73.89.83.83,0,0,0,.9.73.81.81,0,0,0-.16-1.62Z"/><path class="cls-31" d="M203.57,70.36a2,2,0,0,0-.11.59,1.81,1.81,0,0,0,0,.4,3.62,3.62,0,0,0-.46,0,3.41,3.41,0,0,0-.54.1,1.84,1.84,0,0,0-.05-.41,2,2,0,0,0-.16-.43.82.82,0,0,0,1.15-.06.86.86,0,0,0,.13-.2Z"/><path class="cls-32" d="M207.18,70a.82.82,0,1,0,.12,1.15.82.82,0,0,0-.12-1.15Z"/><path class="cls-32" d="M206.94,71.4a1.91,1.91,0,0,0-.76.65,3.26,3.26,0,0,0-.33-.31,4.73,4.73,0,0,0-.46-.32,1.59,1.59,0,0,0,.25-.33,2.22,2.22,0,0,0,.2-.41.81.81,0,0,0,.85.77,1,1,0,0,0,.24,0Z"/><path class="cls-31" d="M198.65,71a.81.81,0,1,0,1.14-.12.81.81,0,0,0-1.14.12Z"/><path class="cls-31" d="M200.05,71.22a1.7,1.7,0,0,0,.34.5,1.87,1.87,0,0,0,.3.26,3.18,3.18,0,0,0-.3.33,3.46,3.46,0,0,0-.32.46,1.59,1.59,0,0,0-.33-.25,1.62,1.62,0,0,0-.42-.2.82.82,0,0,0,.78-.85A1,1,0,0,0,200.05,71.22Z"/><path class="cls-32" d="M204.11,80.79a.81.81,0,1,0-.9-.72.81.81,0,0,0,.9.72Z"/><path class="cls-32" d="M203.28,79.64a1.71,1.71,0,0,0,.11-.59,1.75,1.75,0,0,0,0-.4l.45,0a4.86,4.86,0,0,0,.55-.1,1.84,1.84,0,0,0,0,.41,1.59,1.59,0,0,0,.16.43.83.83,0,0,0-1.16.06,1.37,1.37,0,0,0-.13.2Z"/><path class="cls-31" d="M209.44,74.06a.81.81,0,0,0-.9-.72.8.8,0,0,0-.72.89.81.81,0,0,0,.89.73.82.82,0,0,0,.73-.89Z"/><path class="cls-31" d="M208.29,74.88a2,2,0,0,0-.59-.1,1.42,1.42,0,0,0-.41,0,2.26,2.26,0,0,0,0-.45,4.85,4.85,0,0,0-.09-.55,1.92,1.92,0,0,0,.41,0,2.23,2.23,0,0,0,.43-.16.81.81,0,0,0,.27,1.28Z"/><path class="cls-32" d="M205.86,71.74a3.89,3.89,0,1,0,.57,5.47,3.89,3.89,0,0,0-.57-5.47Z"/><path class="cls-31" d="M205,73.85a1.32,1.32,0,1,0,.2,1.87h0a1.33,1.33,0,0,0-.19-1.86Z"/><path class="cls-31" d="M204.87,71.93a.53.53,0,0,0-.43,1,.53.53,0,0,0,.7-.27h0a.52.52,0,0,0-.27-.69Z"/><path class="cls-31" d="M201.59,72.12a.7.7,0,1,0,1,.16h0A.7.7,0,0,0,201.59,72.12Z"/><path class="cls-31" d="M200,75.37a.58.58,0,0,0,.64.52.58.58,0,0,0,.51-.64.58.58,0,0,0-.64-.52h0A.59.59,0,0,0,200,75.37Z"/><path class="cls-31" d="M206.32,74.21a.35.35,0,1,1-.14.48h0a.35.35,0,0,1,.13-.48Z"/><path class="cls-31" d="M205.05,77.57a.46.46,0,0,0,.1-.64.46.46,0,0,0-.75.54.46.46,0,0,0,.64.1Z"/><path class="cls-31" d="M202.16,77.65a.84.84,0,0,0,1.1-.43.82.82,0,0,0-.42-1.09.83.83,0,0,0-.69,1.51Z"/><path class="cls-31" d="M230.49,61.5a.81.81,0,1,0-.12-1.15h0a.82.82,0,0,0,.12,1.15Z"/><path class="cls-31" d="M230.72,60.1a1.87,1.87,0,0,0,.49-.34,1.94,1.94,0,0,0,.26-.31,3.26,3.26,0,0,0,.33.31,3.76,3.76,0,0,0,.46.32,2,2,0,0,0-.25.33,2.17,2.17,0,0,0-.19.41.82.82,0,0,0-.86-.77A.69.69,0,0,0,230.72,60.1Z"/><path class="cls-32" d="M227.74,57.77a.93.93,0,1,0,.85-1h0A.92.92,0,0,0,227.74,57.77Z"/><path class="cls-32" d="M229.06,56.83a2.28,2.28,0,0,0,.68.13,2.38,2.38,0,0,0,.46,0c0,.17,0,.34,0,.5a4.66,4.66,0,0,0,.12.65,2,2,0,0,0-.48.06,2.05,2.05,0,0,0-.49.18,1,1,0,0,0-.08-1.33.91.91,0,0,0-.23-.15Z"/><path class="cls-32" d="M238.45,60.57a.81.81,0,1,0-1.14.11.8.8,0,0,0,1.14-.11Z"/><path class="cls-32" d="M237.06,60.33a2,2,0,0,0-.34-.49,2.42,2.42,0,0,0-.31-.25,3.08,3.08,0,0,0,.3-.33,3.46,3.46,0,0,0,.32-.46,1.59,1.59,0,0,0,.33.25,2,2,0,0,0,.42.2.8.8,0,0,0-.77.85.69.69,0,0,0,.05.24Z"/><path class="cls-31" d="M233.35,51.49a.81.81,0,0,0,.17,1.62.81.81,0,0,0,.73-.88.82.82,0,0,0-.89-.74Z"/><path class="cls-31" d="M234.18,52.65a1.71,1.71,0,0,0-.11.59,2.69,2.69,0,0,0,0,.4,3.46,3.46,0,0,0-.45,0,3.53,3.53,0,0,0-.55.1,1.51,1.51,0,0,0,0-.42,2.19,2.19,0,0,0-.15-.43.81.81,0,0,0,1.15-.06.8.8,0,0,0,.13-.19Z"/><path class="cls-32" d="M237.78,52.29a.8.8,0,0,0-1.14.12.81.81,0,0,0,.12,1.14.8.8,0,0,0,1.14-.12.81.81,0,0,0-.11-1.14Z"/><path class="cls-32" d="M237.55,53.69a1.82,1.82,0,0,0-.76.64q-.16-.16-.33-.3a3.46,3.46,0,0,0-.46-.32,2,2,0,0,0,.25-.33,1.59,1.59,0,0,0,.19-.42.82.82,0,0,0,.86.77,1,1,0,0,0,.24,0Z"/><path class="cls-31" d="M229.26,53.28a.81.81,0,0,0,1.26,1,.81.81,0,0,0-.12-1.14.8.8,0,0,0-1.14.12Z"/><path class="cls-31" d="M230.65,53.5A1.78,1.78,0,0,0,231,54a1.81,1.81,0,0,0,.3.25,5.07,5.07,0,0,0-.63.8,1.35,1.35,0,0,0-.32-.26,2,2,0,0,0-.42-.19.82.82,0,0,0,.78-.86A1.14,1.14,0,0,0,230.65,53.5Z"/><path class="cls-32" d="M234.71,63.08a.81.81,0,1,0-.17-1.62.8.8,0,0,0-.72.89.82.82,0,0,0,.89.73Z"/><path class="cls-32" d="M233.89,61.92a1.71,1.71,0,0,0,.11-.59,2.8,2.8,0,0,0,0-.4,3.39,3.39,0,0,0,.45,0,3.53,3.53,0,0,0,.55-.1,1.51,1.51,0,0,0,.05.42,2.19,2.19,0,0,0,.15.43.81.81,0,0,0-1.15.06.8.8,0,0,0-.13.19Z"/><path class="cls-31" d="M240,56.35a.81.81,0,1,0-.72.89.81.81,0,0,0,.72-.89Z"/><path class="cls-31" d="M238.89,57.17a1.67,1.67,0,0,0-.59-.11,2.69,2.69,0,0,0-.4,0,3.39,3.39,0,0,0,0-.45,3.53,3.53,0,0,0-.1-.55,1.51,1.51,0,0,0,.42-.05,1.69,1.69,0,0,0,.43-.15.76.76,0,0,0-.2.62A.79.79,0,0,0,238.89,57.17Z"/><path class="cls-32" d="M236.47,54a3.88,3.88,0,1,0,.56,5.46,3.89,3.89,0,0,0-.56-5.46Z"/><path class="cls-31" d="M235.56,56.14a1.33,1.33,0,1,0,.2,1.86h0a1.33,1.33,0,0,0-.19-1.86Z"/><path class="cls-31" d="M235.48,54.22a.52.52,0,1,0-.43,1,.52.52,0,0,0,.69-.26h0a.51.51,0,0,0-.26-.69Z"/><path class="cls-31" d="M232.2,54.41a.68.68,0,0,0-.16,1,.7.7,0,0,0,1.13-.81h0A.68.68,0,0,0,232.2,54.41Z"/><path class="cls-31" d="M230.6,57.66a.58.58,0,1,0,.51-.64h0A.57.57,0,0,0,230.6,57.66Z"/><path class="cls-31" d="M236.92,56.5a.36.36,0,0,1,.49.13.37.37,0,0,1-.14.49.36.36,0,0,1-.48-.14h0a.35.35,0,0,1,.13-.48Z"/><path class="cls-31" d="M235.65,59.86a.46.46,0,0,0-.54-.75.46.46,0,0,0,.54.75Z"/><path class="cls-31" d="M232.77,59.93a.83.83,0,0,0,.68-1.52.84.84,0,0,0-1.1.42.83.83,0,0,0,.41,1.1Z"/><path class="cls-31" d="M123.26,68.86a.81.81,0,0,0,1.15-.11.82.82,0,0,0-.12-1.15.81.81,0,0,0-1.14.12h0a.81.81,0,0,0,.12,1.14Z"/><path class="cls-31" d="M123.49,67.46a1.67,1.67,0,0,0,.5-.33,2.42,2.42,0,0,0,.25-.31c.11.1.22.21.33.3a3.55,3.55,0,0,0,.47.32,1.59,1.59,0,0,0-.25.33,2,2,0,0,0-.2.42.82.82,0,0,0-.86-.78Z"/><path class="cls-32" d="M120.51,65.14a.93.93,0,0,0,1,.85.94.94,0,0,0-.17-1.87h0A.94.94,0,0,0,120.51,65.14Z"/><path class="cls-32" d="M121.84,64.19a1.9,1.9,0,0,0,.67.13,2.49,2.49,0,0,0,.47,0,2.9,2.9,0,0,0,0,.51,4.5,4.5,0,0,0,.11.64,3.93,3.93,0,0,0-.48.06,2.22,2.22,0,0,0-.49.18.93.93,0,0,0-.07-1.32,1.14,1.14,0,0,0-.23-.15Z"/><path class="cls-32" d="M131.23,67.93a.81.81,0,1,0-1.15.12.82.82,0,0,0,1.15-.12Z"/><path class="cls-32" d="M129.83,67.7a1.66,1.66,0,0,0-.34-.49,1.26,1.26,0,0,0-.31-.25c.11-.11.21-.22.31-.34a3.65,3.65,0,0,0,.32-.45,2,2,0,0,0,.33.25,2.17,2.17,0,0,0,.41.19.82.82,0,0,0-.77.86,1,1,0,0,0,.05.24Z"/><path class="cls-31" d="M126.13,58.86a.81.81,0,1,0,.9.74.82.82,0,0,0-.9-.74Z"/><path class="cls-31" d="M127,60a2,2,0,0,0-.1.59,1.33,1.33,0,0,0,0,.4,2.27,2.27,0,0,0-.45,0,3.32,3.32,0,0,0-.55.09,1.84,1.84,0,0,0,0-.41,2,2,0,0,0-.16-.43.82.82,0,0,0,1.15-.06A.63.63,0,0,0,127,60Z"/><path class="cls-32" d="M130.56,59.65a.82.82,0,0,0-1.15.12.83.83,0,0,0,.12,1.15.82.82,0,0,0,1-1.27Z"/><path class="cls-32" d="M130.33,61.05a1.92,1.92,0,0,0-.76.65l-.34-.31a5.33,5.33,0,0,0-.46-.32,1.64,1.64,0,0,0,.26-.33,1.92,1.92,0,0,0,.19-.41.82.82,0,0,0,.86.77.59.59,0,0,0,.23-.05Z"/><path class="cls-31" d="M122,60.64a.82.82,0,1,0,1.15-.12.82.82,0,0,0-1.15.12Z"/><path class="cls-31" d="M123.43,60.87a1.75,1.75,0,0,0,.34.51,1.89,1.89,0,0,0,.31.25,3.26,3.26,0,0,0-.31.33,4.73,4.73,0,0,0-.32.46,1.59,1.59,0,0,0-.33-.25,2.22,2.22,0,0,0-.41-.2.81.81,0,0,0,.77-.85A.7.7,0,0,0,123.43,60.87Z"/><path class="cls-32" d="M127.49,70.44a.8.8,0,0,0,.72-.89.81.81,0,0,0-.89-.73.81.81,0,1,0,.17,1.62Z"/><path class="cls-32" d="M126.67,69.29a2,2,0,0,0,.1-.59,1.35,1.35,0,0,0,0-.4l.45,0a3.33,3.33,0,0,0,.55-.1,2,2,0,0,0,.05.42A2.14,2.14,0,0,0,128,69a.82.82,0,0,0-1.15.06.63.63,0,0,0-.13.2Z"/><path class="cls-31" d="M132.82,63.71a.81.81,0,0,0-1.62.17.81.81,0,1,0,1.62-.16Z"/><path class="cls-31" d="M131.67,64.54a1.71,1.71,0,0,0-.59-.11,1.33,1.33,0,0,0-.4,0c0-.15,0-.3,0-.45a4.86,4.86,0,0,0-.1-.55,1.84,1.84,0,0,0,.41-.05,2,2,0,0,0,.43-.16.84.84,0,0,0-.2.63A.82.82,0,0,0,131.67,64.54Z"/><path class="cls-32" d="M129.24,61.39a3.89,3.89,0,1,0,.57,5.47,3.9,3.9,0,0,0-.57-5.47Z"/><path class="cls-31" d="M128.34,63.51a1.32,1.32,0,1,0,.19,1.86h0a1.32,1.32,0,0,0-.19-1.86Z"/><path class="cls-31" d="M128.25,61.58a.52.52,0,1,0,.27.69h0a.52.52,0,0,0-.26-.69Z"/><path class="cls-31" d="M125,61.77a.7.7,0,0,0-.16,1,.7.7,0,1,0,1.13-.81h0A.7.7,0,0,0,125,61.77Z"/><path class="cls-31" d="M123.37,65a.58.58,0,1,0,.52-.64h0A.59.59,0,0,0,123.37,65Z"/><path class="cls-31" d="M129.7,63.86a.36.36,0,0,1,.48.14.35.35,0,0,1-.13.48.36.36,0,0,1-.49-.13h0a.36.36,0,0,1,.14-.48Z"/><path class="cls-31" d="M128.43,67.22a.46.46,0,1,0-.65-.1.47.47,0,0,0,.65.11Z"/><path class="cls-31" d="M125.55,67.3a.82.82,0,0,0,1.09-.42.83.83,0,0,0-.42-1.1.83.83,0,0,0-.68,1.51Z"/><path class="cls-31" d="M100.7,103.79a1.49,1.49,0,1,0-.21-2.09h0a1.47,1.47,0,0,0,.21,2.08Z"/><path class="cls-31" d="M101.12,101.24a3,3,0,0,0,.9-.62,3,3,0,0,0,.46-.56c.2.19.4.38.61.55a6.14,6.14,0,0,0,.85.59,3.82,3.82,0,0,0-.46.6,3.49,3.49,0,0,0-.35.76,1.49,1.49,0,0,0-1.57-1.41A1.64,1.64,0,0,0,101.12,101.24Z"/><path class="cls-32" d="M95.69,97a1.71,1.71,0,1,0,1.54-1.85h0A1.69,1.69,0,0,0,95.69,97Z"/><path class="cls-32" d="M98.1,95.27a4,4,0,0,0,2.08.16c0,.31,0,.62,0,.93a7.88,7.88,0,0,0,.21,1.18,3.57,3.57,0,0,0-.87.1,4.38,4.38,0,0,0-.9.33,1.71,1.71,0,0,0-.14-2.42,1.68,1.68,0,0,0-.42-.27Z"/><path class="cls-32" d="M115.23,102.09a1.49,1.49,0,0,0-2.31-1.87,1.49,1.49,0,1,0,2.31,1.87Z"/><path class="cls-32" d="M112.68,101.66a3.32,3.32,0,0,0-.62-.89,2.81,2.81,0,0,0-.56-.46,8,8,0,0,0,.56-.6,7.85,7.85,0,0,0,.58-.84,3.82,3.82,0,0,0,.6.46,3.49,3.49,0,0,0,.76.35,1.49,1.49,0,0,0-1.4,1.57,1.31,1.31,0,0,0,.08.43Z"/><path class="cls-31" d="M105.93,85.54a1.49,1.49,0,0,0,.31,3,1.49,1.49,0,0,0-.29-3Z"/><path class="cls-31" d="M107.44,87.65a3.42,3.42,0,0,0-.14,1.8,5.84,5.84,0,0,0-.83,0,7,7,0,0,0-1,.18,3.36,3.36,0,0,0-.38-1.54A1.5,1.5,0,0,0,107.2,88a2.71,2.71,0,0,0,.24-.35Z"/><path class="cls-32" d="M114,87a1.49,1.49,0,1,0,.22,2.09A1.48,1.48,0,0,0,114,87Z"/><path class="cls-32" d="M113.59,89.54a3.46,3.46,0,0,0-1.39,1.18,8.09,8.09,0,0,0-.61-.56,7.33,7.33,0,0,0-.84-.58,3,3,0,0,0,.47-.6,4.26,4.26,0,0,0,.35-.75,1.49,1.49,0,0,0,1.56,1.4,1.57,1.57,0,0,0,.43-.09Z"/><path class="cls-31" d="M98.45,88.79a1.5,1.5,0,0,0,.22,2.09,1.49,1.49,0,1,0-.21-2.09Z"/><path class="cls-31" d="M101,89.21a3.42,3.42,0,0,0,.63.92,3.51,3.51,0,0,0,.56.46A7.12,7.12,0,0,0,101,92a2.66,2.66,0,0,0-.6-.46,3.45,3.45,0,0,0-.75-.36,1.49,1.49,0,0,0,1.41-1.56A1.4,1.4,0,0,0,101,89.21Z"/><path class="cls-32" d="M108.41,106.67a1.48,1.48,0,1,0-1.63-1.32,1.48,1.48,0,0,0,1.63,1.32Z"/><path class="cls-32" d="M106.91,104.56a3.22,3.22,0,0,0,.2-1.07,4.49,4.49,0,0,0-.06-.73,7.5,7.5,0,0,0,.82,0,5.78,5.78,0,0,0,1-.18,3.22,3.22,0,0,0,.08.76,3.66,3.66,0,0,0,.29.78,1.49,1.49,0,0,0-2.1.11,1.41,1.41,0,0,0-.24.36Z"/><path class="cls-31" d="M118.13,94.39A1.48,1.48,0,1,0,116.81,96a1.48,1.48,0,0,0,1.32-1.64Z"/><path class="cls-31" d="M116,95.9a3,3,0,0,0-1.07-.2,3.08,3.08,0,0,0-.74.06,5.57,5.57,0,0,0,0-.82,8.54,8.54,0,0,0-.18-1,3.22,3.22,0,0,0,.76-.09,3.63,3.63,0,0,0,.78-.28A1.49,1.49,0,0,0,116,95.9Z"/><path class="cls-32" d="M111.61,90.16a7.09,7.09,0,1,0,1,10,7.11,7.11,0,0,0-1-10Z"/><path class="cls-31" d="M110,94a2.41,2.41,0,1,0,.35,3.4h0A2.41,2.41,0,0,0,110,94Z"/><path class="cls-31" d="M109.81,90.51a1,1,0,1,0,.48,1.26h0a1,1,0,0,0-.48-1.26Z"/><path class="cls-31" d="M103.82,90.86a1.26,1.26,0,1,0,1.77.28h0A1.28,1.28,0,0,0,103.82,90.86Z"/><path class="cls-31" d="M100.9,96.79a1.06,1.06,0,1,0,.94-1.17h0A1.06,1.06,0,0,0,100.9,96.79Z"/><path class="cls-31" d="M112.44,94.67a.63.63,0,0,1,.88.25.64.64,0,0,1-.24.88.66.66,0,0,1-.89-.25h0a.65.65,0,0,1,.25-.88Z"/><path class="cls-31" d="M110.12,100.8a.84.84,0,1,0-1.18-.19.85.85,0,0,0,1.18.19Z"/><path class="cls-31" d="M104.87,100.94a1.52,1.52,0,1,0-.77-2,1.52,1.52,0,0,0,.77,2Z"/><path class="cls-31" d="M108.19,158a1.49,1.49,0,1,0-.21-2.09h0a1.49,1.49,0,0,0,.21,2.09Z"/><path class="cls-31" d="M108.61,155.4a3.14,3.14,0,0,0,.9-.62,3.58,3.58,0,0,0,.47-.56,7.82,7.82,0,0,0,.6.55,6.14,6.14,0,0,0,.85.59,3.41,3.41,0,0,0-.46.6,3.49,3.49,0,0,0-.35.76,1.49,1.49,0,0,0-1.57-1.41A1.64,1.64,0,0,0,108.61,155.4Z"/><path class="cls-32" d="M103.18,151.16a1.71,1.71,0,1,0,1.55-1.86h0A1.69,1.69,0,0,0,103.18,151.16Z"/><path class="cls-32" d="M105.59,149.43a4,4,0,0,0,2.08.16c0,.31,0,.62,0,.93a7.88,7.88,0,0,0,.21,1.18,3.57,3.57,0,0,0-.87.1,3.87,3.87,0,0,0-.9.33,1.71,1.71,0,0,0-.14-2.42,1.51,1.51,0,0,0-.42-.27Z"/><path class="cls-32" d="M122.72,156.25a1.48,1.48,0,1,0-2.09.22,1.48,1.48,0,0,0,2.09-.22Z"/><path class="cls-32" d="M120.17,155.82a3,3,0,0,0-.62-.89,2.81,2.81,0,0,0-.56-.46,6.32,6.32,0,0,0,.56-.6,7.85,7.85,0,0,0,.58-.84,4.35,4.35,0,0,0,.6.46,3.49,3.49,0,0,0,.76.35,1.49,1.49,0,0,0-1.4,1.57,1.31,1.31,0,0,0,.08.43Z"/><path class="cls-31" d="M113.42,139.7a1.49,1.49,0,1,0,1.64,1.35,1.49,1.49,0,0,0-1.64-1.35Z"/><path class="cls-31" d="M114.93,141.81a3.42,3.42,0,0,0-.14,1.8,7.11,7.11,0,0,0-1.83.22,3.22,3.22,0,0,0-.09-.76,3.63,3.63,0,0,0-.28-.78,1.49,1.49,0,0,0,2.1-.11,1.41,1.41,0,0,0,.24-.36Z"/><path class="cls-32" d="M121.5,141.15a1.48,1.48,0,0,0-2.09.22,1.49,1.49,0,1,0,2.31,1.87,1.48,1.48,0,0,0-.22-2.09Z"/><path class="cls-32" d="M121.08,143.7a3.46,3.46,0,0,0-1.39,1.18,8.09,8.09,0,0,0-.61-.56,6.25,6.25,0,0,0-.84-.58,3,3,0,0,0,.47-.6,4,4,0,0,0,.35-.76,1.48,1.48,0,0,0,2,1.32Z"/><path class="cls-31" d="M105.94,143a1.5,1.5,0,0,0,.22,2.09A1.49,1.49,0,1,0,106,143Z"/><path class="cls-31" d="M108.49,143.37a3.42,3.42,0,0,0,.63.92,3.51,3.51,0,0,0,.56.46,6.42,6.42,0,0,0-.56.61,8,8,0,0,0-.59.84,3,3,0,0,0-.6-.47,4,4,0,0,0-.75-.35,1.49,1.49,0,0,0,1.41-1.56A1.4,1.4,0,0,0,108.49,143.37Z"/><path class="cls-32" d="M115.9,160.83a1.48,1.48,0,1,0-1.63-1.32,1.48,1.48,0,0,0,1.63,1.32Z"/><path class="cls-32" d="M114.4,158.72a3.22,3.22,0,0,0,.2-1.07,3,3,0,0,0-.06-.73,7.5,7.5,0,0,0,.82,0,5.78,5.78,0,0,0,1-.18,3.84,3.84,0,0,0,.08.76,4.3,4.3,0,0,0,.29.78,1.49,1.49,0,0,0-2.1.11,1.41,1.41,0,0,0-.24.36Z"/><path class="cls-31" d="M125.63,148.55a1.49,1.49,0,1,0-1.33,1.64,1.5,1.5,0,0,0,1.33-1.64Z"/><path class="cls-31" d="M123.52,150.06a3.42,3.42,0,0,0-1.8-.14,7.69,7.69,0,0,0,0-.83,8.75,8.75,0,0,0-.18-1,3.22,3.22,0,0,0,.76-.09,3.63,3.63,0,0,0,.78-.28,1.48,1.48,0,0,0-.37,1.14A1.51,1.51,0,0,0,123.52,150.06Z"/><path class="cls-32" d="M119.1,144.32a7.09,7.09,0,1,0,1,10,7.11,7.11,0,0,0-1-10Z"/><path class="cls-31" d="M117.45,148.18a2.41,2.41,0,1,0,.35,3.4h0a2.4,2.4,0,0,0-.35-3.39Z"/><path class="cls-31" d="M117.3,144.67a1,1,0,1,0,.48,1.26h0a1,1,0,0,0-.48-1.26Z"/><path class="cls-31" d="M111.31,145a1.26,1.26,0,1,0,1.77.28h0A1.27,1.27,0,0,0,111.31,145Z"/><path class="cls-31" d="M108.39,151a1.06,1.06,0,1,0,.94-1.17h0A1.06,1.06,0,0,0,108.39,151Z"/><path class="cls-31" d="M119.93,148.83a.65.65,0,0,1,.89.24.66.66,0,0,1-.25.89.65.65,0,0,1-.88-.25h0a.65.65,0,0,1,.25-.88Z"/><path class="cls-31" d="M117.62,155a.85.85,0,0,0,.18-1.18.84.84,0,1,0-.19,1.18Z"/><path class="cls-31" d="M112.36,155.1a1.52,1.52,0,1,0-.77-2,1.52,1.52,0,0,0,.77,2Z"/></g></g></svg>