<svg xmlns="http://www.w3.org/2000/svg" viewBox="0 0 406.56 406.56"><defs><style>.cls-1,.cls-10{fill:#60629a;}.cls-2{fill:#3a3c6c;}.cls-10,.cls-11,.cls-13,.cls-14,.cls-2,.cls-3,.cls-4,.cls-5,.cls-6,.cls-7,.cls-8,.cls-9{fill-rule:evenodd;}.cls-3{fill:#f1f2ff;}.cls-4{fill:#fff;}.cls-12,.cls-5{fill:#2e3458;}.cls-6{fill:#d77f7f;}.cls-7{fill:#eaab9f;}.cls-8{fill:#e0998f;}.cls-9{fill:#cf4970;}.cls-11{fill:#eec1b8;}.cls-13{fill:#96c042;}.cls-14,.cls-15{fill:#bdd95b;}</style></defs><title>Asset 1</title><g id="Layer_2" data-name="Layer 2"><g id="OBJECTS"><circle class="cls-1" cx="203.28" cy="203.28" r="203.28" transform="translate(-84.2 203.28) rotate(-45)"/><path class="cls-2" d="M372.24,316.34a203.57,203.57,0,0,1-229.92,80.92C138.67,370,137.18,330.2,141,293c-12.8.79-24.21-1.11-32.58-6.69-14-3.25-24.75-15.27-26.13-30.94-1.78-20.13,12.63-38.67,32.18-41.42a33.88,33.88,0,0,1,14.64,1.11c20.71-7.51,48.72-12.88,81.47-15.36l-.07-.92c-1.19.12-2.08.19-2.61.23-37.41-9.4-42.71-53.09-41.55-84.59a30.12,30.12,0,0,1-13-7.16C135.09,98.1,137,78.91,137,78.84l1,.08c0,.06-1.61,16.57,13.1,25.91-17.71-21-4.43-63,13.42-43,7.42-5.09,80.86-45.22,100.47-3.43.3-3.36.41-17-17.05-23.44l.34-.93c17.39,6.37,18,19.8,17.73,24,1.34-1.8,5.39-5.5,15.63-4.36l-.1,1c-11-1.22-14.34,3.22-15,4.41,26.86-4.11,18.17,31,12.33,51.86h0l.41,0h.09l.39,0,.09,0,.39.07h.09l.4.09h0l.37.11.08,0a2.65,2.65,0,0,1,.37.12l.09,0,.36.13.09,0,.36.16.08,0,.34.17,0,0,.36.2.07,0,.34.21.07,0a4,4,0,0,1,.34.23l.06,0,.33.25.05,0c.1.09.21.17.3.26l0,0,.31.29.06.06.29.3.06.07.28.32.05.06.28.36h0l.27.38,0,.06.25.38,0,.09c.08.13.15.26.22.4l.05.08c.07.14.15.28.22.43l0,.06c.07.14.14.28.2.43l0,.06c.07.15.13.31.19.46l0,.1c.05.15.11.31.16.47l0,.1a4.91,4.91,0,0,1,.15.51l0,.08c0,.17.09.35.13.52v0l.12.55,0,.1.09.56,0,.11c0,.19.06.38.08.58v.11h0v0h0l0,.35v.08h0v0h0v.07h0v0h0v.06h0v0h0v0h0v0h0V123h0v0h0c0,.6,0,1.23,0,1.88h0c0,.22,0,.44,0,.67h0v0h0v0h0v0h0v0h0c0,.23-.05.46-.07.69h0l0,.18h0c0,.21,0,.42-.08.63h0v.07h0l-.09.56h0l0,.15h0l-.12.6h0l0,.1h0c0,.17-.09.35-.13.52h0l0,.1h0c-.05.2-.11.39-.17.59h0l0,.13h0l-.15.48h0l0,.08h0c-.07.19-.13.37-.2.54h0l-.05.11h0c-.06.16-.12.31-.19.47h0l0,0h0c-.07.17-.15.34-.22.5h0l-.05.1v0l-.21.43-.07.13-.23.43h0l-.05.1h0c-.08.15-.17.3-.26.44h0l0,0h0l-.25.39h0l-.06.09h0l-.27.39h0l-.05.07h0L285,136h0l-.06.07h0l-.3.36h0l-.07.07h0l-.29.33h0l0,0h0l-.33.35h0l-.07.07h0l-.31.3h0l0,0h0l-.33.3h0l-.09.08h0c-.11.1-.22.2-.34.29h0l-.05,0h0l-.32.26h0l-.09.07h0l-.34.26h0l0,0h0l-.32.23h0l-.09.06h0l-.34.22h0l-.1.07h0l-.3.19h0l-.07,0h0l-.33.2h0l-.12.07h0l-.27.15h0l-.1.05h0l-.33.17h0l-.11.05H279l-.24.12h0l-.16.08-.26.12h0l-.16.07h0l-.3.14h0l-.13.06-.24.1h0l-.15.06h0l-.29.12h0l-.16.06-.21.08-.18.06h0l-.23.07h0l-.2.06h0l-.1,0h-.07l-.21.07h-.13l-.09,0-.22.07h0l-.1,0h-.1l-.21.06h-.09l-.08,0-.23.06h0c-1.16,6.42-3.12,20.77-3.37,45.25,3.86-1.35,6.2-2,6.2-2l14-3.8s11.44,8.45,20.15,24.91c0,0,7.62,1.23,6.06,9.08a.59.59,0,0,1,0,.13c16.79,5.72,26.6,14.09,31.62,24.46,8.85,13,16,34.52,20.37,58.15C370.33,304.69,371.34,310.55,372.24,316.34Z"/><path class="cls-3" d="M224.84,226l-9.27-46c-37.65-5.48-179.88,47.25-129.39,90.45C116.32,296.29,195.22,258.94,224.84,226Z"/><path class="cls-4" d="M188.54,187.25l-53.25,24.82c-19.51,50.25-12.71,140.25-2.89,181.79a203.76,203.76,0,0,0,172.66-14.58c1-76.56,71.39-165.79-12.14-187.24l-44.64-11.77S216.76,199.5,188.54,187.25Z"/><path class="cls-3" d="M220.25,226.72c2.12,71.1,67.27,84.11,38.5,150.11h-18.1c12.28-63.38-56.23-67.79-32.83-150.36-2.7-2.45-3.56-6-4.15-8,3.88-4.26,7.69-8.25,11-12l4.81,4a38.38,38.38,0,0,1,6.44,9.08C225.14,223.47,220.25,226.72,220.25,226.72Z"/><path class="cls-3" d="M171.76,404.13a204.69,204.69,0,0,0,31.52,2.43,202.26,202.26,0,0,0,101.27-27c-1.85-8.45-3.76-16.73-3.76-16.73s-83.83,15.37-148.23.84l-5.41,3s-4,11.78,15,12.34C162.2,379.05,164.32,392.46,171.76,404.13Z"/><path class="cls-3" d="M188.54,187.25l-53.25,24.82c-6.33,16.29-9.88,36.76-11.47,58.41,11.51-4.74,39.65-16.91,57.52-29.74C204.25,224.29,239,217.11,239,217.11s28.73,4.91,34.4.91c3.07-2.16,6.64-16.23,9.26-28.69l-34.36-9.06S216.76,199.5,188.54,187.25Z"/><path class="cls-3" d="M248.86,189.33s-9.67,16-31.78,19.54c-4.29,5.28-9.47,11.06-14.39,17.39a4.24,4.24,0,0,1-6.59.16c-4.44-5.16-9.28-19.39-4.71-33.52,0,0,2.83,14.51,25.69,16,7,4.53,10.45,9.71,14.41,16.53a4.27,4.27,0,0,0,6.12,1.35C244.9,221.66,256.48,207,248.86,189.33Z"/><path class="cls-3" d="M270.21,395.28a202,202,0,0,0,34.85-16c.9-70.23,56.45-145.95,1.13-174.54C295.53,208,286.58,215,281.74,228.1,265.46,272.21,268.87,368.22,270.21,395.28Z"/><path class="cls-5" d="M142.08,99.37a30.81,30.81,0,0,1-16-7c-18.74-8.24-17.87-27.5-17.87-27.57l1,0c0,.06-.75,16.63,14.42,25.2-18.77-20-7.7-62.71,11.17-43.62C141.91,41,213.17-2.9,234.92,37.82c.13-3.37-.48-17-18.24-22.52l.29-1c17.7,5.46,19,18.84,18.95,23,1.25-1.87,5.1-5.77,15.39-5.17l-.06,1c-11-.65-14.15,4-14.78,5.18,37.5-7.74,8.56,65.9,12.65,66.1Z"/><path class="cls-2" d="M187.64,24.26c10.36-2.39,18.91-2.53,19.11-.32s-8.05,5.94-18.4,8.33-18.91,2.53-19.11.32S177.28,26.65,187.64,24.26Z"/><path class="cls-6" d="M249.2,117.36s-4.42,20.62-.25,72l-.09,0c-16.24,15.24-34.15,17.16-34.15,17.16C193,205.19,189.5,192,189.5,192h0c-2-12.4-4.37-30.18-4.14-41.93C185.75,130.4,249.2,117.36,249.2,117.36Z"/><path class="cls-7" d="M139.56,85.8c-1.28,31,2.24,86.85,45.7,95.41,6.06-.73,58.78-8.11,58-58.69,0,0,18.26-1,18.79-18.36.56-17.81-16.18-18.19-22.91-7.26,0,0-6.25-4.75-9.64-16.12C229.53,80.78,196.18,96.45,139.56,85.8Z"/><path class="cls-8" d="M191.55,180.15c15.6-3.25,52.36-15.33,51.74-57.63,0,0,18.26-1,18.79-18.36.56-17.81-16.18-18.19-22.91-7.26,0,0-6.25-4.75-9.64-16.12,0,0-18.51,8.69-51.34,8.73a327.28,327.28,0,0,0,4,34.73c-14.82,1.27-9.33,18,3.42,14.16C185.61,138.4,187.59,161.76,191.55,180.15Z"/><path class="cls-6" d="M243.29,122.52s18.26-1,18.79-18.36a21.47,21.47,0,0,0-.53-5.79c-7.28-4.22-16.1,3.55-16.1,3.55,7.82-2,7.3,11.15-2.21,12.52Z"/><path class="cls-6" d="M239.17,96.9s-6.25-4.75-9.64-16.12c0,0-33.35,15.67-90,5,0,0,40.15,15.38,86.21,1.94C225.77,87.74,228.61,93.79,239.17,96.9Z"/><path class="cls-5" d="M134.22,81.06s38,15.42,70.88,10.55C205.1,91.61,180,109.2,134.22,81.06Z"/><path class="cls-5" d="M143.49,106.29s16.18.41,25.26-8a8.52,8.52,0,0,1,1,5.72s-9.81,7.32-26.27,2.23Zm26.37-8.94s1.7,4,.2,7C170.06,104.33,174.79,101.07,169.86,97.35Z"/><path class="cls-5" d="M222.34,97.73s-15.42,5.55-26.34.47a8.44,8.44,0,0,0,.07,4.54A10.89,10.89,0,0,1,194.71,97c-2.83,3.59.31,5.81,1.64,6.54.06.14.12.28.19.42S207.88,107.84,222.34,97.73Z"/><path class="cls-5" d="M198.22,118.17s9.29-5.2,17.69-1.56C213.89,112.48,204.53,107.83,198.22,118.17Z"/><path class="cls-5" d="M169.44,120.7s-10.05-3.48-17.69,1.56C153,117.85,161.42,111.63,169.44,120.7Z"/><path class="cls-5" d="M173.65,129.36s-.63,11.3,13.45,8.22C185.07,140.46,170.31,143.41,173.65,129.36Z"/><path class="cls-6" d="M188,132.25c1.89-.16,3.5.63,3.6,1.77a1.62,1.62,0,0,1-.55,1.28,2.74,2.74,0,0,0-2.42-.8c-1.34.12-2.37.86-2.34,1.67-.87-.31-1.47-.86-1.53-1.54C184.67,133.48,186.12,132.42,188,132.25Z"/><path class="cls-6" d="M185.65,172a24.78,24.78,0,0,0,17.34-7S198.8,176.9,185.65,172Z"/><path class="cls-6" d="M178.09,149.06c13.65.83,19.06-7.87,23.51,4.44,5.9,16.36-27.57,19.46-27,10.19a38.68,38.68,0,0,0-.59-9.61C173.53,151.58,175.5,148.9,178.09,149.06Z"/><path class="cls-4" d="M178.09,149.06c9.35.57,14.84-3.34,18.79-1.89a2,2,0,0,1,.08.42c.24,2.76-4.34,5.66-10.24,6.48s-10.87-.76-11.11-3.52a2.49,2.49,0,0,1,0-.72A3.66,3.66,0,0,1,178.09,149.06Z"/><path class="cls-9" d="M202.21,158.42c-.9,6.49-9.08,9.91-16.3,10.38a12.72,12.72,0,0,1,11.48-10.88A12.9,12.9,0,0,1,202.21,158.42Z"/><path class="cls-4" d="M196.83,165.63c-5.76,3.45-14.62,4.11-19.22,2.06,1.7-1.76,5.08-3.26,9-3.81C191.14,163.26,195.09,164,196.83,165.63Z"/><path class="cls-10" d="M221.92,226.72c8,71.1,74.22,84.11,50.91,150.11h-18.1c7-63.38-61.83-67.79-45.26-150.36-2.9-2.45-4.06-6-4.81-8,3.53-4.26,7-8.25,10.05-12l5.14,4a43.26,43.26,0,0,1,7.19,9.08C226.55,223.47,221.92,226.72,221.92,226.72Z"/><path class="cls-5" d="M274.68,331.68c4.19,12.54,4.63,26.8-1.85,45.15h-18.1c1.65-14.89-.88-26.52-5.51-36.68C257.74,340.53,267.68,339,274.68,331.68Z"/><path class="cls-4" d="M281.74,228.1s1.86-25.51,29.05-24.43c16.46.66,32,32,40.77,68.84,10.72,45,17.58,91.39-1.76,97.13-15.26,4.53-33-9.59-48.92-58.81C288.82,273.43,280.34,231.17,281.74,228.1Z"/><path class="cls-3" d="M361.77,332c.62,10.17.17,19-1.81,25.72a42.09,42.09,0,0,1-11.47,12.85c-13.2,3.56-28.16-6.85-42.09-41.71a45.69,45.69,0,0,1,22.47-10.77C343.85,315.59,356.65,321.51,361.77,332Z"/><path class="cls-4" d="M328.87,320.1c19.48-.47,35.27,12.79,35.27,29.61S348.35,380.56,328.87,381s-35.27-12.78-35.27-29.61S309.39,320.57,328.87,320.1Z"/><path class="cls-5" d="M134.6,260.32l44.16.79L178,271.44q-22.64-.4-45.26-.85l1.61-10.28Zm43.6,1.3-43.38-.77-1.45,9.22,44.16.83Z"/><path class="cls-7" d="M212.07,351.06,180,349.26l4.74,46.47a149.54,149.54,0,0,0,30.19-10Z"/><path class="cls-7" d="M212.07,351.06c55.37-1.06,129-40.71,141.72-8,21.06,54.26-126.75,45.82-138.9,42.67Z"/><path class="cls-6" d="M317.46,331c31.13,3.4,37,35.73,8.47,49.19,19.56-5.91,32.78-15.85,29.38-32.11a31.68,31.68,0,0,0-1.52-5C349,330.67,335.45,328.66,317.46,331Z"/><path class="cls-6" d="M180,349.26l-31.37,10c-1.79.57-5,11.19,5.64,11.19a53.3,53.3,0,0,0,11.32,25.29H184.7Z"/><path class="cls-11" d="M307,334.13c11-1.19,19.91,0,19.91,2.67s-8.91,5.78-19.91,7-19.91,0-19.91-2.68S296,335.31,307,334.13Z"/><path class="cls-4" d="M248.67,189.29s-11.85,13.65-34,17.2c7,4.53,10.45,9.72,14.41,16.53a4.24,4.24,0,0,0,6.11,1.35C242.52,219.29,254.19,204.76,248.67,189.29Z"/><path class="cls-4" d="M189,190.52s2.83,14.51,25.69,16c-4.29,5.28-9.48,11.06-14.39,17.4a4.27,4.27,0,0,1-6.6.16C189.29,218.88,184.45,204.66,189,190.52Z"/><path class="cls-4" d="M92.74,201c19.38-3.75,37.38,9.42,40.2,29.43s-10.61,39.27-30,43S65.56,264,62.74,244,73.35,204.73,92.74,201Z"/><path class="cls-7" d="M225,178.31l7.24,34C160,226.08,98.33,295.06,73.15,246.23,56.24,213.45,125.12,184.33,225,178.31Z"/><path class="cls-6" d="M117.33,260c-19.19,6.39-34.43,5.16-44.18-13.76-6.31-12.22-.68-23.93,14-34.12-5.75,10.25-6.12,22.43.21,32.43S105.13,260,117.33,260Z"/><path class="cls-7" d="M232.22,212.32,264.29,210l-10.65-45.47A149.48,149.48,0,0,0,225,178.31Z"/><path class="cls-7" d="M243.3,177.29l10.34-12.77,13.8-4.52s11.87,7.84,21.42,23.83c0,0,7.67.83,6.52,8.75s-29.41,17-38.93,12.86S243.3,177.29,243.3,177.29Z"/><path class="cls-7" d="M243.61,202.88l.62,8.57s14.59,1.44,26.66,6.28a4.57,4.57,0,0,0,4.76-.78c1.87-1.58,4.58-3.92,6.75-5.93a4.6,4.6,0,0,0,1-5.42A143.16,143.16,0,0,1,276.63,189a4.68,4.68,0,0,0-7.15-2.45c-3.14,2.21-5.79,6.42-3,14.33C266.47,200.83,255,188.83,243.61,202.88Z"/><path class="cls-6" d="M265.79,192.12a7.66,7.66,0,0,1-4.27-5.13,23.41,23.41,0,0,1-10.29-11.15s.86,10.41-12.22,19.74a53.84,53.84,0,0,1,12.31,1.88c8.34-3.2,15.19,3.94,15.19,3.94C265.13,197.46,265.09,194.43,265.79,192.12Z"/><path class="cls-4" d="M283.45,206c-1.1-2.33-2.68-5.75-4.13-9.3-1-2.51-2-5.08-2.7-7.37a4.31,4.31,0,0,0-1.05-1.81,4.45,4.45,0,0,0-5.79-.54,9.26,9.26,0,0,0-3.64,4.92c-.7,2.28-.67,5.27.7,9.18l.3.85-.63-.65a16.82,16.82,0,0,0-9.54-4.66l0-.42a17,17,0,0,1,9.26,4.25,14.51,14.51,0,0,1-.46-8.67,9.68,9.68,0,0,1,3.8-5.13,4.93,4.93,0,0,1,2.11-.85,5,5,0,0,1,4.2,1.44,4.91,4.91,0,0,1,1.15,2c.7,2.28,1.66,4.84,2.68,7.33,1.45,3.55,3,7,4.12,9.29Z"/><path class="cls-11" d="M129.49,199c1.51,2.39-6.48,8.36-17.86,13.33S89.82,219.37,88.31,217s6.47-8.36,17.85-13.33S128,196.58,129.49,199Z"/><path class="cls-6" d="M229.54,349.64Q234.72,349,240,348c-4.14,3.14-6.42,10.86-5.34,19.9,1.11,9.25,5.4,17.14,10.45,20.12-3.31-.08-6.43-.2-9.35-.34C225.55,381,222.11,357.88,229.54,349.64Z"/><path class="cls-6" d="M235.29,349.77a16.61,16.61,0,1,1-16.62,16.61A16.61,16.61,0,0,1,235.29,349.77Z"/><path class="cls-5" d="M240.64,347.51c-4.73,2.77-7.75,10.85-7.1,20.39.67,9.89,5.07,18.22,10.44,20.67C221.26,397.49,216.59,339.2,240.64,347.51Z"/><circle class="cls-12" cx="231.52" cy="364.56" r="16.61" transform="translate(-189.97 270.48) rotate(-45)"/><path class="cls-4" d="M231.51,376.66a12.1,12.1,0,1,0-12.09-12.1A12.12,12.12,0,0,0,231.51,376.66Z"/><path class="cls-3" d="M220.18,364.81a12.1,12.1,0,0,1,23.33-1.8,12.1,12.1,0,0,0-24.09,1.55v.27a11.94,11.94,0,0,0,.67,3.7A11.32,11.32,0,0,1,220,367,11.92,11.92,0,0,1,220.18,364.81Z"/><path class="cls-9" d="M232,362.13a2.42,2.42,0,0,1,.95.39l3.45-2.82.87,1.06-3.45,2.82a2.45,2.45,0,0,1,.2,1,2.48,2.48,0,1,1-3.39-2.3l-.64-6.63,1.37-.13Z"/><path class="cls-4" d="M229.47,347.58a15.59,15.59,0,1,1-11,4.56,15.54,15.54,0,0,1,11-4.56Zm10.68,4.91a15.11,15.11,0,1,0,4.42,10.68A15.07,15.07,0,0,0,240.15,352.49Z"/><path class="cls-13" d="M333,84.52a3.21,3.21,0,1,0-.47-4.51A3.2,3.2,0,0,0,333,84.52Z"/><path class="cls-13" d="M333.91,79a6.94,6.94,0,0,0,1.94-1.33,7.42,7.42,0,0,0,1-1.22,16.64,16.64,0,0,0,1.31,1.2A14.67,14.67,0,0,0,340,78.92a7.44,7.44,0,0,0-1,1.3,7.64,7.64,0,0,0-.76,1.63A3.22,3.22,0,0,0,333.91,79Z"/><path class="cls-14" d="M322.16,69.84a3.69,3.69,0,1,0,3.29-4A3.68,3.68,0,0,0,322.16,69.84Z"/><path class="cls-14" d="M327.38,66.11a8,8,0,0,0,2.66.5,8.63,8.63,0,0,0,1.83-.15,17.6,17.6,0,0,0,.09,2A18.51,18.51,0,0,0,332.4,71a8.23,8.23,0,0,0-1.88.23,8.68,8.68,0,0,0-1.94.71,3.7,3.7,0,0,0-1.2-5.82Z"/><path class="cls-14" d="M364.4,80.84a3.21,3.21,0,1,0-4.52.47A3.21,3.21,0,0,0,364.4,80.84Z"/><path class="cls-14" d="M358.89,79.92A7.22,7.22,0,0,0,357.55,78a6.91,6.91,0,0,0-1.21-1,16.64,16.64,0,0,0,1.2-1.31,15.47,15.47,0,0,0,1.26-1.81,7.44,7.44,0,0,0,1.3,1,7.91,7.91,0,0,0,1.63.76,3.21,3.21,0,0,0-2.84,4.31Z"/><path class="cls-13" d="M344.3,45.08A3.21,3.21,0,1,0,347.83,48,3.22,3.22,0,0,0,344.3,45.08Z"/><path class="cls-13" d="M347.55,49.63a7,7,0,0,0-.43,2.32,7.65,7.65,0,0,0,.13,1.58c-.58,0-1.18,0-1.78.09a13.93,13.93,0,0,0-2.16.38,7,7,0,0,0-.2-1.63,7.71,7.71,0,0,0-.62-1.7,3.22,3.22,0,0,0,5.06-1Z"/><path class="cls-14" d="M361.76,48.21a3.21,3.21,0,1,0,.47,4.52A3.21,3.21,0,0,0,361.76,48.21Z"/><path class="cls-14" d="M360.84,53.72a7.58,7.58,0,0,0-3,2.55,16.64,16.64,0,0,0-1.31-1.2,15.47,15.47,0,0,0-1.81-1.26,7.44,7.44,0,0,0,1-1.3,7.64,7.64,0,0,0,.76-1.63,3.21,3.21,0,0,0,4.31,2.84Z"/><path class="cls-13" d="M328.14,52.11a3.21,3.21,0,1,0,4.52-.47A3.21,3.21,0,0,0,328.14,52.11Z"/><path class="cls-13" d="M333.65,53A7.1,7.1,0,0,0,335,55a7.81,7.81,0,0,0,1.21,1A14.94,14.94,0,0,0,335,57.31a15.93,15.93,0,0,0-1.27,1.81,6.6,6.6,0,0,0-1.29-1,7.48,7.48,0,0,0-1.64-.76A3.22,3.22,0,0,0,333.65,53Z"/><path class="cls-14" d="M349.66,90.74a3.21,3.21,0,1,0-3.53-2.86A3.21,3.21,0,0,0,349.66,90.74Z"/><path class="cls-14" d="M346.41,86.19a7,7,0,0,0,.43-2.32,7.12,7.12,0,0,0-.13-1.58,17.8,17.8,0,0,0,1.78-.08,15.64,15.64,0,0,0,2.17-.39,7.13,7.13,0,0,0,.19,1.64,7.81,7.81,0,0,0,.62,1.69,3.22,3.22,0,0,0-5.06,1Z"/><path class="cls-13" d="M370.67,64.21a3.21,3.21,0,1,0-2.86,3.53A3.2,3.2,0,0,0,370.67,64.21Z"/><path class="cls-13" d="M366.13,67.46a7,7,0,0,0-2.32-.43,6.61,6.61,0,0,0-1.59.13,15.24,15.24,0,0,0-.08-1.78,17.26,17.26,0,0,0-.38-2.17,6.53,6.53,0,0,0,1.63-.2,7.23,7.23,0,0,0,1.7-.61,3.16,3.16,0,0,0-.8,2.47A3.21,3.21,0,0,0,366.13,67.46Z"/><path class="cls-14" d="M356.56,55.07a15.32,15.32,0,1,0,2.24,21.55A15.32,15.32,0,0,0,356.56,55.07Z"/><path class="cls-13" d="M353,63.4a5.22,5.22,0,1,0,.77,7.34A5.21,5.21,0,0,0,353,63.4Z"/><path class="cls-13" d="M352.67,55.81a2.07,2.07,0,1,0,1.05,2.73A2.06,2.06,0,0,0,352.67,55.81Z"/><path class="cls-13" d="M339.73,56.57a2.74,2.74,0,1,0,3.82.61A2.74,2.74,0,0,0,339.73,56.57Z"/><path class="cls-13" d="M333.43,69.38a2.29,2.29,0,1,0,2-2.52A2.29,2.29,0,0,0,333.43,69.38Z"/><path class="cls-13" d="M358.37,64.8a1.4,1.4,0,1,1-.54,1.9A1.39,1.39,0,0,1,358.37,64.8Z"/><path class="cls-13" d="M353.36,78.05a1.82,1.82,0,1,0-2.55-.41A1.82,1.82,0,0,0,353.36,78.05Z"/><path class="cls-13" d="M342,78.35A3.28,3.28,0,1,0,340.34,74,3.27,3.27,0,0,0,342,78.35Z"/><path class="cls-4" d="M122.6,168.15l-10.3,7.36a3.61,3.61,0,0,1-3,.57,2.52,2.52,0,0,1-2-1.89l-2.08-9.58a2.59,2.59,0,0,1,1-2.56,3.57,3.57,0,0,1,3-.79l12.37,2.21a2.58,2.58,0,0,1,2.22,1.95A2.66,2.66,0,0,1,122.6,168.15Z"/><path class="cls-4" d="M123.32,146.85l-12-2.38a3.83,3.83,0,0,1-2.54-1.78,2.56,2.56,0,0,1-.21-2.67l4.57-8a2.22,2.22,0,0,1,2.32-1,3.82,3.82,0,0,1,2.65,1.59L125.55,143a2.65,2.65,0,0,1,.36,2.9A2.3,2.3,0,0,1,123.32,146.85Z"/><circle class="cls-15" cx="33.09" cy="149.05" r="8.24" transform="translate(-95.7 67.05) rotate(-45)"/><path class="cls-14" d="M302.18,58.93A4.89,4.89,0,1,0,297.29,54,4.9,4.9,0,0,0,302.18,58.93Z"/><path class="cls-4" d="M378.17,235.8a3.36,3.36,0,1,0-3.35-3.35A3.36,3.36,0,0,0,378.17,235.8Z"/><path class="cls-4" d="M319.08,141.79A8.57,8.57,0,1,1,313,144.3a8.56,8.56,0,0,1,6.07-2.51Zm4.2,4.38a5.93,5.93,0,1,0,1.75,4.21A5.93,5.93,0,0,0,323.28,146.17Z"/><path class="cls-4" d="M44.54,240.08a8.57,8.57,0,1,1-6.07,2.51,8.56,8.56,0,0,1,6.07-2.51Zm4.21,4.38a5.94,5.94,0,1,0,1.74,4.2A5.93,5.93,0,0,0,48.75,244.46Z"/><path class="cls-14" d="M317.29,316.86a5,5,0,1,0-5-5A5,5,0,0,0,317.29,316.86Z"/><path class="cls-13" d="M248.47,291.31a3.21,3.21,0,1,0,4.52-.47A3.21,3.21,0,0,0,248.47,291.31Z"/><path class="cls-13" d="M254,292.23a7.22,7.22,0,0,0,1.34,1.94,6.91,6.91,0,0,0,1.21,1,15.18,15.18,0,0,0-1.2,1.32,15.36,15.36,0,0,0-1.26,1.8,7,7,0,0,0-1.3-1,7.27,7.27,0,0,0-1.63-.77,3.24,3.24,0,0,0,2.32-1.18A3.19,3.19,0,0,0,254,292.23Z"/><path class="cls-14" d="M263.15,280.48a3.69,3.69,0,1,0,4.05,3.29A3.69,3.69,0,0,0,263.15,280.48Z"/><path class="cls-14" d="M266.88,285.71a8.6,8.6,0,0,0-.34,4.48,15.49,15.49,0,0,0-2,.1,17,17,0,0,0-2.5.43,8.1,8.1,0,0,0-.22-1.87,9.09,9.09,0,0,0-.71-2,3.7,3.7,0,0,0,5.81-1.19Z"/><path class="cls-14" d="M252.15,322.73a3.21,3.21,0,1,0-.47-4.52A3.23,3.23,0,0,0,252.15,322.73Z"/><path class="cls-14" d="M253.07,317.21a6.8,6.8,0,0,0,1.94-1.33,7,7,0,0,0,1-1.22,15.18,15.18,0,0,0,1.32,1.2,15.36,15.36,0,0,0,1.8,1.26,7,7,0,0,0-1,1.3,7.54,7.54,0,0,0-.77,1.64,3.16,3.16,0,0,0-1.18-2.32A3.22,3.22,0,0,0,253.07,317.21Z"/><path class="cls-13" d="M287.91,302.63a3.21,3.21,0,1,0-2.86,3.52A3.21,3.21,0,0,0,287.91,302.63Z"/><path class="cls-13" d="M283.36,305.87a7.11,7.11,0,0,0-2.31-.42,6.61,6.61,0,0,0-1.59.13,15,15,0,0,0-.47-3.95,7.11,7.11,0,0,0,1.64-.2,7.32,7.32,0,0,0,1.69-.62,3.22,3.22,0,0,0,1,5.06Z"/><path class="cls-14" d="M284.79,320.09a3.21,3.21,0,1,0-4.52.47A3.21,3.21,0,0,0,284.79,320.09Z"/><path class="cls-14" d="M279.28,319.17a7.06,7.06,0,0,0-1.34-1.94,6.91,6.91,0,0,0-1.21-1,13.63,13.63,0,0,0,1.19-1.32,15.46,15.46,0,0,0,1.27-1.8,6.57,6.57,0,0,0,1.29,1,7,7,0,0,0,1.64.76,3.22,3.22,0,0,0-2.84,4.32Z"/><path class="cls-13" d="M280.89,286.47a3.21,3.21,0,1,0,.47,4.52A3.21,3.21,0,0,0,280.89,286.47Z"/><path class="cls-13" d="M280,292a7.37,7.37,0,0,0-3,2.55,15.18,15.18,0,0,0-1.32-1.2,15.36,15.36,0,0,0-1.8-1.26,7,7,0,0,0,1-1.3,7.7,7.7,0,0,0,.77-1.63A3.21,3.21,0,0,0,280,292Z"/><path class="cls-14" d="M242.26,308a3.21,3.21,0,1,0,2.86-3.52A3.2,3.2,0,0,0,242.26,308Z"/><path class="cls-14" d="M246.8,304.74a7.22,7.22,0,0,0,2.32.42,6.61,6.61,0,0,0,1.59-.13,15.24,15.24,0,0,0,.08,1.78,17,17,0,0,0,.38,2.17,7,7,0,0,0-1.63.2,7.7,7.7,0,0,0-1.7.61,3.19,3.19,0,0,0-1-5.05Z"/><path class="cls-13" d="M268.78,329a3.21,3.21,0,1,0-3.52-2.86A3.21,3.21,0,0,0,268.78,329Z"/><path class="cls-13" d="M265.54,324.45a7.22,7.22,0,0,0,.42-2.32,7.15,7.15,0,0,0-.12-1.58,15.21,15.21,0,0,0,1.77-.09,14.06,14.06,0,0,0,2.17-.38,7.18,7.18,0,0,0,.2,1.64,7.32,7.32,0,0,0,.62,1.69,3.22,3.22,0,0,0-5.06,1Z"/><path class="cls-14" d="M277.92,314.88a15.32,15.32,0,1,0-21.55,2.24A15.31,15.31,0,0,0,277.92,314.88Z"/><path class="cls-13" d="M269.6,311.29a5.22,5.22,0,1,0-7.35.76A5.23,5.23,0,0,0,269.6,311.29Z"/><path class="cls-13" d="M277.18,311a2.07,2.07,0,1,0-2.73,1A2.06,2.06,0,0,0,277.18,311Z"/><path class="cls-13" d="M276.42,298.05a2.74,2.74,0,1,0-.61,3.82A2.74,2.74,0,0,0,276.42,298.05Z"/><path class="cls-13" d="M263.62,291.75a2.29,2.29,0,1,0,2.51,2A2.29,2.29,0,0,0,263.62,291.75Z"/><path class="cls-13" d="M268.2,316.69a1.4,1.4,0,1,1-1.91-.53A1.4,1.4,0,0,1,268.2,316.69Z"/><path class="cls-13" d="M254.94,311.69a1.83,1.83,0,1,0,.41-2.55A1.83,1.83,0,0,0,254.94,311.69Z"/><path class="cls-13" d="M254.65,300.32a3.27,3.27,0,1,0,4.33-1.66A3.28,3.28,0,0,0,254.65,300.32Z"/></g></g></svg>